<?xml version="1.0" standalone="no"?>
<!DOCTYPE svg PUBLIC "-//W3C//DTD SVG 20010904//EN"
 "http://www.w3.org/TR/2001/REC-SVG-20010904/DTD/svg10.dtd">
<svg version="1.0" xmlns="http://www.w3.org/2000/svg"
 width="1171.000000pt" height="1219.000000pt" viewBox="0 0 1171.000000 1219.000000"
 preserveAspectRatio="xMidYMid meet">

<g transform="translate(0.000000,1219.000000) scale(0.100000,-0.100000)"
fill="#000000" stroke="none">
<path d="M2810 9891 c0 -6 4 -13 10 -16 6 -3 7 1 4 9 -7 18 -14 21 -14 7z"/>
<path d="M2915 9539 c-4 -6 -5 -12 -2 -15 2 -3 7 2 10 11 7 17 1 20 -8 4z"/>
<path d="M3843 9415 c0 -8 4 -12 9 -9 5 3 6 10 3 15 -9 13 -12 11 -12 -6z"/>
<path d="M3795 9380 c-3 -5 -2 -10 4 -10 5 0 13 5 16 10 3 6 2 10 -4 10 -5 0
-13 -4 -16 -10z"/>
<path d="M4101 9353 c19 -28 39 -36 39 -16 0 4 -3 4 -6 0 -3 -3 -17 6 -31 21
l-24 27 22 -32z"/>
<path d="M2933 9280 c0 -41 2 -58 4 -37 2 20 2 54 0 75 -2 20 -4 3 -4 -38z"/>
<path d="M3725 9299 c-3 -4 2 -6 10 -5 21 3 28 13 10 13 -9 0 -18 -4 -20 -8z"/>
<path d="M4130 9305 c0 -2 6 -8 13 -14 10 -8 14 -7 14 2 0 8 -6 14 -14 14 -7
0 -13 -1 -13 -2z"/>
<path d="M3701 9273 c-1 -17 16 -25 25 -12 4 7 3 9 -4 5 -5 -3 -13 0 -15 6 -4
9 -6 10 -6 1z"/>
<path d="M4186 9267 c3 -10 9 -15 12 -12 3 3 0 11 -7 18 -10 9 -11 8 -5 -6z"/>
<path d="M4187 9229 c7 -9 10 -19 6 -23 -4 -4 1 -4 10 0 10 3 17 7 15 8 -2 1
-12 8 -23 16 -18 14 -19 13 -8 -1z"/>
<path d="M3684 9194 c-8 -20 -13 -38 -11 -40 2 -2 11 14 20 36 19 50 12 53 -9
4z"/>
<path d="M2936 9141 c1 -34 -1 -60 -4 -56 -4 4 -12 -40 -18 -97 -7 -57 -19
-164 -28 -238 -22 -190 -44 -446 -56 -640 -13 -215 -13 -712 0 -915 57 -887
293 -1584 693 -2050 347 -404 819 -614 1572 -699 108 -12 121 -12 130 2 19 31
62 108 114 207 62 116 81 149 172 305 266 455 506 910 641 1215 155 350 299
800 342 1070 14 92 43 320 45 355 6 135 9 172 15 177 8 8 8 186 0 207 -3 9
-10 16 -15 16 -6 0 -5 -8 1 -19 5 -11 10 -54 10 -95 0 -61 -3 -76 -15 -76 -14
0 -20 -12 -16 -34 1 -5 -5 -6 -14 -2 -9 3 -19 6 -21 6 -2 0 -4 10 -4 23 0 17
-9 26 -35 36 -20 7 -58 35 -86 62 -40 40 -56 49 -84 49 -31 0 -35 3 -35 25 0
23 -4 25 -40 25 -35 0 -40 3 -40 23 0 18 -10 28 -40 42 -22 10 -40 24 -40 32
0 9 -13 13 -40 13 -31 0 -40 4 -40 18 -1 21 -84 62 -128 62 -29 0 -32 3 -32
30 0 28 -2 30 -40 30 -36 0 -40 3 -40 25 0 23 -4 25 -40 25 -29 0 -40 4 -40
15 0 11 -11 15 -40 15 -36 0 -40 3 -40 25 0 23 -4 25 -40 25 -29 0 -40 4 -40
15 0 11 -11 15 -40 15 -22 0 -40 5 -40 10 0 6 -7 10 -15 10 -8 0 -15 6 -15 13
0 16 -56 37 -98 37 -22 0 -32 5 -32 15 0 11 -11 15 -40 15 -29 0 -40 4 -40 15
0 11 -11 15 -40 15 -36 0 -40 3 -40 25 0 25 1 25 80 25 79 0 80 0 80 25 0 23
-4 25 -40 25 -33 0 -40 3 -40 20 0 19 -6 20 -82 18 -46 -1 -64 -3 -40 -5 42
-4 42 -4 42 -44 0 -39 0 -39 -40 -39 -29 0 -40 4 -40 15 0 11 -11 15 -40 15
-22 0 -40 5 -40 10 0 6 -18 10 -40 10 -29 0 -40 4 -40 15 0 11 -11 15 -40 15
-29 0 -40 4 -40 15 0 11 -11 15 -40 15 -22 0 -40 5 -40 10 0 6 -18 10 -40 10
-29 0 -40 4 -40 15 0 12 -16 15 -80 15 l-80 0 -1 38 c-1 33 -2 34 -9 12 -4
-14 -8 -19 -9 -12 -1 9 -5 10 -20 0 -15 -9 -22 -8 -36 6 -9 9 -14 23 -11 31 7
18 2 19 -24 3 -25 -16 -40 1 -40 45 0 15 -4 27 -10 27 -5 0 -10 6 -10 14 0 8
-4 17 -8 20 -12 7 20 -118 32 -126 5 -4 14 -4 18 -2 4 3 8 0 8 -6 0 -7 -7 -9
-16 -6 -13 5 -15 1 -10 -20 17 -65 45 -217 56 -299 7 -49 15 -97 18 -105 3 -8
5 -18 4 -22 -1 -4 6 -85 15 -180 20 -218 23 -781 5 -988 -28 -318 -79 -598
-146 -807 -127 -390 -310 -509 -472 -305 -46 57 -127 215 -170 328 -23 62 -80
325 -108 504 -91 567 -82 1320 21 1830 14 69 26 132 27 140 1 9 4 20 8 25 3 6
8 24 12 40 4 17 10 39 13 50 5 17 4 18 -10 6 -9 -7 -15 -18 -14 -24 1 -7 -11
-12 -30 -12 -17 0 -35 -3 -39 -7 -4 -5 -25 -8 -46 -8 -27 0 -38 4 -38 15 0 13
-28 15 -195 15 -174 0 -195 2 -204 18 -9 16 -10 16 -16 0 -4 -10 -13 -18 -21
-18 -13 0 -17 10 -28 70 -3 14 -3 4 -2 -22 2 -27 0 -48 -4 -48 -4 0 -11 21
-14 48 -9 70 -8 86 4 90 5 2 10 8 10 13 0 6 -5 7 -12 3 -7 -5 -9 -2 -6 7 3 8
0 28 -6 44 -11 26 -12 22 -10 -34z m13 -141 c0 -28 -2 -31 -9 -15 -5 11 -9 36
-9 55 0 28 2 31 9 15 5 -11 9 -36 9 -55z m-10 -103 c0 -9 -2 -8 -6 1 -2 6 -10
9 -15 6 -7 -4 -8 -2 -4 5 9 13 26 5 25 -12z m622 -13 c5 -15 8 -29 5 -31 -2
-2 -8 10 -14 26 -13 38 -5 41 9 5z m-398 -1 c-24 -2 -62 -2 -85 0 -24 2 -5 4
42 4 47 0 66 -2 43 -4z m377 -13 c0 -11 -4 -20 -9 -20 -5 0 -7 9 -4 20 3 11 7
20 9 20 2 0 4 -9 4 -20z m-602 -65 c0 -16 -2 -15 -8 5 -4 14 -8 34 -8 45 0 16
2 15 8 -5 4 -14 8 -34 8 -45z m622 -10 c0 -5 -5 -3 -10 5 -5 8 -10 20 -10 25
0 6 5 3 10 -5 5 -8 10 -19 10 -25z m-603 -17 c-3 -8 -6 -5 -6 6 -1 11 2 17 5
13 3 -3 4 -12 1 -19z m1424 -19 c-5 -13 -10 -19 -10 -12 -1 15 10 45 15 40 3
-2 0 -15 -5 -28z m-1471 -13 c0 -3 -4 -8 -10 -11 -5 -3 -10 -1 -10 4 0 6 5 11
10 11 6 0 10 -2 10 -4z m623 -11 c-3 -9 -8 -14 -10 -11 -3 3 -2 9 2 15 9 16
15 13 8 -4z m855 -20 c-6 -13 -15 -22 -19 -19 -5 2 -1 14 9 24 22 26 24 25 10
-5z m1932 -855 c0 -5 -2 -10 -4 -10 -3 0 -8 5 -11 10 -3 6 -1 10 4 10 6 0 11
-4 11 -10z m179 -130 c0 -10 -3 -8 -9 5 -12 27 -12 43 0 25 5 -8 9 -22 9 -30z
m35 -14 c-3 -9 -10 -13 -15 -10 -5 3 -3 11 4 19 15 16 19 13 11 -9z m-5 -32
c6 4 11 2 11 -3 0 -6 -5 -11 -11 -11 -6 0 -8 -7 -4 -17 5 -14 4 -15 -6 -6 -7
7 -14 23 -16 35 -2 17 -1 19 6 9 5 -7 14 -10 20 -7z m-22 -66 c-3 -8 -6 -5 -6
6 -1 11 2 17 5 13 3 -3 4 -12 1 -19z m1 -173 c-3 -3 -9 2 -12 12 -6 14 -5 15
5 6 7 -7 10 -15 7 -18z m-8 -30 c0 -5 -5 -3 -10 5 -5 8 -10 20 -10 25 0 6 5 3
10 -5 5 -8 10 -19 10 -25z"/>
<path d="M4210 9159 c0 -5 5 -7 10 -4 6 3 10 8 10 11 0 2 -4 4 -10 4 -5 0 -10
-5 -10 -11z"/>
<path d="M3604 9130 c0 -13 4 -16 10 -10 7 7 7 13 0 20 -6 6 -10 3 -10 -10z"/>
<path d="M3638 9143 c6 -2 12 -14 11 -26 0 -21 -1 -21 -10 -2 -7 16 -8 14 -4
-9 6 -26 4 -28 -9 -17 -19 16 -21 1 -3 -18 10 -11 9 -13 -4 -8 -12 4 -15 0
-11 -19 2 -13 9 -27 15 -31 6 -4 8 0 4 10 -3 9 -3 17 1 19 11 5 41 95 35 102
-4 3 -13 6 -22 5 -10 0 -12 -2 -3 -6z"/>
<path d="M3537 9133 c-12 -12 -7 -22 8 -17 8 4 15 10 15 15 0 11 -14 12 -23 2z"/>
<path d="M4265 9130 c-3 -5 -1 -10 4 -10 6 0 11 5 11 10 0 6 -2 10 -4 10 -3 0
-8 -4 -11 -10z"/>
<path d="M4236 9107 c3 -10 9 -15 12 -12 3 3 0 11 -7 18 -10 9 -11 8 -5 -6z"/>
<path d="M3298 9083 c12 -2 32 -2 45 0 12 2 2 4 -23 4 -25 0 -35 -2 -22 -4z"/>
<path d="M3510 9074 c0 -8 5 -12 10 -9 6 3 10 10 10 16 0 5 -4 9 -10 9 -5 0
-10 -7 -10 -16z"/>
<path d="M4257 9070 c-3 -13 -1 -18 6 -13 6 4 8 0 4 -10 -3 -9 -2 -19 4 -23 6
-3 8 -12 5 -20 -3 -8 0 -13 7 -11 7 1 11 -6 9 -18 -4 -23 0 -20 18 14 11 21
10 23 -4 18 -14 -6 -16 -3 -11 16 5 17 4 19 -4 7 -9 -13 -11 -13 -11 1 0 8 6
21 13 28 10 10 8 11 -7 5 -13 -5 -17 -4 -12 4 3 6 2 13 -3 16 -5 3 -11 -3 -14
-14z"/>
<path d="M2997 9039 c3 -24 7 -46 9 -48 9 -10 3 65 -5 78 -6 10 -8 -1 -4 -30z"/>
<path d="M3200 9050 c0 -18 7 -20 80 -20 73 0 80 2 80 20 0 18 -7 20 -80 20
-73 0 -80 -2 -80 -20z"/>
<path d="M3530 9023 c-13 -15 -13 -16 2 -11 8 4 21 1 27 -5 6 -6 11 -9 12 -6
0 2 2 12 4 22 4 22 -25 22 -45 0z"/>
<path d="M3510 8975 c0 -9 6 -12 15 -9 8 4 15 10 15 15 0 5 -7 9 -15 9 -8 0
-15 -7 -15 -15z"/>
<path d="M3550 8978 c0 -4 4 -8 9 -8 6 0 12 4 15 8 3 5 -1 9 -9 9 -8 0 -15 -4
-15 -9z"/>
<path d="M4481 8973 c-1 -18 5 -23 24 -23 14 0 25 5 25 10 0 6 -9 10 -19 10
-11 0 -22 6 -24 13 -3 6 -6 2 -6 -10z"/>
<path d="M4315 8960 c-3 -5 -1 -10 4 -10 6 0 11 5 11 10 0 6 -2 10 -4 10 -3 0
-8 -4 -11 -10z"/>
<path d="M4800 8870 c0 -5 18 -10 40 -10 22 0 40 5 40 10 0 6 -18 10 -40 10
-22 0 -40 -4 -40 -10z"/>
<path d="M4480 8860 c0 -5 18 -10 40 -10 22 0 40 5 40 10 0 6 -18 10 -40 10
-22 0 -40 -4 -40 -10z"/>
<path d="M4603 8833 c33 -4 37 -7 37 -34 l0 -29 80 0 c64 0 80 3 80 15 0 11
-11 15 -40 15 -29 0 -40 4 -40 15 0 8 -8 15 -19 15 -10 0 -45 2 -77 4 -32 2
-42 1 -21 -1z"/>
<path d="M4960 8800 c0 -6 33 -9 83 -9 77 2 79 2 32 9 -72 12 -115 11 -115 0z"/>
<path d="M4818 8753 c12 -2 32 -2 45 0 12 2 2 4 -23 4 -25 0 -35 -2 -22 -4z"/>
<path d="M5120 8740 c0 -6 25 -10 58 -9 41 0 51 3 37 9 -28 12 -95 12 -95 0z"/>
<path d="M4960 8700 c0 -5 18 -10 40 -10 22 0 40 5 40 10 0 6 -18 10 -40 10
-22 0 -40 -4 -40 -10z"/>
<path d="M6681 8664 c0 -11 3 -14 6 -6 3 7 2 16 -1 19 -3 4 -6 -2 -5 -13z"/>
<path d="M6690 8620 c0 -5 5 -10 11 -10 5 0 7 5 4 10 -3 6 -8 10 -11 10 -2 0
-4 -4 -4 -10z"/>
<path d="M5458 8573 c12 -2 32 -2 45 0 12 2 2 4 -23 4 -25 0 -35 -2 -22 -4z"/>
<path d="M5600 8550 c0 -22 25 -27 50 -10 13 9 13 11 0 20 -25 17 -50 12 -50
-10z"/>
<path d="M5760 8470 c0 -5 18 -10 40 -10 22 0 40 5 40 10 0 6 -18 10 -40 10
-22 0 -40 -4 -40 -10z"/>
<path d="M5618 8433 c12 -2 32 -2 45 0 12 2 2 4 -23 4 -25 0 -35 -2 -22 -4z"/>
<path d="M5803 8433 c-71 -7 -48 -23 31 -23 50 0 76 -4 79 -12 3 -8 6 -6 6 5
1 13 -7 17 -40 17 -24 0 -38 4 -34 10 3 6 5 9 3 8 -2 -1 -22 -3 -45 -5z"/>
<path d="M6970 8399 c0 -5 5 -7 10 -4 6 3 10 8 10 11 0 2 -4 4 -10 4 -5 0 -10
-5 -10 -11z"/>
<path d="M7189 8363 c-12 -16 -12 -17 2 -6 9 7 20 9 24 5 5 -4 5 -1 1 6 -9 16
-11 15 -27 -5z"/>
<path d="M5778 8353 c12 -2 32 -2 45 0 12 2 2 4 -23 4 -25 0 -35 -2 -22 -4z"/>
<path d="M6751 8334 c0 -11 3 -14 6 -6 3 7 2 16 -1 19 -3 4 -6 -2 -5 -13z"/>
<path d="M6661 8323 c-1 -6 -4 -20 -7 -30 -5 -17 -5 -17 6 0 6 10 9 23 6 30
-3 9 -5 9 -5 0z"/>
<path d="M6080 8272 c0 -19 5 -22 40 -22 22 0 40 5 40 10 0 6 -13 10 -28 10
-15 0 -33 5 -40 12 -9 9 -12 7 -12 -10z"/>
<path d="M6520 8280 c0 -5 5 -10 10 -10 6 0 10 5 10 10 0 6 -4 10 -10 10 -5 0
-10 -4 -10 -10z"/>
<path d="M6842 8255 c0 -16 2 -22 5 -12 2 9 2 23 0 30 -3 6 -5 -1 -5 -18z"/>
<path d="M6637 8229 c4 -13 8 -18 11 -10 2 7 -1 18 -6 23 -8 8 -9 4 -5 -13z"/>
<path d="M6488 8193 c5 -21 7 -23 10 -9 2 10 0 22 -6 28 -6 6 -7 0 -4 -19z"/>
<path d="M6098 8193 c12 -2 32 -2 45 0 12 2 2 4 -23 4 -25 0 -35 -2 -22 -4z"/>
<path d="M6538 8158 c3 -28 1 -39 -7 -34 -7 5 -11 -1 -11 -14 0 -19 2 -20 15
-6 16 15 21 81 7 90 -4 2 -6 -14 -4 -36z"/>
<path d="M6770 8190 c0 -5 5 -10 11 -10 5 0 7 5 4 10 -3 6 -8 10 -11 10 -2 0
-4 -4 -4 -10z"/>
<path d="M8136 8162 c-3 -5 1 -9 9 -9 8 0 12 4 9 9 -3 4 -7 8 -9 8 -2 0 -6 -4
-9 -8z"/>
<path d="M6687 8153 c-4 -3 -7 -11 -7 -17 0 -6 5 -5 12 2 6 6 9 14 7 17 -3 3
-9 2 -12 -2z"/>
<path d="M7117 8145 c-19 -14 -23 -30 -4 -18 6 4 18 8 25 9 20 4 25 11 10 17
-8 2 -22 -1 -31 -8z"/>
<path d="M6301 8127 c-11 -14 -27 -16 -75 -13 -33 2 -44 1 -23 -1 24 -3 37 -9
37 -19 0 -26 47 -64 77 -63 15 0 22 3 16 6 -22 8 -15 42 10 47 12 3 31 7 42 9
11 3 1 5 -22 6 -35 1 -42 5 -45 23 -3 20 -4 20 -17 5z"/>
<path d="M6782 8120 c0 -14 2 -19 5 -12 2 6 2 18 0 25 -3 6 -5 1 -5 -13z"/>
<path d="M6852 8100 c0 -14 3 -34 8 -45 l9 -20 -1 20 c0 11 -4 31 -8 45 l-8
25 0 -25z"/>
<path d="M7067 8109 c7 -7 15 -10 18 -7 3 3 -2 9 -12 12 -14 6 -15 5 -6 -5z"/>
<path d="M6540 8086 c0 -9 -4 -14 -10 -11 -5 3 -10 1 -10 -4 0 -6 5 -11 10
-11 13 0 25 28 16 37 -3 4 -6 -1 -6 -11z"/>
<path d="M6696 8049 c4 -54 10 -59 12 -10 1 22 -2 42 -7 45 -4 3 -7 -13 -5
-35z"/>
<path d="M6780 8040 c0 -5 5 -10 11 -10 5 0 7 5 4 10 -3 6 -8 10 -11 10 -2 0
-4 -4 -4 -10z"/>
<path d="M6490 8020 c-6 -12 -7 -20 -1 -20 5 0 12 8 15 18 3 9 4 2 2 -15 -1
-18 1 -33 6 -33 4 0 8 16 8 35 0 39 -14 46 -30 15z"/>
<path d="M7172 8027 c-8 -10 -6 -13 11 -14 12 0 16 1 9 4 -6 3 -10 9 -6 14 8
14 -2 11 -14 -4z"/>
<path d="M6858 7980 c-2 -22 0 -40 4 -40 5 0 8 18 8 40 0 22 -2 40 -4 40 -2 0
-6 -18 -8 -40z"/>
<path d="M6650 7972 c0 -22 4 -43 9 -47 6 -3 8 11 5 37 -7 56 -14 62 -14 10z"/>
<path d="M7320 7990 c-9 -6 -10 -10 -3 -10 6 0 15 5 18 10 8 12 4 12 -15 0z"/>
<path d="M6707 7932 c1 -26 -1 -36 -4 -22 -2 14 -9 30 -15 35 -7 7 -8 4 -5
-10 4 -11 9 -32 13 -47 3 -16 9 -28 13 -28 9 0 13 107 4 113 -4 3 -7 -16 -6
-41z"/>
<path d="M7105 7960 c-3 -6 1 -7 9 -4 18 7 21 14 7 14 -6 0 -13 -4 -16 -10z"/>
<path d="M6400 7945 c0 -8 7 -15 16 -15 8 0 22 -6 30 -14 8 -8 14 -22 14 -30
0 -9 8 -16 20 -16 29 0 25 22 -10 59 -32 33 -70 42 -70 16z"/>
<path d="M6790 7924 c0 -8 5 -12 10 -9 6 3 10 10 10 16 0 5 -4 9 -10 9 -5 0
-10 -7 -10 -16z"/>
<path d="M7066 7932 c-3 -5 1 -9 9 -9 8 0 12 4 9 9 -3 4 -7 8 -9 8 -2 0 -6 -4
-9 -8z"/>
<path d="M6859 7913 c-2 -10 -1 -45 2 -78 l6 -60 1 78 c2 74 -2 96 -9 60z"/>
<path d="M7159 7899 c-16 -32 3 -44 27 -17 18 22 18 22 0 8 -17 -14 -18 -13
-12 8 9 28 0 29 -15 1z"/>
<path d="M6660 7899 c0 -5 5 -7 10 -4 6 3 10 8 10 11 0 2 -4 4 -10 4 -5 0 -10
-5 -10 -11z"/>
<path d="M6810 7899 c0 -5 5 -7 10 -4 6 3 10 8 10 11 0 2 -4 4 -10 4 -5 0 -10
-5 -10 -11z"/>
<path d="M7050 7901 c0 -6 4 -13 10 -16 6 -3 7 1 4 9 -7 18 -14 21 -14 7z"/>
<path d="M7210 7900 c0 -5 5 -10 11 -10 5 0 7 5 4 10 -3 6 -8 10 -11 10 -2 0
-4 -4 -4 -10z"/>
<path d="M6791 7884 c0 -11 3 -14 6 -6 3 7 2 16 -1 19 -3 4 -6 -2 -5 -13z"/>
<path d="M7026 7873 c-6 -14 -5 -15 5 -6 7 7 10 15 7 18 -3 3 -9 -2 -12 -12z"/>
<path d="M6663 7842 c-2 -37 -2 -37 7 -7 5 16 6 33 2 37 -4 4 -9 -9 -9 -30z"/>
<path d="M6704 7800 c6 -46 5 -50 -15 -50 -14 0 -19 5 -16 15 4 8 2 17 -3 20
-6 4 -10 -7 -10 -23 0 -23 4 -28 21 -28 17 1 23 -6 25 -29 3 -27 3 -28 -6 -7
-10 23 -10 23 -31 4 -24 -23 -23 -69 1 -64 10 1 9 -2 -4 -12 -12 -10 -17 -23
-13 -36 3 -11 1 -20 -5 -20 -6 0 -8 -22 -6 -54 1 -30 0 -52 -3 -50 -4 2 -10
-31 -14 -74 -4 -42 -17 -142 -30 -221 -13 -80 -21 -149 -18 -154 3 -6 2 -7 -4
-4 -10 6 -57 -169 -48 -183 3 -5 2 -10 -2 -12 -5 -1 -25 -57 -47 -123 -101
-315 -191 -533 -361 -880 -197 -401 -634 -1165 -754 -1318 l-53 -67 50 0 c48
0 52 2 100 57 67 79 186 248 429 613 204 306 411 674 575 1025 100 216 276
724 265 767 -3 10 -2 16 2 13 7 -4 80 291 81 325 0 8 6 58 15 110 21 141 26
202 15 195 -16 -10 -12 21 4 35 16 13 20 110 5 110 -5 0 -9 8 -10 18 -1 11 -4
8 -8 -8 -5 -17 -14 -25 -28 -24 -15 0 -21 -6 -21 -20 0 -39 9 -67 18 -61 6 3
10 1 10 -5 0 -7 -8 -9 -20 -5 -18 6 -20 2 -21 -37 -1 -24 -3 -55 -5 -71 -1
-15 1 -25 6 -22 4 3 10 0 12 -7 3 -7 12 -9 22 -5 15 6 17 14 12 40 -4 25 -3
28 5 15 6 -10 7 -34 3 -55 -4 -21 -9 -32 -11 -25 -6 17 -23 15 -23 -2 0 -8 -4
-17 -9 -20 -4 -3 -6 6 -3 21 4 19 1 24 -9 21 -8 -3 -14 -18 -14 -36 0 -18 -3
-32 -8 -32 -4 0 -7 -6 -6 -12 1 -7 0 -24 -4 -38 -3 -14 -18 -79 -33 -145 -15
-66 -32 -124 -37 -130 -5 -6 -5 7 0 30 4 22 8 56 8 77 0 20 3 34 6 32 11 -6
16 90 6 97 -5 4 -5 8 1 10 6 2 14 28 18 57 6 48 5 54 -14 59 -11 3 -23 11 -26
19 -4 11 0 11 19 -2 16 -10 25 -12 25 -5 0 6 -7 14 -15 17 -8 4 -15 11 -15 16
0 6 7 5 15 -2 9 -7 19 -9 23 -5 4 4 1 10 -5 12 -7 3 -13 9 -13 14 0 6 4 8 9 5
5 -3 12 67 16 156 5 100 4 163 -2 165 -5 2 -7 17 -5 33 3 20 0 30 -8 30 -9 0
-11 -13 -6 -50z m-17 -132 c-3 -8 -6 -5 -6 6 -1 11 2 17 5 13 3 -3 4 -12 1
-19z m15 -40 c-6 -6 -7 0 -4 19 5 21 7 23 10 9 2 -10 0 -22 -6 -28z m143 2
c-5 -55 -12 -63 -35 -40 -20 20 -28 56 -10 45 6 -3 10 0 10 7 0 10 2 10 9 -1
5 -7 6 -23 3 -35 -3 -11 -1 -18 3 -14 5 5 8 24 7 43 -1 19 3 35 8 35 5 0 7
-18 5 -40z m-158 -26 c-3 -3 -12 -4 -19 -1 -8 3 -5 6 6 6 11 1 17 -2 13 -5z
m3 -34 c0 -11 -4 -20 -9 -20 -7 0 -8 17 -2 38 4 10 11 -2 11 -18z m132 -33 c3
-14 0 -24 -7 -24 -7 0 -10 10 -7 24 2 13 6 23 7 23 1 0 5 -10 7 -23z m-25 -68
c0 -29 -2 -30 -14 -13 -15 21 -17 38 -3 29 6 -3 10 -1 10 4 0 6 2 11 3 11 2 0
4 -14 4 -31z m-114 -139 c-6 -7 -23 23 -23 40 0 8 6 4 13 -10 8 -14 12 -27 10
-30z m-33 10 c0 -5 -4 -10 -10 -10 -5 0 -10 5 -10 10 0 6 5 10 10 10 6 0 10
-4 10 -10z m17 -42 c2 -18 0 -20 -7 -8 -12 18 -13 30 -2 30 4 0 9 -10 9 -22z
m143 -22 c0 -3 -4 -8 -10 -11 -5 -3 -10 -1 -10 4 0 6 5 11 10 11 6 0 10 -2 10
-4z m-176 -72 c3 -8 2 -12 -4 -9 -6 3 -10 10 -10 16 0 14 7 11 14 -7z m30 -40
c3 -8 2 -12 -4 -9 -6 3 -10 10 -10 16 0 14 7 11 14 -7z m50 -60 c3 -8 2 -12
-4 -9 -6 3 -10 10 -10 16 0 14 7 11 14 -7z"/>
<path d="M7001 7828 c-9 -25 -5 -41 9 -33 5 3 6 13 3 21 -3 9 0 20 8 25 10 6
11 9 1 9 -7 0 -16 -10 -21 -22z"/>
<path d="M7349 7843 c0 -5 -2 -16 -4 -26 -2 -11 -1 -16 3 -13 8 8 14 46 7 46
-3 0 -5 -3 -6 -7z"/>
<path d="M6812 7815 c0 -16 2 -22 5 -12 2 9 2 23 0 30 -3 6 -5 -1 -5 -18z"/>
<path d="M7500 7830 c-9 -6 -10 -10 -3 -10 6 0 15 5 18 10 8 12 4 12 -15 0z"/>
<path d="M7445 7810 c-3 -6 1 -7 9 -4 18 7 21 14 7 14 -6 0 -13 -4 -16 -10z"/>
<path d="M6790 7779 c0 -23 3 -30 9 -20 5 7 13 11 19 7 5 -3 13 1 16 10 4 10
2 13 -6 8 -6 -4 -17 1 -25 11 -12 17 -13 16 -13 -16z"/>
<path d="M7120 7759 c0 -40 -13 -77 -34 -92 -7 -6 -4 -7 7 -3 21 7 22 -7 2
-24 -8 -7 -15 -16 -15 -21 0 -4 10 2 23 14 18 18 23 35 25 95 2 39 0 72 -3 72
-3 0 -5 -18 -5 -41z"/>
<path d="M6980 7783 c0 -6 -3 -20 -7 -30 -7 -17 -6 -17 11 0 14 14 16 21 7 30
-8 8 -11 8 -11 0z"/>
<path d="M7225 7779 c-4 -6 -5 -12 -2 -15 2 -3 7 2 10 11 7 17 1 20 -8 4z"/>
<path d="M7299 7773 c-13 -16 -12 -17 4 -4 9 7 17 15 17 17 0 8 -8 3 -21 -13z"/>
<path d="M7403 7783 c4 -3 1 -13 -6 -22 -11 -14 -10 -14 5 -2 16 12 16 31 1
31 -4 0 -3 -3 0 -7z"/>
<path d="M6853 7751 c3 -13 0 -18 -8 -15 -7 3 -16 1 -20 -5 -3 -6 1 -11 9 -11
9 0 16 -5 16 -11 0 -5 5 -7 10 -4 14 8 13 65 -1 65 -6 0 -9 -9 -6 -19z"/>
<path d="M7665 7751 c-3 -5 -2 -12 3 -15 5 -3 9 1 9 9 0 17 -3 19 -12 6z"/>
<path d="M7216 7728 c3 -4 9 -8 15 -8 5 0 9 4 9 8 0 5 -7 9 -15 9 -8 0 -12 -4
-9 -9z"/>
<path d="M7400 7735 c0 -5 5 -17 10 -25 5 -8 10 -10 10 -5 0 6 -5 17 -10 25
-5 8 -10 11 -10 5z"/>
<path d="M6963 7717 c0 -7 -4 -20 -8 -29 -4 -11 -3 -18 4 -18 6 0 11 3 12 8 0
4 2 15 4 24 2 10 0 20 -4 23 -4 2 -8 -1 -8 -8z"/>
<path d="M7306 7715 c4 -8 11 -15 16 -15 6 0 5 6 -2 15 -7 8 -14 15 -16 15 -2
0 -1 -7 2 -15z"/>
<path d="M6787 7713 c-13 -12 -7 -33 8 -33 8 0 15 5 15 10 0 6 -5 10 -11 10
-5 0 -7 5 -4 10 7 11 2 13 -8 3z"/>
<path d="M7059 7684 l-24 -27 28 18 c15 9 27 21 27 26 0 14 -5 11 -31 -17z"/>
<path d="M7170 7670 c-9 -16 -8 -18 5 -14 8 3 13 10 10 14 -3 5 1 11 7 13 10
4 10 6 1 6 -7 1 -17 -8 -23 -19z"/>
<path d="M6946 7649 c-2 -8 -10 -30 -17 -49 -16 -46 -25 -484 -9 -457 6 9 9
21 5 26 -3 5 0 13 6 17 8 5 10 2 5 -7 -4 -8 6 1 23 20 28 32 29 35 13 48 -16
13 -15 13 3 4 17 -8 29 0 82 52 34 33 60 64 57 69 -3 4 3 8 13 8 21 1 85 50
65 50 -7 0 -11 4 -7 9 9 16 -15 24 -30 11 -12 -10 -15 -9 -16 6 0 18 -1 18 -8
-1 -11 -27 -2 -57 16 -51 8 3 11 1 8 -4 -3 -6 -13 -10 -22 -10 -24 0 -77 -41
-63 -50 8 -5 6 -11 -5 -20 -13 -11 -14 -10 -9 5 6 14 4 16 -7 10 -8 -4 -11 -5
-7 0 9 9 -9 35 -24 35 -5 0 -6 -6 -3 -12 4 -7 -3 -2 -14 12 -23 28 -27 80 -10
112 9 17 8 24 -3 32 -7 6 -12 20 -10 31 2 16 1 17 -7 5 -6 -8 -8 -22 -5 -32 2
-9 0 -19 -6 -23 -5 -3 -10 -12 -10 -18 0 -8 3 -8 9 2 15 24 18 -3 5 -49 -8
-32 -12 -38 -13 -20 -1 20 -3 22 -12 10 -8 -11 -9 -4 -7 28 2 23 0 42 -4 42
-5 0 -8 5 -8 10 0 6 7 10 15 10 8 0 15 5 15 11 0 5 -4 7 -10 4 -5 -3 -10 3
-10 14 0 12 5 21 11 21 5 0 7 -6 4 -12 -4 -7 1 -4 9 6 9 11 16 25 16 30 0 6
-4 4 -10 -4 -15 -24 -23 11 -10 45 6 15 8 30 6 33 -3 3 -7 -1 -10 -9z m44
-149 c0 -5 -5 -10 -11 -10 -5 0 -7 5 -4 10 3 6 8 10 11 10 2 0 4 -4 4 -10z
m185 -67 c-3 -19 -22 -19 -40 -2 -7 7 -4 8 8 4 10 -4 17 -2 17 4 0 6 4 11 9
11 5 0 8 -8 6 -17z m-235 -63 c0 -5 -2 -10 -4 -10 -3 0 -8 5 -11 10 -3 6 -1
10 4 10 6 0 11 -4 11 -10z m170 -4 c0 -2 -8 -10 -17 -17 -16 -13 -17 -12 -4 4
13 16 21 21 21 13z m-117 -63 c-7 -3 -13 -12 -13 -20 0 -19 -13 -9 -16 12 -1
8 2 13 6 10 5 -3 12 0 15 6 4 5 10 7 14 3 3 -4 0 -9 -6 -11z m37 3 c0 -3 -4
-8 -10 -11 -5 -3 -10 -1 -10 4 0 6 5 11 10 11 6 0 10 -2 10 -4z m-97 -91 c-3
-9 -8 -14 -10 -11 -3 3 -2 9 2 15 9 16 15 13 8 -4z"/>
<path d="M7305 7650 c-2 -3 7 -6 21 -6 13 0 24 3 24 7 0 9 -40 8 -45 -1z"/>
<path d="M7110 7620 c-6 -11 -8 -20 -6 -20 3 0 10 9 16 20 6 11 8 20 6 20 -3
0 -10 -9 -16 -20z"/>
<path d="M6974 7612 c2 -21 21 -19 23 3 l3 20 -9 -20 c-6 -16 -9 -17 -13 -5
-3 8 -4 9 -4 2z"/>
<path d="M7203 7613 c0 -9 4 -10 14 -2 7 6 13 12 13 14 0 1 -6 2 -13 2 -8 0
-14 -6 -14 -14z"/>
<path d="M7248 7623 c7 -3 16 -2 19 1 4 3 -2 6 -13 5 -11 0 -14 -3 -6 -6z"/>
<path d="M7013 7593 c0 -18 -5 -39 -12 -46 -9 -11 -8 -17 4 -27 9 -7 15 -8 15
-2 0 5 8 8 18 5 23 -6 59 42 40 53 -6 4 -8 3 -5 -3 4 -6 -2 -18 -13 -28 -26
-24 -47 -8 -31 23 14 26 15 54 2 33 -7 -11 -10 -10 -14 5 -2 10 -4 5 -4 -13z"/>
<path d="M7220 7585 c-14 -8 -19 -14 -12 -15 7 0 11 -4 8 -8 -6 -10 51 -9 60
1 7 7 -14 37 -25 37 -3 -1 -17 -7 -31 -15z m48 -16 c3 -11 2 -12 -6 0 -7 9
-12 10 -16 2 -4 -6 -12 -8 -18 -5 -6 4 -5 10 3 15 18 11 32 7 37 -12z"/>
<path d="M7090 7545 c-7 -9 -11 -17 -9 -20 3 -2 10 5 17 15 14 24 10 26 -8 5z"/>
<path d="M7658 7542 c-16 -10 -28 -21 -28 -25 0 -5 13 1 29 12 15 11 32 17 36
13 5 -4 5 -1 1 6 -4 6 -8 12 -9 11 -1 0 -14 -8 -29 -17z"/>
<path d="M7304 7498 l-19 -21 28 18 c28 18 33 25 19 25 -5 0 -17 -10 -28 -22z"/>
<path d="M7024 7498 c-3 -4 -2 -13 2 -20 5 -7 2 -9 -7 -6 -12 5 -14 -2 -11
-29 3 -21 0 -38 -8 -43 -8 -5 -5 -9 9 -13 12 -3 19 -1 15 4 -3 5 -2 9 3 10 4
0 18 2 31 3 12 2 21 -1 20 -6 -2 -5 -7 -9 -12 -8 -12 2 -26 -22 -19 -33 7 -12
43 28 43 48 0 9 7 29 15 44 13 27 13 29 -4 24 -10 -3 -24 -16 -30 -29 -6 -13
-18 -24 -26 -24 -12 0 -14 4 -5 19 5 11 7 26 4 34 -6 16 13 33 24 22 3 -3 0
-10 -7 -14 -7 -5 -9 -11 -5 -14 5 -3 14 1 21 8 10 10 10 15 0 23 -15 11 -46
12 -53 0z"/>
<path d="M7100 7500 c0 -5 5 -10 11 -10 5 0 7 5 4 10 -3 6 -8 10 -11 10 -2 0
-4 -4 -4 -10z"/>
<path d="M7670 7499 c0 -5 5 -7 10 -4 6 3 10 8 10 11 0 2 -4 4 -10 4 -5 0 -10
-5 -10 -11z"/>
<path d="M7575 7490 c-3 -5 -1 -10 4 -10 6 0 11 5 11 10 0 6 -2 10 -4 10 -3 0
-8 -4 -11 -10z"/>
<path d="M7250 7470 c0 -5 7 -7 15 -4 8 4 15 8 15 10 0 2 -7 4 -15 4 -8 0 -15
-4 -15 -10z"/>
<path d="M7203 7455 c0 -6 6 -12 12 -12 6 0 12 6 12 12 0 6 -6 12 -12 12 -6 0
-12 -6 -12 -12z"/>
<path d="M7498 7463 c7 -3 16 -2 19 1 4 3 -2 6 -13 5 -11 0 -14 -3 -6 -6z"/>
<path d="M8010 7455 c-7 -9 -8 -15 -2 -15 5 0 12 7 16 15 3 8 4 15 2 15 -2 0
-9 -7 -16 -15z"/>
<path d="M7372 7434 c-12 -8 -22 -21 -22 -27 0 -7 5 -4 11 6 8 14 18 17 37 13
15 -4 23 -3 17 1 -5 5 -13 11 -16 15 -3 4 -15 1 -27 -8z"/>
<path d="M7795 7441 c-3 -5 0 -13 6 -17 8 -4 9 -3 5 4 -11 19 5 14 21 -5 13
-16 13 -16 3 5 -11 23 -25 28 -35 13z"/>
<path d="M7300 7420 c8 -5 20 -10 25 -10 6 0 3 5 -5 10 -8 5 -19 10 -25 10 -5
0 -3 -5 5 -10z"/>
<path d="M8166 7414 c-5 -14 -4 -15 9 -4 17 14 19 20 6 20 -5 0 -12 -7 -15
-16z"/>
<path d="M7865 7410 c-3 -5 -1 -10 4 -10 6 0 11 5 11 10 0 6 -2 10 -4 10 -3 0
-8 -4 -11 -10z"/>
<path d="M7384 7398 c12 -7 21 -7 28 0 6 6 0 10 -18 10 -23 0 -24 -2 -10 -10z"/>
<path d="M7493 7383 c4 -3 5 -9 1 -14 -7 -12 7 -11 26 1 9 6 10 10 3 10 -6 0
-17 2 -25 3 -7 2 -10 2 -5 0z"/>
<path d="M8100 7340 c-6 -11 -8 -20 -6 -20 3 0 10 9 16 20 6 11 8 20 6 20 -3
0 -10 -9 -16 -20z"/>
<path d="M7684 7300 c0 -13 4 -16 10 -10 7 7 7 13 0 20 -6 6 -10 3 -10 -10z"/>
<path d="M7255 7290 c-22 -5 -26 -9 -14 -14 8 -4 28 -2 43 4 32 12 49 13 42 2
-6 -11 80 -9 91 2 4 5 -2 5 -16 1 -15 -4 -21 -3 -17 3 7 12 -82 13 -129 2z"/>
<path d="M8379 7273 c-13 -16 -12 -17 4 -4 16 13 21 21 13 21 -2 0 -10 -8 -17
-17z"/>
<path d="M7191 7271 c-8 -5 -10 -14 -5 -22 6 -11 5 -12 -8 -2 -12 11 -21 10
-47 -3 -17 -8 -31 -18 -31 -20 0 -3 4 -3 8 0 4 2 8 -10 9 -27 0 -19 -1 -23 -4
-10 -2 12 -10 24 -18 27 -19 7 -112 -78 -135 -125 -21 -40 -27 -65 -10 -39 6
9 10 10 10 3 0 -7 -7 -16 -15 -20 -8 -5 -38 -65 -66 -133 -124 -302 -150 -364
-218 -519 -323 -738 -648 -1351 -957 -1808 l-103 -153 42 21 c71 36 159 90
222 138 80 60 217 193 269 261 43 55 144 243 223 416 125 271 295 365 500 274
25 -11 49 -17 54 -14 5 3 8 1 7 -4 -2 -5 14 -26 35 -46 80 -79 116 -203 83
-289 -29 -76 -137 -164 -228 -187 -124 -31 -258 71 -258 197 0 60 15 96 57
134 66 62 128 74 184 36 64 -43 78 -113 33 -166 -35 -42 -84 -43 -125 -2 -26
27 -29 35 -23 70 7 45 -3 52 -29 23 -41 -45 -29 -132 24 -177 59 -49 188 -24
242 46 36 49 41 88 21 160 -33 117 -141 191 -244 168 -113 -26 -207 -108 -236
-206 -32 -108 8 -237 96 -317 71 -64 115 -81 210 -81 116 0 219 43 301 124 78
78 102 145 97 263 -4 75 -9 96 -40 160 -57 114 -151 201 -269 249 -66 27 -191
29 -256 5 -24 -8 -43 -13 -43 -11 0 3 28 60 63 127 90 179 162 331 160 345 0
7 3 11 7 10 4 -1 25 21 46 49 113 147 236 200 391 168 41 -8 97 -29 126 -46
44 -26 54 -28 72 -17 18 11 19 11 6 -5 -12 -14 -11 -20 9 -41 12 -13 28 -23
34 -22 6 1 10 -6 8 -15 -2 -10 2 -18 8 -18 5 0 9 -6 7 -12 -1 -7 4 -12 11 -10
8 1 11 -1 8 -6 -6 -11 15 -82 24 -82 4 0 7 -37 6 -82 -1 -71 -5 -90 -28 -128
-14 -25 -38 -56 -52 -69 -14 -13 -23 -28 -19 -34 3 -6 1 -7 -5 -3 -6 3 -42
-14 -81 -38 -69 -45 -69 -45 -154 -43 -78 2 -88 4 -136 37 -100 67 -137 159
-107 263 16 54 60 106 118 138 25 14 149 29 142 17 -2 -3 5 -9 16 -13 11 -4
31 -23 45 -43 35 -51 35 -119 -1 -161 -14 -17 -32 -31 -40 -31 -8 0 -14 -4
-14 -9 0 -11 -59 4 -74 19 -14 14 -29 13 -20 -2 5 -7 3 -8 -5 -4 -7 5 -10 10
-7 13 3 3 -1 18 -10 34 -9 19 -12 42 -8 69 8 46 -2 51 -35 16 -31 -32 -37 -87
-17 -140 25 -65 54 -87 124 -93 71 -7 122 8 176 50 74 59 90 137 50 249 -18
52 -73 121 -90 114 -8 -3 -13 0 -11 7 3 18 -83 56 -130 57 -42 0 -136 -30
-183 -58 -131 -80 -189 -235 -145 -388 58 -203 267 -325 461 -269 271 78 401
253 370 499 -3 27 -10 54 -16 61 -5 6 -7 15 -3 18 3 4 2 7 -3 7 -5 0 -10 9
-11 20 -2 25 -52 110 -65 110 -5 0 -7 4 -4 9 6 9 -83 115 -91 108 -2 -3 -17 8
-34 24 -44 41 -155 93 -199 94 -21 0 -36 3 -33 8 8 13 -121 7 -180 -8 -32 -8
-80 -26 -107 -40 l-51 -26 7 28 c12 51 147 432 165 465 9 16 8 23 -2 29 -11 7
-11 9 3 9 9 0 27 19 41 43 14 23 35 51 47 62 12 11 26 30 31 43 5 13 13 20 19
17 5 -3 17 -2 25 2 12 7 8 15 -20 45 -38 39 -37 43 9 46 24 2 27 0 16 -13 -15
-18 1 -20 19 -2 9 7 11 7 8 1 -4 -7 0 -15 9 -18 8 -3 12 -10 9 -16 -8 -13 -42
-13 -48 0 -3 6 -4 5 -3 -2 3 -16 31 -22 54 -13 9 4 40 7 68 6 37 -2 56 2 68
15 10 9 31 17 48 16 39 -1 30 8 -13 12 -19 2 -49 7 -68 11 -26 6 -32 5 -27 -4
5 -7 13 -10 20 -8 6 2 20 1 31 -4 19 -7 19 -8 -3 -8 -16 -1 -21 -5 -16 -13 4
-7 -2 -5 -13 5 -11 9 -29 17 -41 17 -12 0 -30 4 -40 9 -9 6 -29 12 -44 16 -16
3 -28 9 -28 14 0 5 16 4 35 -2 22 -6 39 -7 45 -1 5 5 -1 9 -18 10 -15 0 -34 3
-42 7 -8 4 -21 3 -29 -2z m79 -51 c0 -5 10 -10 23 -10 12 0 29 -5 37 -10 20
-13 4 -12 -42 1 -34 9 -53 29 -28 29 6 0 10 -4 10 -10z m-181 -22 c-1 -1 3
-13 9 -25 10 -17 9 -21 -3 -19 -23 3 -29 14 -17 29 7 8 10 17 7 20 -3 4 -2 5
1 3 3 -2 5 -6 3 -8z m63 -47 c-8 -4 -13 -11 -12 -15 0 -3 -4 -14 -9 -24 -8
-14 -10 -13 -8 8 1 25 13 40 32 40 6 0 4 -4 -3 -9z m-117 -35 c0 -19 -2 -32
-4 -30 -2 2 -11 -2 -19 -9 -12 -9 -12 -6 1 14 10 14 14 28 11 32 -5 5 2 27 9
27 1 0 2 -15 2 -34z m-45 -31 c0 -8 -4 -15 -10 -15 -5 0 -7 7 -4 15 4 8 8 15
10 15 2 0 4 -7 4 -15z m93 -42 c-7 -2 -13 -10 -13 -18 0 -7 -7 -18 -15 -25
-12 -10 -12 -7 1 19 9 17 21 31 27 30 8 0 8 -2 0 -6z m-140 -48 c-3 -9 -8 -14
-10 -11 -3 3 -2 9 2 15 9 16 15 13 8 -4z m-9 -71 c3 -8 2 -12 -4 -9 -6 3 -10
10 -10 16 0 14 7 11 14 -7z m64 -29 c-3 -3 -9 2 -12 12 -6 14 -5 15 5 6 7 -7
10 -15 7 -18z m-8 -30 c0 -5 -5 -3 -10 5 -5 8 -10 20 -10 25 0 6 5 3 10 -5 5
-8 10 -19 10 -25z m-70 -191 c0 -8 -19 -13 -24 -6 -3 5 1 9 9 9 8 0 15 -2 15
-3z m425 -214 c3 -6 -1 -7 -9 -4 -18 7 -21 14 -7 14 6 0 13 -4 16 -10z m-140
-60 c-3 -5 -14 -10 -23 -9 -14 0 -13 2 3 9 27 11 27 11 20 0z m300 -48 c-3 -3
-11 0 -18 7 -9 10 -8 11 6 5 10 -3 15 -9 12 -12z m-121 -17 c-4 -8 -11 -15
-16 -15 -6 0 -5 6 2 15 7 8 14 15 16 15 2 0 1 -7 -2 -15z m30 -16 c-3 -5 -10
-7 -15 -3 -5 3 -7 10 -3 15 3 5 10 7 15 3 5 -3 7 -10 3 -15z m170 -75 c3 -8 2
-12 -4 -9 -6 3 -10 10 -10 16 0 14 7 11 14 -7z m-36 -49 c-3 -3 -9 2 -12 12
-6 14 -5 15 5 6 7 -7 10 -15 7 -18z m62 21 c0 -2 -8 -10 -17 -17 -16 -13 -17
-12 -4 4 13 16 21 21 21 13z m-263 -82 c-3 -3 -12 -4 -19 -1 -8 3 -5 6 6 6 11
1 17 -2 13 -5z m210 -146 c-3 -8 -6 -5 -6 6 -1 11 2 17 5 13 3 -3 4 -12 1 -19z
m-126 -235 c13 -16 12 -17 -3 -4 -10 7 -18 15 -18 17 0 8 8 3 21 -13z m133 -5
c-3 -4 -11 -5 -19 -1 -21 7 -19 12 4 10 11 0 18 -5 15 -9z"/>
<path d="M7446 7265 c-6 -17 9 -29 24 -20 14 9 12 22 -4 28 -8 3 -17 -1 -20
-8z"/>
<path d="M7310 7252 c0 -5 14 -7 30 -4 17 2 30 6 30 8 0 2 -13 4 -30 4 -16 0
-30 -4 -30 -8z"/>
<path d="M7519 7223 c-13 -16 -12 -17 4 -4 16 13 21 21 13 21 -2 0 -10 -8 -17
-17z"/>
<path d="M7781 7224 c0 -11 3 -14 6 -6 3 7 2 16 -1 19 -3 4 -6 -2 -5 -13z"/>
<path d="M7541 7216 c-16 -19 14 -45 32 -27 9 10 8 11 -8 5 -17 -7 -18 -6 -7
8 8 9 9 19 4 22 -6 3 -15 0 -21 -8z"/>
<path d="M7942 7210 c0 -14 2 -19 5 -12 2 6 2 18 0 25 -3 6 -5 1 -5 -13z"/>
<path d="M7415 7183 c-17 -13 -17 -15 -2 -9 10 3 29 -2 43 -10 13 -9 27 -14
31 -10 3 3 0 6 -8 6 -12 0 -12 2 0 9 9 6 10 11 2 15 -6 4 -11 3 -11 -3 0 -6
-7 -8 -16 -4 -13 5 -13 7 -2 14 10 7 10 9 -2 9 -8 -1 -24 -8 -35 -17z"/>
<path d="M7590 7193 c0 -5 9 -17 21 -26 17 -15 18 -21 8 -33 -10 -12 -8 -19
10 -38 11 -12 18 -26 14 -31 -5 -4 -3 -5 4 -2 6 4 14 1 17 -5 3 -7 5 -4 3 7
-1 11 2 25 6 31 6 10 -20 43 -30 37 -1 -2 -6 -3 -10 -3 -5 0 -3 4 3 8 8 5 2
16 -17 35 -16 16 -29 24 -29 20z m75 -86 c4 5 5 2 1 -4 -11 -19 -24 -16 -37
10 -12 21 -11 21 8 4 11 -9 23 -14 28 -10z"/>
<path d="M7519 7176 c6 -7 8 -15 5 -19 -3 -3 5 -3 18 0 20 6 21 5 9 -10 -10
-13 -18 -14 -35 -6 -20 10 -20 9 -2 -5 10 -9 22 -13 27 -11 4 3 11 -4 14 -16
4 -13 12 -18 22 -15 10 4 13 2 10 -7 -3 -7 5 -29 17 -49 l22 -36 1 41 c0 34
-1 37 -7 17 -5 -14 -9 -20 -10 -15 -1 6 -4 19 -7 30 -2 11 -5 28 -6 37 -1 9
-4 15 -8 12 -13 -7 -18 23 -6 36 9 10 9 11 -1 6 -7 -4 -26 0 -43 8 -22 11 -28
12 -20 2z m55 -52 c10 -25 -1 -29 -14 -5 -6 12 -7 21 -1 21 5 0 12 -7 15 -16z"/>
<path d="M7790 7166 c0 -8 4 -17 9 -20 5 -4 7 3 4 14 -6 23 -13 26 -13 6z"/>
<path d="M7288 7099 c-16 -6 -28 -17 -28 -24 0 -8 -5 -17 -12 -21 -7 -5 -9 -2
-5 9 4 11 2 14 -9 10 -7 -3 -14 -9 -14 -14 0 -5 -6 -9 -13 -9 -20 0 -61 -47
-48 -55 6 -3 11 -16 11 -27 0 -12 -3 -18 -7 -15 -3 4 -12 2 -20 -4 -18 -16
-16 -4 3 16 9 9 13 19 10 23 -13 12 -44 -41 -54 -93 -11 -52 -7 -70 8 -45 6 9
10 10 10 3 0 -6 -5 -15 -11 -19 -17 -10 -2 -82 26 -131 27 -45 103 -115 116
-107 5 3 9 1 9 -4 0 -13 48 -32 65 -26 8 4 15 2 15 -4 0 -5 24 -9 53 -8 41 1
51 4 49 16 -3 12 -1 13 9 3 14 -14 33 -18 26 -5 -3 4 6 8 20 8 31 2 41 13 23
24 -12 7 -12 12 -2 22 6 6 12 9 12 4 0 -4 7 0 16 8 8 9 20 16 26 16 6 0 -1 -9
-16 -21 -14 -11 -23 -25 -20 -31 4 -7 14 -1 26 13 11 13 17 18 13 11 -6 -11
-3 -12 14 -3 11 7 21 16 21 21 0 6 6 10 14 10 16 0 66 58 66 78 0 7 4 11 9 8
5 -3 16 13 24 37 19 50 32 171 17 162 -6 -3 -7 -17 -4 -30 3 -13 3 -29 -1 -34
-8 -14 -45 9 -45 29 0 13 1 13 10 0 8 -13 10 -12 10 4 0 12 -5 16 -15 13 -8
-4 -17 -2 -20 3 -4 6 -1 10 5 10 6 0 8 5 4 11 -4 8 -10 6 -17 -7 -7 -13 -7
-19 1 -22 7 -2 10 -8 7 -12 -3 -5 6 -17 20 -26 19 -12 24 -22 19 -37 -4 -12
-2 -17 5 -13 6 4 4 -8 -4 -27 -8 -19 -12 -37 -10 -39 3 -3 -2 -5 -9 -5 -11 0
-12 5 -5 18 13 26 11 33 -6 15 -8 -8 -15 -19 -15 -24 0 -11 -24 -22 -46 -22
-8 0 -14 4 -14 10 0 5 8 7 18 3 14 -5 13 -3 -3 11 -19 16 -19 16 8 6 31 -11
34 -6 10 20 -17 18 -20 16 -65 -37 -27 -30 -48 -51 -48 -46 0 4 -7 -1 -15 -11
-8 -11 -15 -16 -15 -12 0 4 -12 -1 -27 -12 -16 -10 -34 -17 -41 -15 -7 3 -19
-1 -28 -8 -11 -9 -18 -9 -26 -1 -7 7 -20 12 -30 12 -11 0 -33 7 -50 16 -16 9
-27 11 -24 5 7 -11 -32 -6 -43 5 -3 4 2 4 12 1 19 -7 24 8 4 16 -17 6 -61 97
-59 122 0 11 4 36 7 55 4 19 3 32 -1 28 -9 -9 -34 10 -34 26 0 6 4 5 9 -3 15
-23 38 -21 52 5 7 13 16 24 20 24 5 0 5 7 2 17 -4 11 -3 14 6 9 6 -4 23 -1 36
8 25 17 115 28 115 14 0 -5 11 -13 25 -20 13 -6 22 -14 20 -19 -3 -4 -1 -10 5
-14 5 -3 10 -19 10 -36 0 -16 5 -29 12 -29 6 0 3 -9 -7 -20 -15 -16 -15 -22
-5 -35 14 -17 35 -21 25 -5 -3 5 0 7 9 4 12 -5 13 -9 3 -25 -6 -10 -16 -19
-21 -19 -5 0 -6 3 -3 7 4 3 0 14 -9 24 -15 17 -17 16 -49 -2 -31 -19 -36 -19
-58 -5 -13 9 -27 13 -30 9 -4 -3 -7 -1 -7 6 0 13 -24 42 -31 38 -3 -1 -1 2 3
8 12 15 9 27 -4 18 -7 -4 -5 5 5 21 18 27 18 27 -1 17 -57 -31 -33 -156 36
-182 41 -16 108 -5 152 26 22 16 38 30 35 33 -2 3 3 11 13 19 16 14 16 14 0 9
-21 -6 -30 5 -17 24 7 13 9 13 9 1 0 -11 4 -9 15 5 17 22 20 60 5 69 -7 4 -9
-5 -5 -27 4 -23 2 -29 -4 -18 -5 8 -7 18 -5 22 3 4 1 8 -4 8 -5 0 -14 11 -20
25 -15 32 -15 32 2 38 10 4 12 0 9 -14 -4 -13 0 -19 11 -19 21 0 20 12 -4 43
-11 14 -20 29 -20 35 0 5 -9 17 -20 27 -18 17 -20 17 -14 2 3 -9 11 -17 17
-17 6 0 7 -3 4 -7 -4 -3 -2 -12 4 -20 8 -9 8 -13 1 -13 -6 0 -16 8 -21 18 -6
9 -11 12 -11 7 0 -6 5 -16 12 -23 6 -6 9 -15 5 -19 -4 -3 -13 2 -21 12 -7 10
-18 15 -23 12 -6 -4 -13 0 -17 8 -3 8 0 15 7 16 20 1 -26 18 -51 18 -13 1 -20
-3 -17 -9 8 -13 -1 -13 -26 0 -13 7 -19 7 -19 0 0 -5 5 -10 12 -10 6 0 8 -3 5
-6 -4 -4 -13 -1 -22 6 -8 7 -24 10 -34 7 -17 -4 -18 -2 -8 14 6 10 15 19 20
19 4 0 5 -4 2 -10 -3 -5 -2 -10 4 -10 19 0 21 19 4 29 -24 14 -7 14 18 0 11
-5 17 -14 14 -20 -4 -5 0 -9 8 -9 8 0 17 9 20 20 4 17 2 20 -13 15 -10 -3 -21
-1 -25 5 -7 12 28 12 65 0 17 -5 19 -8 8 -9 -10 -1 -18 -5 -18 -11 0 -14 11
-12 33 4 10 8 14 17 8 20 -19 12 -97 15 -123 5z m-58 -74 c0 -8 8 -16 18 -16
16 -1 16 -2 0 -6 -10 -2 -19 -9 -19 -14 -1 -5 -3 -13 -4 -19 -1 -5 -3 -13 -4
-16 0 -3 -6 -2 -11 1 -8 5 -7 11 1 21 6 8 8 14 3 14 -5 0 -2 5 6 10 13 9 13
10 0 10 -9 0 -21 -5 -28 -12 -7 -7 -12 -9 -12 -5 0 4 0 10 0 15 0 4 5 8 10 8
6 1 15 2 21 3 5 0 7 6 4 11 -3 6 -1 10 4 10 6 0 11 -7 11 -15z m264 -91 c20
-30 23 -40 14 -60 -6 -13 -17 -24 -25 -24 -10 0 -10 6 4 26 16 25 16 27 -1 40
-10 7 -15 17 -11 23 3 6 1 11 -4 11 -6 0 -11 5 -11 10 0 18 9 11 34 -26z m-4
-34 c0 -5 -2 -10 -4 -10 -3 0 -8 5 -11 10 -3 6 -1 10 4 10 6 0 11 -4 11 -10z
m-333 -52 c-3 -8 -6 -5 -6 6 -1 11 2 17 5 13 3 -3 4 -12 1 -19z m148 -8 c3 -6
-1 -7 -9 -4 -10 4 -16 1 -16 -7 0 -7 -3 -10 -6 -6 -7 7 4 27 16 27 5 0 12 -4
15 -10z m14 -65 c16 -20 16 -20 -6 -1 -13 11 -23 26 -22 35 0 14 1 14 6 1 3
-8 13 -24 22 -35z m135 39 c15 -6 15 -8 -1 -19 -13 -10 -22 -10 -31 -3 -11 9
-11 13 0 19 16 10 13 10 32 3z m-124 -14 c0 -5 -2 -10 -4 -10 -3 0 -8 5 -11
10 -3 6 -1 10 4 10 6 0 11 -4 11 -10z m37 -13 c-2 -6 -9 -12 -15 -13 -7 -1 -8
0 -2 3 8 3 7 9 -1 19 -10 12 -9 13 5 8 9 -4 15 -11 13 -17z m76 -8 c6 6 15 11
20 11 5 0 2 -6 -5 -14 -17 -17 -77 -16 -71 1 4 9 10 10 25 2 14 -8 23 -8 31 0z
m157 -24 c-10 -12 -7 -15 14 -21 15 -3 35 -4 46 -1 24 6 26 -6 4 -27 -19 -19
-25 -20 -18 -3 3 9 -6 13 -32 12 -24 0 -39 -5 -42 -15 -3 -11 -2 -12 8 -4 17
17 50 6 43 -14 -4 -10 -2 -13 5 -8 7 4 12 5 12 2 0 -3 -9 -10 -21 -16 -15 -8
-24 -8 -34 0 -8 7 -20 8 -27 4 -10 -6 -9 -3 1 9 17 22 3 22 -21 0 -10 -9 -18
-13 -18 -10 0 3 10 15 22 27 12 11 18 20 13 20 -5 0 4 14 20 30 30 31 47 41
25 15z m-430 -5 c0 -5 -5 -10 -12 -10 -9 0 -9 -3 0 -12 7 -7 12 -16 12 -22 0
-5 -6 -1 -14 9 -8 11 -12 25 -9 32 6 15 23 17 23 3z m27 -97 c0 -9 -4 -10 -14
-2 -7 6 -13 12 -13 14 0 1 6 2 13 2 8 0 14 -6 14 -14z m29 2 c-1 -8 -5 -17 -8
-21 -5 -4 -4 16 1 34 3 9 9 -1 7 -13z m55 -12 c11 -15 11 -16 0 -6 -7 6 -21 9
-30 6 -14 -4 -14 -3 -1 6 8 6 16 11 16 11 1 0 8 -8 15 -17z m193 3 c-5 -14
-44 -30 -44 -17 0 3 10 11 23 17 12 7 23 12 24 13 1 0 0 -5 -3 -13z m-184 -31
c0 -2 -9 -3 -19 -2 -11 0 -18 5 -15 9 4 6 34 0 34 -7z m210 11 c0 -3 -4 -8
-10 -11 -5 -3 -10 -1 -10 4 0 6 5 11 10 11 6 0 10 -2 10 -4z m-43 -22 c-3 -3
-12 -4 -19 -1 -8 3 -5 6 6 6 11 1 17 -2 13 -5z m-82 -42 c-3 -3 -11 0 -18 7
-9 10 -8 11 6 5 10 -3 15 -9 12 -12z"/>
<path d="M7569 6723 c-13 -16 -12 -17 4 -4 9 7 17 15 17 17 0 8 -8 3 -21 -13z"/>
<path d="M7585 6690 c-7 -12 2 -30 16 -30 12 0 12 27 0 35 -5 3 -12 1 -16 -5z"/>
<path d="M7801 7094 c0 -11 3 -14 6 -6 3 7 2 16 -1 19 -3 4 -6 -2 -5 -13z"/>
<path d="M7680 7076 c0 -25 12 -46 22 -40 6 4 8 -2 3 -17 -5 -20 -4 -21 5 -9
10 12 11 11 7 -7 -3 -13 -1 -23 5 -23 6 0 8 -10 5 -21 -4 -15 -3 -19 4 -12 14
14 -7 92 -27 100 -8 3 -13 12 -10 19 3 7 1 16 -4 19 -6 4 -10 0 -10 -9z"/>
<path d="M7435 7071 c3 -5 -5 -12 -17 -14 -20 -4 -19 -4 5 -6 19 -1 26 -5 21
-13 -4 -7 -3 -8 4 -4 9 5 9 13 2 27 -6 10 -13 19 -16 19 -3 0 -3 -4 1 -9z"/>
<path d="M7816 7021 c-3 -5 -5 -20 -5 -32 1 -13 -2 -32 -6 -41 -12 -30 3 -20
19 12 8 17 10 27 4 24 -7 -5 -9 2 -6 20 5 27 3 33 -6 17z"/>
<path d="M7636 6995 c-3 -9 -2 -24 3 -33 4 -9 6 -24 4 -32 -4 -13 -3 -13 6 -1
6 10 6 21 0 32 -5 11 -5 19 1 21 5 2 6 9 1 16 -7 11 -10 10 -15 -3z"/>
<path d="M8310 6986 c0 -2 8 -10 18 -17 15 -13 16 -12 3 4 -13 16 -21 21 -21
13z"/>
<path d="M8023 6973 c4 -3 1 -13 -6 -22 -11 -14 -10 -14 5 -2 16 12 16 31 1
31 -4 0 -3 -3 0 -7z"/>
<path d="M7972 6930 c0 -19 2 -27 5 -17 2 9 2 25 0 35 -3 9 -5 1 -5 -18z"/>
<path d="M8376 6937 c3 -10 9 -15 12 -12 3 3 0 11 -7 18 -10 9 -11 8 -5 -6z"/>
<path d="M8659 6893 c-13 -16 -12 -17 4 -4 16 13 21 21 13 21 -2 0 -10 -8 -17
-17z"/>
<path d="M7641 6864 c0 -11 3 -14 6 -6 3 7 2 16 -1 19 -3 4 -6 -2 -5 -13z"/>
<path d="M7661 6864 c0 -11 3 -14 6 -6 3 7 2 16 -1 19 -3 4 -6 -2 -5 -13z"/>
<path d="M7691 6841 c-1 -16 -5 -21 -15 -18 -11 4 -13 1 -9 -11 6 -15 5 -16
-12 -2 -17 14 -18 14 -6 -8 l12 -23 20 22 c11 13 19 17 19 9 0 -7 2 -11 5 -9
2 3 0 18 -4 35 -8 26 -9 26 -10 5z"/>
<path d="M8336 6848 c3 -5 10 -6 15 -3 13 9 11 12 -6 12 -8 0 -12 -4 -9 -9z"/>
<path d="M8505 6790 c-3 -6 1 -7 9 -4 18 7 21 14 7 14 -6 0 -13 -4 -16 -10z"/>
<path d="M8234 6774 c-18 -14 -18 -15 4 -4 12 6 22 13 22 15 0 8 -5 6 -26 -11z"/>
<path d="M8305 6781 c-3 -5 -2 -12 3 -15 5 -3 9 1 9 9 0 17 -3 19 -12 6z"/>
<path d="M8371 6758 c-14 -23 -14 -23 8 -4 22 20 25 26 13 26 -4 0 -13 -10
-21 -22z"/>
<path d="M8093 6708 c-13 -6 -23 -15 -23 -20 0 -5 -6 -6 -12 -2 -7 4 -10 4 -6
-1 4 -4 2 -15 -4 -24 -11 -14 28 14 42 30 3 3 14 11 25 17 25 14 7 14 -22 0z"/>
<path d="M8235 6710 c-8 -13 9 -20 24 -11 10 6 9 10 -3 14 -8 3 -18 2 -21 -3z"/>
<path d="M8010 6670 c-8 -5 -12 -11 -9 -14 3 -3 14 1 25 9 21 16 8 20 -16 5z"/>
<path d="M8107 6669 c7 -7 15 -10 18 -7 3 3 -2 9 -12 12 -14 6 -15 5 -6 -5z"/>
<path d="M8148 6673 c7 -3 16 -2 19 1 4 3 -2 6 -13 5 -11 0 -14 -3 -6 -6z"/>
<path d="M8654 6659 c-19 -22 -19 -22 4 -8 12 8 22 17 22 21 0 12 -6 9 -26
-13z"/>
<path d="M7718 6609 c-34 -18 -43 -29 -39 -51 0 -5 -4 -8 -9 -8 -6 0 -9 -21
-8 -47 2 -63 36 -102 95 -109 47 -5 79 7 105 39 15 20 15 22 0 35 -16 13 -16
13 1 8 19 -6 24 9 6 20 -13 8 -29 -14 -23 -30 6 -15 -75 -13 -103 3 -30 15
-38 14 -23 -4 7 -8 16 -13 20 -10 5 3 11 1 14 -4 5 -8 -10 -15 -39 -19 -5 -1
-9 7 -9 19 1 15 -3 18 -19 13 -20 -6 -20 -6 -4 10 16 17 14 42 -2 31 -14 -8
-7 28 12 63 20 36 24 39 24 17 0 -8 -5 -15 -10 -15 -5 0 -6 -7 -3 -16 3 -8 2
-12 -4 -9 -6 3 -10 2 -10 -4 0 -5 6 -12 13 -14 9 -4 8 -6 -2 -6 -11 -1 -11 -4
-1 -16 19 -23 25 -18 25 18 0 38 42 81 72 71 16 -5 16 -4 -2 11 -19 16 -19 16
10 10 23 -5 26 -4 15 4 -23 16 -61 12 -102 -10z m33 -20 c-21 -23 -21 -23 -21
-2 0 12 8 23 18 25 26 6 26 2 3 -23z m40 -153 c21 13 7 -5 -15 -20 -18 -11
-27 -13 -32 -4 -5 7 -3 8 5 4 8 -5 14 0 18 15 4 13 8 18 11 11 2 -7 8 -10 13
-6z m63 2 c-3 -5 -9 -6 -14 -3 -4 3 -10 -1 -13 -7 -2 -7 -8 -9 -13 -5 -5 4 -3
12 4 16 17 10 42 10 36 -1z m-47 -34 c-3 -3 -12 -4 -19 -1 -8 3 -5 6 6 6 11 1
17 -2 13 -5z"/>
<path d="M8495 6610 c-3 -5 -2 -10 4 -10 5 0 13 5 16 10 3 6 2 10 -4 10 -5 0
-13 -4 -16 -10z"/>
<path d="M7831 6601 c-11 -7 -9 -13 7 -29 11 -11 22 -18 25 -16 2 3 3 -7 2
-21 -2 -14 0 -23 5 -20 5 3 11 -1 13 -7 3 -7 6 -2 6 12 1 30 -13 55 -31 55 -7
0 -12 8 -10 18 3 19 2 20 -17 8z"/>
<path d="M8400 6596 c0 -2 7 -7 16 -10 8 -3 12 -2 9 4 -6 10 -25 14 -25 6z"/>
<path d="M8318 6563 c7 -3 16 -2 19 1 4 3 -2 6 -13 5 -11 0 -14 -3 -6 -6z"/>
<path d="M8250 6550 c0 -5 5 -10 11 -10 5 0 7 5 4 10 -3 6 -8 10 -11 10 -2 0
-4 -4 -4 -10z"/>
<path d="M8175 6530 c-3 -5 -1 -10 4 -10 6 0 11 5 11 10 0 6 -2 10 -4 10 -3 0
-8 -4 -11 -10z"/>
<path d="M8435 6530 c-3 -6 1 -7 9 -4 18 7 21 14 7 14 -6 0 -13 -4 -16 -10z"/>
<path d="M8124 6511 c-35 -21 -55 -44 -30 -35 9 3 16 10 16 14 0 4 11 6 25 5
14 -2 28 2 32 7 4 7 1 8 -7 3 -10 -6 -12 -4 -7 8 8 21 9 21 -29 -2z"/>
<path d="M8516 6501 c-4 -5 -2 -12 3 -15 5 -4 12 -2 15 3 4 5 2 12 -3 15 -5 4
-12 2 -15 -3z"/>
<path d="M8431 6484 c0 -11 3 -14 6 -6 3 7 2 16 -1 19 -3 4 -6 -2 -5 -13z"/>
<path d="M8605 6491 c-6 -11 13 -26 22 -17 4 3 1 6 -6 6 -7 0 -9 5 -6 10 3 6
4 10 1 10 -3 0 -7 -4 -11 -9z"/>
<path d="M8196 6464 c-3 -9 -13 -14 -21 -10 -8 3 -16 2 -19 -2 -10 -17 33 -9
50 9 9 10 12 19 7 19 -6 0 -14 -7 -17 -16z"/>
<path d="M8048 6453 c-22 -26 -50 -84 -44 -91 3 -3 6 0 6 7 0 7 4 10 9 6 14
-8 32 30 24 51 -4 12 -3 15 5 10 7 -4 15 0 18 9 9 23 -1 28 -18 8z m-17 -60
c-12 -20 -14 -14 -5 12 4 9 9 14 11 11 3 -2 0 -13 -6 -23z"/>
<path d="M8105 6460 c6 -10 4 -12 -11 -6 -15 6 -17 5 -6 -5 9 -9 15 -10 23 -2
8 8 7 13 -2 18 -8 6 -10 4 -4 -5z"/>
<path d="M8316 6457 c3 -10 9 -15 12 -12 3 3 0 11 -7 18 -10 9 -11 8 -5 -6z"/>
<path d="M7713 6445 c0 -8 4 -12 9 -9 5 3 6 10 3 15 -9 13 -12 11 -12 -6z"/>
<path d="M8260 6445 c0 -8 4 -15 10 -15 5 0 7 7 4 15 -4 8 -8 15 -10 15 -2 0
-4 -7 -4 -15z"/>
<path d="M8520 6456 c0 -2 8 -10 18 -17 15 -13 16 -12 3 4 -13 16 -21 21 -21
13z"/>
<path d="M8128 6445 c-4 -6 -3 -17 3 -25 15 -25 10 -30 -17 -20 -14 6 -23 6
-20 2 3 -5 -4 -16 -15 -25 -11 -10 -19 -12 -19 -5 0 6 -3 9 -6 5 -12 -12 7
-28 20 -18 7 6 16 7 20 3 4 -4 6 0 4 8 -2 9 5 16 17 16 11 1 26 2 34 3 9 1 10
5 3 14 -5 6 -12 21 -14 32 -2 11 -6 15 -10 10z"/>
<path d="M8296 6437 c3 -10 9 -15 12 -12 3 3 0 11 -7 18 -10 9 -11 8 -5 -6z"/>
<path d="M8426 6423 c-6 -14 -5 -15 5 -6 7 7 10 15 7 18 -3 3 -9 -2 -12 -12z"/>
<path d="M8160 6421 c0 -6 4 -13 10 -16 6 -3 7 1 4 9 -7 18 -14 21 -14 7z"/>
<path d="M8184 6399 c-1 -15 3 -26 7 -23 11 6 12 41 2 47 -5 3 -8 -8 -9 -24z"/>
<path d="M8272 6400 c2 -14 10 -30 18 -37 12 -10 13 -12 1 -13 -8 0 -12 -3 -8
-6 15 -15 26 8 15 34 -17 40 -29 50 -26 22z"/>
<path d="M7991 6334 c0 -11 3 -14 6 -6 3 7 2 16 -1 19 -3 4 -6 -2 -5 -13z"/>
<path d="M8201 6330 c0 -8 4 -22 9 -30 12 -18 12 -2 0 25 -6 13 -9 15 -9 5z"/>
<path d="M8282 6300 c0 -19 2 -27 5 -17 2 9 2 25 0 35 -3 9 -5 1 -5 -18z"/>
<path d="M8556 6318 c3 -4 11 -5 19 -1 21 7 19 12 -4 10 -11 0 -18 -5 -15 -9z"/>
<path d="M8517 6311 c-17 -6 -18 -8 -3 -21 13 -10 19 -11 29 -1 9 10 8 11 -8
5 -18 -7 -18 -6 -6 9 15 19 14 19 -12 8z"/>
<path d="M8070 6290 c0 -5 5 -10 10 -10 6 0 10 5 10 10 0 6 -4 10 -10 10 -5 0
-10 -4 -10 -10z"/>
<path d="M7980 6269 c0 -13 5 -31 10 -39 7 -11 8 -6 5 19 -5 40 -15 54 -15 20z"/>
<path d="M8161 6280 c0 -3 8 -32 18 -64 15 -49 20 -56 25 -38 11 32 26 27 26
-9 0 -24 -4 -30 -15 -25 -8 3 -15 2 -15 -3 0 -5 7 -14 15 -21 10 -8 15 -9 15
-2 0 6 6 10 13 8 6 -1 9 -1 5 1 -5 3 -8 22 -8 44 0 34 -3 39 -24 39 -18 0 -27
9 -39 38 -8 20 -15 35 -16 32z"/>
<path d="M8197 6263 c3 -7 13 -13 22 -12 10 0 11 2 3 6 -6 2 -10 8 -8 12 3 4
-1 8 -8 8 -8 0 -12 -6 -9 -14z"/>
<path d="M8360 6265 c-8 -10 -9 -15 -1 -15 6 0 11 5 11 11 0 8 5 8 15 -1 14
-12 11 -35 -4 -26 -4 3 -7 -5 -6 -17 2 -24 19 -21 20 3 0 8 5 14 10 13 6 0 17
6 25 15 13 14 12 15 -4 9 -12 -5 -25 -2 -36 8 -15 14 -18 14 -30 0z"/>
<path d="M8034 6254 c3 -9 6 -20 6 -25 0 -6 5 -7 10 -4 16 10 12 45 -6 45 -11
0 -14 -5 -10 -16z"/>
<path d="M8085 6228 c1 -24 -3 -46 -9 -50 -6 -4 -7 -10 -3 -14 8 -9 18 -1 21
18 1 7 5 18 9 25 8 13 -1 63 -12 63 -4 0 -6 -19 -6 -42z"/>
<path d="M8290 6244 c0 -5 5 -16 10 -24 8 -12 10 -12 10 -1 0 11 3 11 15 1 11
-9 19 -10 26 -3 7 7 4 15 -8 24 -16 13 -17 12 -4 -3 17 -22 8 -23 -24 -2 -14
9 -25 12 -25 8z"/>
<path d="M8560 6220 c-9 -6 -10 -10 -3 -10 6 0 15 5 18 10 8 12 4 12 -15 0z"/>
<path d="M7969 6118 c-3 -183 -15 -286 -48 -381 -19 -55 -17 -69 6 -46 6 6 21
12 34 13 46 6 139 29 139 36 0 3 16 6 36 7 52 2 75 30 29 37 -9 1 -20 9 -25
16 -5 7 -18 14 -29 15 -16 1 -18 -1 -10 -12 6 -7 16 -10 22 -6 6 3 7 1 3 -5
-3 -6 2 -15 11 -21 17 -10 16 -11 -2 -9 -37 2 -56 -2 -50 -12 3 -5 2 -10 -4
-10 -5 0 -9 8 -8 19 1 13 7 17 22 14 13 -3 16 -2 8 4 -18 13 -24 73 -8 67 7
-3 22 8 34 24 17 25 26 29 51 26 25 -4 30 -2 30 14 0 26 -23 45 -37 31 -8 -8
-13 -7 -18 3 -5 7 -5 10 0 6 4 -4 14 0 22 8 8 8 18 12 22 9 5 -2 18 6 30 19
19 20 28 22 79 18 31 -2 54 -1 50 3 -4 4 -32 8 -63 10 -31 1 -61 7 -68 14 -8
8 -8 11 2 11 7 0 10 4 6 9 -3 5 -1 12 5 16 5 3 10 -1 10 -10 0 -20 41 -36 57
-23 7 5 17 7 23 3 5 -3 10 -1 10 4 0 15 -37 14 -44 -1 -3 -7 -3 -2 0 11 4 17
2 22 -7 18 -8 -2 -13 -10 -11 -16 1 -7 -2 -10 -7 -7 -14 9 -6 41 10 41 8 0 25
10 38 22 23 21 23 22 2 16 -11 -3 -21 -12 -21 -19 0 -8 -4 -14 -9 -14 -5 0 -8
11 -7 25 2 13 -1 22 -6 19 -5 -3 -7 -12 -6 -21 2 -8 -7 -22 -19 -30 -21 -14
-23 -14 -23 1 0 9 -5 16 -11 16 -5 0 -7 -5 -4 -11 4 -5 -1 -20 -12 -32 -17
-21 -17 -21 0 -7 17 12 18 12 15 -6 -4 -26 -20 -35 -37 -21 -8 7 -16 11 -18 9
-8 -6 -37 17 -31 24 4 4 16 1 25 -7 16 -13 17 -12 4 4 -7 9 -10 17 -6 17 4 0
-3 8 -16 19 -20 16 -21 21 -10 35 10 12 10 16 1 16 -7 0 -10 6 -7 13 3 8 0 14
-7 14 -20 0 -33 -22 -25 -42 7 -18 8 -17 8 5 1 17 4 21 12 13 8 -8 8 -17 -1
-33 -10 -18 -9 -21 1 -15 9 6 11 3 6 -9 -4 -10 2 -34 12 -55 12 -23 16 -42 11
-51 -5 -8 -6 -18 -3 -24 3 -5 1 -6 -5 -2 -16 10 -26 -14 -12 -27 10 -9 11 -9
6 0 -5 8 -2 11 7 7 16 -6 17 -36 1 -33 -22 4 -33 12 -28 20 13 22 -12 6 -37
-23 l-28 -33 -1 43 c0 23 -4 42 -10 42 -5 0 -7 -8 -4 -17 5 -15 4 -16 -5 -3
-8 11 -7 18 6 28 24 17 34 15 40 -8 6 -21 18 -26 28 -11 3 5 -1 15 -8 23 -15
14 -15 15 -23 58 -4 16 -9 28 -13 25 -7 -4 -5 80 4 128 3 20 1 27 -8 24 -7 -2
-13 -22 -13 -45 -1 -23 -3 -43 -4 -44 -9 -10 -5 -70 4 -74 8 -3 11 -17 8 -35
-4 -26 -8 -30 -29 -26 -19 3 -23 1 -18 -11 3 -9 3 -13 -2 -9 -11 12 -13 78 -3
96 8 14 9 14 10 1 0 -12 3 -11 11 3 12 21 2 40 -17 33 -12 -5 -12 -2 -3 16 9
17 13 18 21 7 7 -10 8 -8 3 8 -3 12 -1 24 5 28 12 8 13 25 1 25 -5 0 -12 -11
-15 -25 -4 -14 -10 -25 -15 -25 -9 0 -8 30 1 45 6 10 -7 55 -17 55 -3 0 -6
-46 -6 -102z m203 -103 c18 0 19 -15 1 -15 -12 0 -24 7 -27 16 -4 10 -2 13 7
7 6 -4 15 -8 19 -8z m55 -9 c0 -8 -5 -14 -11 -13 -6 1 -10 -3 -9 -8 1 -6 -7
-12 -18 -12 -27 -2 -24 9 9 29 15 10 27 18 28 18 0 0 1 -6 1 -14z m-162 -16
c3 -5 1 -10 -4 -10 -6 0 -11 5 -11 10 0 6 2 10 4 10 3 0 8 -4 11 -10z m135
-76 c0 -8 -4 -12 -10 -9 -5 3 -10 10 -10 16 0 5 5 9 10 9 6 0 10 -7 10 -16z
m-30 -4 c0 -5 -2 -10 -4 -10 -3 0 -8 5 -11 10 -3 6 -1 10 4 10 6 0 11 -4 11
-10z m-148 -18 c-7 -2 -10 -8 -6 -13 3 -5 0 -9 -5 -9 -12 0 -15 23 -5 33 4 4
12 4 17 0 8 -5 7 -8 -1 -11z m108 -7 c0 -2 -7 -2 -15 1 -10 4 -13 0 -10 -15 5
-26 3 -26 -21 1 -10 12 -13 18 -6 14 7 -4 12 -1 12 9 0 13 4 14 20 5 11 -6 20
-13 20 -15z m-154 -32 c-8 -15 -15 -25 -16 -21 0 12 23 58 27 54 3 -2 -2 -17
-11 -33z m17 -23 c-3 -12 -8 -19 -11 -16 -5 6 5 36 12 36 2 0 2 -9 -1 -20z
m47 -6 c0 -8 -4 -12 -10 -9 -5 3 -10 13 -10 21 0 8 5 12 10 9 6 -3 10 -13 10
-21z m-46 -40 c3 -8 2 -12 -4 -9 -6 3 -10 10 -10 16 0 14 7 11 14 -7z m8 -57
c-2 -4 -12 1 -22 13 -22 26 -34 26 -27 0 3 -11 1 -18 -3 -15 -5 3 -11 -1 -14
-7 -3 -7 -3 -2 0 12 11 44 23 51 48 27 12 -12 20 -26 18 -30z m43 33 c-27 -12
-43 -12 -25 0 8 5 22 9 30 9 10 0 8 -3 -5 -9z"/>
<path d="M8575 6200 c-3 -6 1 -7 9 -4 18 7 21 14 7 14 -6 0 -13 -4 -16 -10z"/>
<path d="M8309 6183 c-13 -16 -12 -17 4 -4 9 7 17 15 17 17 0 8 -8 3 -21 -13z"/>
<path d="M8478 6193 c6 -2 9 -10 6 -15 -4 -7 -2 -8 5 -4 13 9 5 26 -12 25 -9
0 -8 -2 1 -6z"/>
<path d="M8430 6180 c-13 -8 -12 -10 3 -10 9 0 17 5 17 10 0 12 -1 12 -20 0z"/>
<path d="M8360 6160 c0 -5 5 -10 11 -10 5 0 7 5 4 10 -3 6 -8 10 -11 10 -2 0
-4 -4 -4 -10z"/>
<path d="M8346 6137 c4 -11 16 -14 47 -10 55 7 63 16 12 12 -22 -2 -46 0 -53
5 -8 4 -10 2 -6 -7z"/>
<path d="M8488 6143 c6 -2 18 -2 25 0 6 3 1 5 -13 5 -14 0 -19 -2 -12 -5z"/>
<path d="M7836 6088 c-13 -72 -16 -83 -31 -135 -9 -29 -13 -58 -10 -63 3 -6 2
-10 -3 -10 -8 0 -57 -124 -57 -145 0 -5 -2 -12 -5 -15 -19 -18 -79 -134 -74
-142 4 -6 2 -8 -3 -5 -11 7 -65 -56 -58 -67 3 -3 2 -4 -1 -1 -4 2 -22 -9 -41
-25 -52 -46 -110 -71 -192 -84 l-75 -12 54 -24 c70 -30 159 -33 213 -6 171 85
303 370 307 664 1 99 -11 136 -24 70z m-10 -177 c-1 -15 -14 -43 -30 -62 l-28
-34 27 38 c14 20 24 41 21 46 -5 8 2 41 9 41 1 0 2 -13 1 -29z m-23 -101 c-10
-11 -19 -20 -21 -20 -1 0 2 9 8 20 6 11 15 20 20 20 6 0 2 -9 -7 -20z m-19
-112 c-9 -14 -23 2 -17 18 4 12 8 13 14 3 4 -7 5 -17 3 -21z m-254 -282 c0 -2
-7 -7 -16 -10 -8 -3 -12 -2 -9 4 6 10 25 14 25 6z"/>
<path d="M8130 6110 c0 -5 5 -10 10 -10 6 0 10 5 10 10 0 6 -4 10 -10 10 -5 0
-10 -4 -10 -10z"/>
<path d="M8516 6085 c-3 -9 -10 -14 -15 -10 -5 3 -13 0 -17 -6 -4 -8 -3 -9 4
-5 7 4 12 3 12 -1 0 -5 10 -9 23 -10 12 0 16 1 10 4 -20 7 -15 23 5 17 10 -4
13 -2 7 3 -5 4 -13 12 -16 16 -4 4 -9 1 -13 -8z"/>
<path d="M8420 6060 c-9 -6 -10 -10 -3 -10 6 0 15 5 18 10 8 12 4 12 -15 0z"/>
<path d="M8365 6040 c-3 -5 -1 -10 4 -10 6 0 11 5 11 10 0 6 -2 10 -4 10 -3 0
-8 -4 -11 -10z"/>
<path d="M8391 6044 c-1 -17 22 -33 46 -31 20 1 25 19 9 34 -4 4 -6 2 -4 -6 2
-8 -5 -17 -16 -19 -13 -3 -16 0 -11 9 5 7 4 10 -3 5 -5 -3 -13 0 -15 6 -4 8
-6 9 -6 2z"/>
<path d="M7990 6021 c0 -9 5 -23 11 -31 9 -12 10 -12 5 4 -4 10 -2 24 4 31 7
8 5 12 -5 12 -8 0 -15 -7 -15 -16z"/>
<path d="M8548 6028 c10 -13 10 -17 0 -20 -8 -3 -6 -7 6 -11 9 -4 15 -3 12 2
-3 5 1 11 9 15 8 3 15 11 15 18 0 10 -3 9 -9 -1 -8 -13 -12 -13 -28 0 -16 13
-17 12 -5 -3z"/>
<path d="M8016 6005 c4 -8 8 -15 10 -15 2 0 4 7 4 15 0 8 -4 15 -10 15 -5 0
-7 -7 -4 -15z"/>
<path d="M8435 5958 c-20 -17 -51 -33 -68 -35 -18 -2 -37 -4 -44 -5 -7 -1 -10
-5 -7 -10 3 -4 13 -4 23 1 12 7 26 5 44 -4 25 -13 30 -12 53 8 14 12 26 29 27
37 2 8 6 21 10 28 13 20 -1 14 -38 -20z m14 -15 c-19 -25 -32 -33 -49 -32 -13
1 -13 1 0 6 8 3 23 14 33 24 23 24 34 25 16 2z"/>
<path d="M8536 5964 c-5 -14 -4 -15 9 -4 17 14 19 20 6 20 -5 0 -12 -7 -15
-16z"/>
<path d="M8500 5933 c12 -25 2 -30 -20 -10 -11 9 -11 8 0 -7 14 -18 13 -19 -2
-13 -10 3 -18 2 -18 -3 0 -16 26 -11 47 8 10 9 17 16 14 15 -2 -2 -10 5 -18
15 -13 15 -13 15 -3 -5z"/>
<path d="M8232 5918 c-17 -17 -15 -31 3 -24 8 3 15 1 15 -4 0 -6 7 -10 16 -10
21 0 7 -19 -24 -33 -27 -11 -36 -13 -79 -16 -38 -2 -26 -21 13 -21 20 0 33 -4
29 -10 -3 -5 -13 -7 -23 -4 -9 3 -7 -1 6 -8 12 -8 19 -17 16 -21 -4 -4 -2 -7
4 -7 6 0 13 4 17 10 3 5 12 7 19 4 8 -3 17 -1 20 5 4 6 13 8 20 5 15 -6 48 34
40 48 -3 4 -16 8 -30 8 -30 0 -32 16 -2 26 21 6 20 8 -13 23 -18 10 -33 23
-31 29 3 15 -1 15 -16 0z m66 -89 c28 -1 24 -3 -20 -13 -14 -3 -28 -12 -31
-19 -2 -6 -2 -1 0 11 2 15 0 21 -7 17 -5 -3 -10 -15 -10 -26 0 -10 -4 -19 -10
-19 -14 0 -6 40 11 51 8 5 20 7 27 4 8 -3 26 -5 40 -6z m12 -23 c0 -9 -30 -14
-35 -6 -4 6 3 10 14 10 12 0 21 -2 21 -4z"/>
<path d="M8260 5922 c0 -5 11 -14 25 -20 14 -6 25 -10 25 -8 0 2 -11 11 -25
20 -14 9 -25 13 -25 8z"/>
<path d="M8370 5889 c11 -8 8 -9 -13 -4 -24 5 -27 4 -15 -9 9 -10 18 -11 31
-4 18 9 14 28 -6 28 -7 0 -6 -4 3 -11z"/>
<path d="M8432 5864 c-12 -8 -22 -21 -21 -27 0 -9 2 -8 6 1 2 6 10 9 16 5 7
-3 9 -3 5 2 -4 4 0 14 10 21 24 19 11 17 -16 -2z"/>
<path d="M8310 5853 c8 -3 23 -15 35 -25 20 -19 20 -19 0 -12 -16 5 -17 4 -9
-5 9 -10 18 -9 40 3 18 10 21 15 9 11 -14 -3 -26 2 -35 15 -8 11 -24 20 -35
19 -14 0 -16 -2 -5 -6z"/>
<path d="M8158 5647 c-40 -19 -67 -47 -61 -65 4 -10 2 -13 -5 -8 -17 11 -15
-68 2 -103 17 -33 54 -51 104 -51 45 0 75 19 96 62 13 25 14 34 3 46 -10 13
-9 14 1 8 10 -6 11 0 7 26 -7 38 -27 62 -68 83 -35 17 -43 18 -79 2z m12 -27
c0 -5 -7 -6 -17 -3 -12 5 -14 3 -8 -7 5 -8 4 -11 -3 -6 -6 3 -13 2 -17 -4 -3
-5 -11 -10 -17 -10 -14 0 34 39 50 40 6 0 12 -4 12 -10z m55 0 c-3 -5 1 -10 9
-10 9 0 21 -9 28 -20 7 -11 20 -20 28 -20 10 0 11 -3 3 -8 -6 -4 -15 -21 -19
-37 -7 -27 -6 -29 9 -16 11 9 17 10 17 2 0 -6 -4 -12 -10 -12 -5 -1 -14 -2
-19 -3 -5 0 -13 -4 -17 -8 -15 -16 -64 -7 -90 15 -22 19 -25 28 -19 55 3 17
18 41 32 52 27 21 59 28 48 10z m50 -10 c3 -5 1 -10 -4 -10 -6 0 -11 5 -11 10
0 6 2 10 4 10 3 0 8 -4 11 -10z m-144 -33 c-6 -8 -7 -18 -3 -22 4 -5 1 -5 -5
-1 -8 4 -13 2 -13 -5 0 -7 -3 -9 -7 -6 -3 4 2 16 12 27 20 22 34 28 16 7z m-6
-56 c-8 -14 -25 -14 -25 0 0 5 5 7 10 4 6 -3 10 -1 10 6 0 7 3 10 6 6 3 -3 3
-10 -1 -16z m0 -50 c-6 -5 -25 10 -25 20 0 5 6 4 14 -3 8 -7 12 -15 11 -17z
m33 7 c-2 -6 6 -13 17 -15 16 -3 17 -2 5 6 -19 13 0 14 20 1 10 -6 11 -10 3
-10 -7 0 -13 -7 -13 -15 0 -8 -5 -15 -11 -15 -5 0 -7 5 -4 11 4 6 0 9 -11 7
-17 -3 -26 16 -17 35 6 11 13 8 11 -5z m122 -7 c0 -13 -15 -21 -47 -27 -23 -4
-25 -3 -13 11 8 9 20 13 33 9 13 -4 17 -2 13 5 -4 6 -2 11 3 11 6 0 11 -4 11
-9z"/>
<path d="M7914 5382 c4 -6 -2 -8 -13 -5 -23 6 -88 -14 -97 -29 -4 -5 4 -5 17
2 18 9 21 10 13 0 -6 -6 -24 -13 -38 -14 -53 -6 -123 -95 -202 -257 -30 -61
-51 -115 -48 -121 4 -6 3 -8 -3 -5 -6 4 -16 -7 -23 -24 -20 -48 -67 -107 -113
-140 -31 -23 -36 -29 -17 -24 56 17 90 35 129 71 45 40 115 150 105 165 -3 5
-1 8 5 7 6 -2 33 37 59 85 88 162 159 220 265 215 31 -1 54 -5 51 -9 -2 -4 11
-13 28 -20 92 -38 142 -178 90 -249 -12 -16 -22 -34 -22 -40 0 -5 -3 -9 -7 -8
-12 4 -73 -23 -73 -32 0 -4 -29 -8 -65 -7 -36 0 -63 3 -60 5 2 2 -9 15 -25 28
-53 45 -61 136 -14 175 11 9 12 15 2 26 -9 11 -7 18 7 31 18 16 18 16 5 -1
-19 -26 0 -43 30 -27 12 7 35 10 51 8 18 -3 26 0 23 6 -3 6 4 0 15 -14 25 -30
41 -82 29 -91 -5 -3 -8 -12 -6 -19 2 -9 -10 -15 -36 -17 -46 -5 -66 13 -66 60
0 25 -2 28 -15 17 -9 -7 -14 -19 -11 -26 3 -7 0 -14 -5 -16 -7 -2 -7 -13 0
-31 7 -17 15 -25 23 -21 7 4 8 3 4 -4 -15 -24 71 -43 103 -23 8 5 10 14 5 22
-6 11 -5 12 8 2 12 -11 18 -10 30 5 24 27 29 56 19 103 -17 76 -101 133 -140
97 -11 -10 -13 -10 -7 0 4 7 1 12 -8 12 -21 0 -66 -21 -66 -32 0 -4 -3 -7 -8
-5 -14 4 -59 -48 -71 -82 -17 -52 -13 -92 14 -148 34 -68 91 -106 165 -110 78
-5 172 36 217 95 34 45 42 68 21 57 -7 -4 -5 0 5 8 37 30 12 178 -37 221 -11
10 -20 20 -19 22 2 2 -7 15 -19 29 -20 23 -23 24 -40 9 -9 -9 -15 -21 -12 -26
4 -6 -3 -5 -15 1 -11 7 -21 17 -21 24 0 7 4 6 10 -3 8 -13 12 -13 27 3 17 18
17 19 -1 32 -20 16 -41 10 -30 -7 4 -7 2 -8 -4 -4 -6 4 -9 13 -5 21 3 8 1 15
-3 16 -5 0 -18 3 -29 6 -50 13 -87 15 -81 5z m193 -78 c-3 -4 0 -13 8 -21 8
-8 15 -20 15 -26 0 -6 -7 -1 -16 11 -9 13 -20 19 -27 15 -7 -4 -6 0 2 10 7 9
16 17 19 17 3 0 3 -3 -1 -6z m-132 -74 c-3 -5 -1 -10 6 -10 7 0 10 -3 6 -6 -9
-9 -28 6 -22 17 4 5 8 9 11 9 3 0 2 -4 -1 -10z m155 0 c0 -5 -2 -10 -4 -10 -3
0 -8 5 -11 10 -3 6 -1 10 4 10 6 0 11 -4 11 -10z m26 -58 c-17 -16 -18 -16 -5
5 7 12 15 20 18 17 3 -2 -3 -12 -13 -22z m-106 -12 c-8 -5 -19 -10 -25 -10 -5
0 -3 5 5 10 8 5 20 10 25 10 6 0 3 -5 -5 -10z m10 -14 c0 -2 -8 -10 -17 -17
-16 -13 -17 -12 -4 4 13 16 21 21 21 13z m4 -42 c3 -8 2 -12 -4 -9 -6 3 -10
10 -10 16 0 14 7 11 14 -7z m126 -34 c0 -5 -2 -10 -4 -10 -3 0 -8 5 -11 10 -3
6 -1 10 4 10 6 0 11 -4 11 -10z m-43 -59 c0 -11 -7 -17 -14 -14 -9 4 -9 8 0
19 16 17 16 17 14 -5z m-319 -23 c-2 -7 4 -12 13 -12 9 1 16 -5 16 -12 0 -7
-5 -10 -11 -7 -25 14 -35 26 -30 34 8 13 14 11 12 -3z m322 -32 c0 -6 -4 -5
-9 3 -5 7 -14 11 -20 7 -7 -5 -9 -1 -5 9 5 12 9 13 20 4 8 -6 14 -17 14 -23z
m-74 -5 c0 -16 -3 -17 -14 -9 -12 10 -7 19 13 28 1 0 1 -9 1 -19z"/>
<path d="M7310 5197 c-42 -205 -244 -404 -480 -473 l-75 -22 3 -33 c3 -35 26
-79 41 -79 5 0 14 13 21 29 6 16 20 37 29 46 17 14 20 13 47 -14 46 -47 56
-44 74 24 15 59 16 60 48 58 19 0 42 -9 52 -18 10 -9 29 -15 42 -13 21 3 23 9
28 68 l5 65 72 -3 c39 -2 74 1 77 6 3 5 -2 32 -11 60 -21 65 -10 82 52 82 82
0 95 19 45 63 -39 35 -38 62 3 87 17 11 36 21 41 23 15 5 -18 46 -58 73 -19
13 -37 24 -40 24 -2 0 -10 -24 -16 -53z"/>
<path d="M6299 4912 c-77 -68 -29 -212 71 -212 74 0 126 61 117 139 -7 63 -49
101 -112 101 -35 0 -52 -6 -76 -28z m141 -32 c24 -24 26 -57 4 -88 -21 -30
-68 -29 -99 2 -22 22 -23 29 -14 53 5 15 15 33 21 40 16 20 65 16 88 -7z"/>
<path d="M7656 4789 c-34 -27 -37 -88 -4 -119 51 -47 128 -8 128 66 0 37 -37
74 -75 74 -12 0 -34 -9 -49 -21z m100 -35 c12 -48 -18 -75 -62 -56 -26 12 -31
41 -13 70 17 27 67 17 75 -14z"/>
<path d="M6487 4622 c-38 -40 -37 -93 2 -133 20 -20 39 -29 61 -29 77 0 121
110 65 165 -35 36 -92 34 -128 -3z m118 -22 c37 -40 -7 -100 -59 -80 -53 20
-37 100 19 100 12 0 30 -9 40 -20z"/>
<path d="M7195 4605 c-34 -33 -35 -102 -2 -132 31 -29 64 -37 98 -22 32 13 59
54 59 89 0 29 -26 76 -45 84 -37 14 -86 6 -110 -19z m121 -30 c15 -23 15 -27
0 -50 -28 -42 -96 -29 -96 18 0 58 65 80 96 32z"/>
<path d="M6025 4565 c-53 -52 -18 -135 57 -135 60 0 93 61 64 118 -25 49 -81
57 -121 17z m99 -21 c20 -19 20 -24 0 -52 -19 -27 -45 -28 -69 -2 -17 18 -17
21 -1 45 19 28 47 32 70 9z"/>
<path d="M6390 3830 c-13 -9 -13 -10 0 -10 13 0 13 -1 0 -10 -19 -12 -13 -12
30 0 40 12 71 5 64 -15 -3 -7 0 -16 7 -21 9 -5 10 -2 6 9 -3 10 -2 17 3 17 5
0 7 7 3 16 -5 13 -16 15 -49 11 -24 -2 -44 -1 -46 4 -2 5 -10 4 -18 -1z"/>
<path d="M6278 3818 c-21 -6 -38 -14 -38 -20 0 -5 -4 -6 -10 -3 -5 3 -10 2
-10 -4 0 -5 5 -13 11 -17 8 -5 6 -10 -6 -16 -11 -7 -21 -6 -28 2 -9 8 -8 10 6
5 18 -8 24 9 7 20 -16 10 -89 -53 -113 -99 l-22 -41 0 -735 0 -735 28 -48 c16
-26 39 -53 53 -59 13 -6 24 -14 24 -18 0 -4 23 -17 50 -29 40 -17 54 -19 71
-10 12 6 19 7 15 1 -3 -5 1 -13 10 -16 24 -9 44 -7 44 5 0 6 -7 9 -15 5 -8 -3
-15 -1 -15 4 0 8 10 11 45 10 3 0 22 7 43 15 34 14 35 14 17 -1 -20 -16 -19
-16 5 -10 23 7 24 6 7 -8 -11 -8 -25 -12 -32 -10 -7 3 -16 1 -20 -5 -4 -7 7
-11 29 -11 25 0 36 4 36 15 0 8 5 15 11 15 5 0 7 -5 4 -10 -9 -14 48 -13 63 2
7 7 12 8 12 4 0 -9 85 38 112 61 9 8 14 22 11 30 -5 13 -7 13 -15 -1 -5 -9
-14 -16 -19 -16 -6 0 -8 3 -6 8 3 4 -12 7 -33 7 -21 0 -36 -3 -33 -7 2 -5 17
-8 33 -8 44 0 45 -17 3 -36 -21 -10 -41 -23 -45 -28 -5 -7 -8 -6 -8 3 0 11 -3
10 -13 -3 -16 -22 -48 -15 -77 17 -11 11 -20 17 -20 13 0 -5 -11 -1 -24 8 -17
11 -26 12 -28 4 -6 -17 -38 -18 -38 -2 0 20 27 29 54 16 19 -8 22 -7 23 11 2
25 25 40 35 24 6 -9 8 -9 8 1 0 7 -12 24 -26 37 -26 24 -25 51 2 41 8 -3 11 0
7 10 -3 9 0 12 8 9 8 -2 22 6 31 19 15 20 15 23 1 23 -9 0 -29 -14 -44 -31
-16 -17 -29 -26 -29 -20 0 6 -14 11 -31 12 -17 0 -37 6 -44 12 -8 7 -19 9 -24
6 -7 -5 -10 219 -11 667 l0 673 22 12 c13 7 45 13 71 15 82 6 77 48 77 -686 0
-583 2 -646 16 -640 9 3 12 9 7 12 -9 7 -13 51 -4 51 3 0 5 26 3 57 -1 32 -3
289 -5 571 -2 412 0 509 11 495 6 -9 12 -12 12 -7 0 6 -6 19 -14 29 -10 14
-11 24 -3 36 8 13 6 23 -6 43 -21 32 -21 37 1 29 11 -4 10 0 -6 11 -12 10 -27
14 -32 11 -6 -3 -10 -1 -10 6 0 8 -5 7 -17 -2 -10 -9 -14 -9 -10 -2 9 14 -21
33 -41 26 -8 -3 -10 2 -6 14 5 15 4 15 -5 3 -14 -21 -19 -12 -25 51 -5 49 -3
55 14 56 11 1 20 -4 20 -10 0 -8 3 -8 8 -2 4 6 16 10 27 10 11 0 21 8 23 18 2
9 -2 17 -8 17 -7 0 -10 -7 -6 -15 7 -19 2 -19 -35 0 -16 9 -34 13 -40 9 -7 -4
-9 1 -4 15 5 17 2 21 -17 20 -13 -1 -40 -6 -60 -11z m48 -13 c-36 -19 -45 -19
-20 0 10 8 26 14 34 15 8 0 2 -7 -14 -15z m14 -45 c0 -5 -9 -10 -19 -10 -11 0
-23 5 -26 10 -4 6 5 10 19 10 14 0 26 -4 26 -10z m-120 -20 c12 6 17 5 17 -5
0 -7 -7 -11 -15 -7 -10 4 -13 1 -8 -7 6 -9 3 -9 -13 1 -12 7 -21 17 -21 22 0
6 5 5 12 -2 7 -7 17 -8 28 -2z m-71 -52 c-9 -34 -29 -61 -29 -41 0 7 5 15 11
19 6 3 9 15 6 25 -3 11 -1 19 5 19 5 0 6 5 2 12 -4 6 -3 8 4 4 7 -4 8 -17 1
-38z m216 -67 c-3 -6 -11 -11 -16 -11 -5 0 -4 6 3 14 14 16 24 13 13 -3z m-68
-933 c-2 -13 -4 -3 -4 22 0 25 2 35 4 23 2 -13 2 -33 0 -45z m48 -475 c-2 -10
-4 -19 -4 -21 -1 -2 -6 0 -11 3 -8 5 -7 11 1 21 15 18 18 18 14 -3z m82 -17
c5 -4 4 -6 -2 -5 -5 2 -20 -2 -32 -9 -17 -9 -22 -9 -26 3 -9 22 40 31 60 11z
m-307 -10 c0 -2 -8 -10 -17 -17 -16 -13 -17 -12 -4 4 13 16 21 21 21 13z m20
-11 c-6 -8 -9 -19 -5 -24 4 -7 0 -8 -10 -5 -14 6 -14 8 1 25 20 22 32 26 14 4z
m264 -17 c5 -10 7 -10 12 0 7 15 24 6 24 -14 0 -8 -4 -12 -10 -9 -6 3 -7 -1
-4 -9 5 -12 -1 -15 -25 -13 -27 2 -30 5 -27 27 6 32 5 30 15 30 5 0 12 -6 15
-12z m-241 -64 c-7 -20 -10 -18 -15 11 -4 20 -2 23 8 14 7 -6 10 -17 7 -25z
m57 -4 c10 -6 11 -10 3 -10 -7 0 -12 -3 -12 -7 3 -20 -3 -21 -20 -6 -31 26 -6
46 29 23z m115 -30 c4 -6 -5 -10 -20 -10 -15 0 -24 4 -20 10 3 6 12 10 20 10
8 0 17 -4 20 -10z"/>
<path d="M6188 2083 c7 -3 16 -2 19 1 4 3 -2 6 -13 5 -11 0 -14 -3 -6 -6z"/>
<path d="M320 3805 c-10 -12 -7 -21 19 -50 17 -20 31 -37 32 -38 1 -1 4 -99 8
-217 6 -206 8 -218 34 -274 15 -32 47 -87 72 -121 24 -34 42 -64 40 -67 -4 -4
-175 -846 -175 -861 0 -3 -20 -29 -44 -57 -56 -66 -63 -88 -30 -101 33 -12
354 -12 374 1 12 8 13 15 1 52 -27 88 -24 124 39 463 34 182 63 332 65 333 2
2 22 1 45 -3 l41 -7 -3 -371 c-3 -368 -3 -372 -25 -404 -27 -37 -29 -59 -7
-67 9 -3 78 -6 154 -6 76 0 145 3 154 6 22 9 20 27 -9 70 l-25 37 0 367 0 367
37 6 c20 4 39 5 41 3 1 -2 21 -100 43 -217 22 -118 49 -263 61 -324 25 -134
26 -174 3 -243 -10 -29 -14 -56 -10 -60 11 -12 348 -14 378 -3 36 14 34 28 -8
76 -20 22 -42 52 -50 66 -11 20 -151 682 -182 860 -4 19 7 43 41 91 86 123 89
136 96 373 5 173 9 216 24 243 9 18 24 36 32 39 20 7 17 30 -5 43 -11 5 -82
10 -160 10 l-139 0 -4 -237 c-3 -218 -5 -242 -24 -283 -26 -55 -86 -113 -136
-135 l-38 -15 0 278 0 279 26 38 c46 68 41 70 -146 70 -147 0 -165 -2 -168
-17 -2 -9 7 -31 20 -48 23 -31 23 -37 26 -316 2 -156 0 -284 -3 -284 -19 0
-100 47 -126 74 -67 67 -73 95 -77 359 l-4 237 -148 0 c-118 0 -150 -3 -160
-15z"/>
<path d="M1764 3805 c-4 -9 5 -32 20 -53 l26 -38 0 -800 0 -800 -25 -34 c-31
-42 -31 -56 -2 -64 29 -8 615 -8 645 0 22 6 22 9 22 160 0 147 -1 153 -22 168
-49 35 -122 14 -172 -49 -56 -72 -130 -95 -174 -55 -22 21 -22 21 -22 453 0
324 3 436 12 445 21 21 52 13 103 -29 46 -38 53 -41 97 -37 75 8 120 64 134
165 7 58 -4 73 -42 53 -26 -15 -42 -9 -103 35 -54 40 -123 33 -178 -18 l-23
-20 0 139 c0 168 6 184 77 184 42 0 49 -4 114 -67 67 -64 72 -67 118 -67 81 0
82 3 79 183 l-3 156 -338 3 c-296 2 -338 0 -343 -13z"/>
<path d="M2754 3812 c-16 -10 -76 -215 -72 -244 3 -21 9 -23 65 -26 l62 -3 -5
-32 c-2 -18 -25 -286 -50 -597 -34 -429 -49 -571 -61 -589 l-15 -23 -32 31
c-29 28 -36 30 -59 22 l-27 -11 0 -154 c0 -138 2 -156 18 -163 9 -5 79 -8 154
-8 129 0 139 1 160 22 21 22 24 50 79 760 32 406 63 748 68 761 14 29 75 32
91 3 12 -23 14 -599 3 -1110 -6 -327 -7 -334 -30 -367 -27 -41 -29 -60 -7 -68
20 -8 288 -8 308 0 22 8 20 29 -6 65 l-23 31 -3 768 -2 768 34 45 c42 54 50
80 36 107 -10 20 -19 20 -343 20 -183 0 -337 -4 -343 -8z"/>
<path d="M3545 3809 c-4 -5 6 -29 22 -52 l28 -42 3 -760 c2 -418 0 -779 -3
-802 -3 -23 -17 -59 -32 -79 -42 -63 -37 -64 325 -64 197 0 321 4 333 10 17
10 19 23 19 151 0 135 -1 141 -25 164 -18 19 -35 25 -66 25 -37 0 -47 -6 -109
-66 -59 -57 -75 -67 -113 -71 -39 -5 -46 -2 -65 22 -22 27 -22 32 -22 454 0
319 3 430 12 439 22 22 55 13 104 -28 41 -33 56 -40 93 -40 38 0 49 5 81 39
23 24 41 56 49 84 22 89 10 121 -35 97 -26 -15 -42 -9 -103 35 -49 36 -106 34
-159 -5 l-42 -30 0 140 c0 127 2 142 20 160 43 43 130 16 185 -56 50 -65 145
-81 180 -31 19 28 22 286 3 305 -16 16 -674 17 -683 1z"/>
<path d="M4373 3809 c-9 -9 -13 -58 -13 -169 0 -188 3 -195 81 -195 49 0 54 2
88 45 77 95 96 110 140 110 67 0 74 -20 69 -202 -3 -135 -6 -158 -26 -195 -37
-71 -94 -87 -180 -52 -47 19 -52 6 -52 -134 0 -135 2 -137 75 -112 43 14 53
14 99 1 58 -17 87 -43 113 -101 14 -34 18 -80 21 -287 l4 -247 -26 -25 c-46
-47 -160 -30 -201 30 -11 15 -36 45 -56 66 -32 33 -43 38 -81 38 -74 0 -78
-10 -78 -193 0 -149 1 -157 21 -168 28 -14 438 -6 490 10 58 18 112 63 144
122 l30 54 0 310 c0 273 -2 316 -18 362 -19 54 -73 115 -126 143 l-31 16 35
33 c76 71 105 172 105 361 0 149 -13 213 -54 276 -27 40 -48 59 -93 80 -57 29
-61 29 -263 32 -156 3 -208 0 -217 -9z"/>
<path d="M5163 3813 c-20 -8 -15 -32 12 -65 l25 -30 0 -803 0 -803 -25 -30
c-31 -37 -32 -58 -2 -66 44 -12 292 -7 310 7 16 11 15 15 -10 52 l-28 40 0
495 0 495 118 3 117 3 0 -490 c0 -439 -2 -494 -17 -526 -9 -19 -20 -35 -25
-35 -15 0 -8 -38 8 -44 9 -3 78 -6 154 -6 148 0 170 4 170 27 0 18 -35 64 -43
57 -3 -4 -6 350 -7 785 -1 786 2 851 33 883 7 7 12 22 12 33 0 19 -8 20 -145
23 -168 3 -190 0 -190 -29 0 -14 5 -19 14 -16 11 4 13 1 9 -10 -4 -10 -2 -14
4 -10 14 9 15 3 20 -235 l4 -218 -121 0 -122 0 4 208 3 207 29 43 c25 36 27
45 15 53 -14 9 -304 11 -326 2z m780 -49 c-4 -12 -8 -13 -14 -3 -9 15 -2 32
11 24 5 -3 6 -13 3 -21z"/>
<path d="M6520 3815 c0 -3 34 -21 75 -40 42 -20 74 -41 73 -47 -2 -7 3 -12 10
-10 6 1 12 -6 12 -16 0 -10 4 -22 9 -27 5 -6 11 -19 13 -30 2 -11 6 -15 10
-10 8 13 -25 86 -49 107 -25 21 -113 69 -113 61 0 -4 -5 -2 -12 5 -12 12 -28
16 -28 7z"/>
<path d="M6866 3812 c-2 -4 14 -6 37 -4 68 5 76 10 20 11 -28 0 -54 -2 -57 -7z"/>
<path d="M7058 3813 c12 -2 32 -2 45 0 12 2 2 4 -23 4 -25 0 -35 -2 -22 -4z"/>
<path d="M6510 3785 c0 -8 9 -15 20 -15 24 0 27 15 4 24 -22 9 -24 8 -24 -9z"/>
<path d="M6886 3763 c-4 -9 -4 -14 0 -10 4 4 13 -1 21 -11 12 -15 13 -14 2 8
-16 33 -16 33 -23 13z"/>
<path d="M6533 3753 c-18 -7 -16 -23 2 -23 8 0 15 7 15 15 0 8 -1 15 -2 14 -2
0 -9 -3 -15 -6z"/>
<path d="M6481 3734 c0 -11 3 -14 6 -6 3 7 2 16 -1 19 -3 4 -6 -2 -5 -13z"/>
<path d="M6373 3718 c-2 -5 7 -8 21 -8 14 0 27 4 30 9 3 5 -6 8 -20 7 -14 0
-28 -4 -31 -8z"/>
<path d="M6420 3700 c-22 -22 -26 -40 -10 -40 6 0 10 7 10 15 0 8 4 15 9 15 5
0 11 7 15 15 7 20 0 19 -24 -5z"/>
<path d="M6670 3681 c0 -6 4 -13 10 -16 6 -3 7 1 4 9 -7 18 -14 21 -14 7z"/>
<path d="M6527 3612 c11 -11 17 -12 22 -4 4 6 8 -17 9 -51 5 -224 15 -327 30
-327 13 0 14 16 9 117 -4 64 -11 119 -17 123 -5 3 -11 40 -12 81 -1 76 -1 76
-29 76 -24 0 -25 -2 -12 -15z"/>
<path d="M6728 3583 c5 -21 7 -23 10 -9 2 10 0 22 -6 28 -6 6 -7 0 -4 -19z"/>
<path d="M6520 3570 c0 -5 5 -10 11 -10 5 0 7 5 4 10 -3 6 -8 10 -11 10 -2 0
-4 -4 -4 -10z"/>
<path d="M6735 2910 c0 -355 1 -500 2 -323 2 178 2 468 0 645 -1 178 -2 33 -2
-322z"/>
<path d="M6531 3524 c0 -11 3 -14 6 -6 3 7 2 16 -1 19 -3 4 -6 -2 -5 -13z"/>
<path d="M6522 2906 c-1 -264 1 -476 5 -473 3 4 6 150 6 324 l1 318 6 -230 c4
-126 8 -254 9 -284 0 -30 3 -52 6 -49 5 5 -12 548 -24 753 -5 78 -8 -49 -9
-359z"/>
<path d="M6542 3320 c0 -36 5 -110 13 -165 16 -109 16 -107 -5 145 -7 84 -7
84 -8 20z"/>
<path d="M6580 2873 c-2 -120 -20 -523 -25 -549 -5 -22 -2 -35 9 -47 9 -8 16
-32 16 -51 0 -20 5 -36 11 -36 8 0 10 17 5 53 -14 122 -19 267 -9 267 6 0 13
30 17 67 8 80 -3 333 -15 333 -5 0 -9 -17 -9 -37z"/>
<path d="M7179 2763 l-24 -28 28 24 c15 14 27 26 27 28 0 8 -8 1 -31 -24z"/>
<path d="M7126 2722 c-3 -5 1 -9 9 -9 8 0 12 4 9 9 -3 4 -7 8 -9 8 -2 0 -6 -4
-9 -8z"/>
<path d="M6522 2390 c0 -19 2 -27 5 -17 2 9 2 25 0 35 -3 9 -5 1 -5 -18z"/>
<path d="M6531 2334 c0 -11 3 -14 6 -6 3 7 2 16 -1 19 -3 4 -6 -2 -5 -13z"/>
<path d="M6556 2247 c3 -10 9 -15 12 -12 3 3 0 11 -7 18 -10 9 -11 8 -5 -6z"/>
<path d="M6724 2227 c-1 -30 -1 -30 9 -9 6 14 7 26 1 32 -5 5 -9 -4 -10 -23z"/>
<path d="M7208 2213 c7 -3 16 -2 19 1 4 3 -2 6 -13 5 -11 0 -14 -3 -6 -6z"/>
<path d="M6496 2178 c7 -11 34 -10 34 1 0 6 -9 9 -19 8 -11 0 -17 -5 -15 -9z"/>
<path d="M6710 2171 c0 -11 -4 -23 -10 -26 -5 -3 -10 -14 -10 -23 1 -10 9 -3
20 18 22 40 24 50 10 50 -5 0 -10 -9 -10 -19z"/>
<path d="M6641 2175 c1 -19 18 -51 18 -35 0 8 -4 22 -9 30 -5 8 -9 11 -9 5z"/>
<path d="M6681 2173 c-1 -6 -4 -20 -7 -30 -5 -17 -5 -17 6 0 6 10 9 23 6 30
-3 9 -5 9 -5 0z"/>
<path d="M6911 2154 c0 -11 3 -14 6 -6 3 7 2 16 -1 19 -3 4 -6 -2 -5 -13z"/>
<path d="M6904 2111 c3 -4 -6 -19 -19 -31 -28 -27 -31 -37 -11 -37 8 0 12 6 8
15 -4 11 -1 13 8 7 9 -6 11 -4 5 5 -6 10 -4 12 8 7 11 -4 14 -2 10 9 -3 7 0
14 7 14 6 0 8 5 5 10 -3 6 -11 10 -16 10 -6 0 -8 -4 -5 -9z"/>
<path d="M6478 2078 c9 -9 15 -9 24 0 9 9 7 12 -12 12 -19 0 -21 -3 -12 -12z"/>
<path d="M6520 2080 c0 -5 7 -10 15 -10 8 0 15 5 15 10 0 6 -7 10 -15 10 -8 0
-15 -4 -15 -10z"/>
<path d="M6505 2030 c3 -5 11 -10 16 -10 6 0 7 5 4 10 -3 6 -11 10 -16 10 -6
0 -7 -4 -4 -10z"/>
<path d="M566 1768 c-70 -9 -154 -46 -212 -94 -86 -70 -137 -231 -114 -361 46
-272 260 -394 496 -284 78 36 136 89 166 149 31 64 32 186 1 253 -25 57 -83
115 -137 140 -108 49 -281 -2 -327 -97 -30 -64 -28 -132 9 -197 49 -87 115
-116 197 -84 72 28 122 94 110 148 -11 49 -61 99 -99 99 -46 0 -50 -9 -13 -34
24 -16 33 -30 35 -57 7 -82 -82 -115 -139 -51 -60 67 -26 157 71 186 178 53
296 -170 161 -305 -27 -27 -56 -43 -110 -59 -135 -41 -223 -10 -285 100 -28
49 -31 64 -31 135 0 94 24 158 83 218 48 50 74 63 151 77 78 14 157 3 320 -44
64 -19 182 -43 262 -55 l147 -21 2708 2 c1490 1 2635 5 2544 8 -91 3 -155 7
-142 8 15 1 22 9 22 23 0 21 3 22 78 16 82 -5 132 0 132 13 0 4 -17 4 -37 -1
-51 -12 -53 -11 -53 6 0 11 12 15 46 15 27 0 43 4 39 10 -4 7 -891 10 -2628
10 -2221 0 -2643 2 -2757 15 -177 19 -226 29 -314 64 -117 47 -256 65 -380 49z
m5962 -155 c-15 -2 -42 -2 -60 0 -18 2 -6 4 27 4 33 0 48 -2 33 -4z"/>
<path d="M6818 1533 c12 -2 32 -2 45 0 12 2 2 4 -23 4 -25 0 -35 -2 -22 -4z"/>
<path d="M1630 1239 c-56 -12 -60 -26 -60 -192 0 -81 5 -157 10 -167 13 -25
80 -43 128 -34 75 14 72 5 72 200 l0 174 -25 10 c-36 14 -85 17 -125 9z m68
-51 c19 -19 16 -272 -3 -288 -8 -7 -22 -10 -30 -6 -12 4 -15 30 -15 150 0 140
2 151 31 155 3 1 10 -4 17 -11z"/>
<path d="M2318 1240 c-67 -12 -68 -15 -68 -190 0 -87 3 -165 6 -174 14 -37
130 -43 182 -10 21 14 22 19 22 179 0 160 -1 165 -22 179 -31 18 -75 24 -120
16z m60 -193 c2 -127 0 -148 -13 -154 -32 -12 -40 15 -42 149 -2 135 4 162 36
156 14 -3 16 -25 19 -151z"/>
<path d="M4372 1238 c-17 -5 -34 -14 -38 -20 -4 -7 -7 -86 -5 -177 2 -185 2
-184 72 -195 39 -6 114 7 123 22 2 4 6 83 7 176 3 155 1 170 -16 182 -10 8
-28 14 -39 15 -12 0 -33 2 -47 3 -15 1 -41 -2 -57 -6z m72 -44 c14 -5 16 -28
16 -149 0 -123 -2 -144 -16 -149 -37 -14 -44 11 -44 148 0 89 4 136 12 144 14
14 12 14 32 6z"/>
<path d="M5615 1242 c-11 -2 -30 -8 -42 -14 -23 -11 -23 -15 -23 -184 0 -193
-3 -185 72 -198 48 -9 115 9 128 34 5 10 10 86 10 169 0 138 -2 153 -20 171
-11 11 -28 20 -37 21 -10 0 -29 1 -43 2 -14 2 -34 1 -45 -1z m49 -48 c14 -5
16 -28 16 -149 0 -123 -2 -144 -16 -149 -37 -14 -44 11 -44 148 0 89 4 136 12
144 14 14 12 14 32 6z"/>
<path d="M5927 1239 c-56 -16 -57 -18 -57 -194 0 -144 2 -164 18 -178 23 -21
96 -31 137 -19 24 7 31 15 33 40 3 27 0 32 -18 32 -11 0 -32 -7 -46 -16 -16
-11 -28 -14 -35 -7 -8 8 -13 146 -9 277 0 19 7 19 83 0 25 -6 27 -4 27 25 0
17 -6 34 -12 36 -28 10 -95 12 -121 4z"/>
<path d="M6592 1239 c-19 -4 -38 -11 -44 -17 -14 -14 -17 -329 -3 -348 28 -39
163 -37 193 3 17 23 14 316 -3 340 -14 19 -96 32 -143 22z m76 -188 c1 -80 -2
-149 -7 -154 -5 -5 -18 -6 -30 -2 -20 6 -21 13 -21 150 0 146 3 157 40 152 12
-2 15 -27 18 -146z"/>
<path d="M7300 1242 c-26 -4 -50 -27 -50 -48 0 -8 9 -11 21 -9 18 4 20 1 14
-18 -25 -77 -44 -164 -50 -223 -4 -38 -12 -75 -17 -81 -8 -10 2 -13 46 -13 54
0 55 1 46 23 -7 15 -6 46 2 97 13 74 13 75 43 75 l30 0 8 -80 c6 -55 5 -85 -2
-97 -10 -16 -6 -18 44 -18 58 0 60 1 46 28 -4 9 -11 55 -15 102 -6 85 -8 99
-28 177 -8 33 -8 46 2 58 7 9 10 18 7 21 -7 7 -109 11 -147 6z m72 -112 c3
-18 0 -31 -8 -34 -18 -7 -27 11 -20 40 9 33 23 30 28 -6z"/>
<path d="M1255 1045 l0 -195 45 0 45 0 -3 170 c-3 147 -1 171 13 176 8 4 26
-1 40 -10 13 -9 33 -16 45 -16 16 0 20 6 20 35 l0 35 -102 0 -103 0 0 -195z"/>
<path d="M1898 1228 c15 -15 17 -330 2 -359 -10 -18 -7 -19 46 -19 48 0 55 2
45 14 -7 8 -11 36 -9 62 3 47 4 49 45 64 75 27 97 50 99 102 2 62 -11 129 -27
139 -8 5 -59 9 -113 9 -78 0 -97 -3 -88 -12z m140 -40 c20 -20 15 -92 -9 -122
-37 -47 -49 -35 -49 47 0 41 3 77 7 80 10 11 38 8 51 -5z"/>
<path d="M2610 1221 c-15 -29 -12 -41 10 -41 25 0 25 -1 0 -43 -28 -47 -42
-132 -31 -190 8 -42 7 -47 -10 -47 -15 0 -19 -7 -19 -35 0 -28 4 -35 19 -35
11 0 23 5 26 10 3 6 46 10 95 10 49 0 92 -4 95 -10 11 -18 43 -10 49 13 9 34
8 37 -20 47 l-26 10 3 148 c1 81 6 155 11 165 8 16 1 17 -91 17 -89 0 -101 -2
-111 -19z m120 -186 l0 -135 -29 0 c-24 0 -29 5 -35 31 -10 50 -7 102 8 153
12 41 40 86 53 86 1 0 3 -61 3 -135z"/>
<path d="M3237 1228 c10 -17 12 -327 2 -355 -8 -22 -6 -23 47 -23 47 0 55 2
45 14 -15 18 -11 168 5 173 11 4 49 -129 46 -164 -2 -22 2 -23 58 -23 33 0 60
4 60 10 0 6 -4 10 -9 10 -10 0 -23 32 -51 128 l-21 73 20 26 c13 16 21 41 21
65 0 22 5 48 11 59 10 19 8 20 -37 17 l-48 -3 -2 -48 c-2 -49 -24 -87 -52 -87
-11 0 -13 14 -10 70 l4 70 -49 0 c-36 0 -46 -3 -40 -12z"/>
<path d="M3608 1228 c7 -7 12 -21 12 -33 0 -43 32 -142 61 -189 l30 -48 -31
-49 c-17 -26 -37 -50 -43 -53 -7 -2 16 -5 51 -5 42 -1 61 3 57 10 -4 5 0 18 8
27 37 43 73 143 87 245 6 40 13 80 16 90 5 15 -2 17 -43 17 l-48 0 0 -78 c0
-42 -6 -86 -12 -96 -10 -18 -12 -17 -29 15 -11 22 -18 57 -18 96 l-1 63 -54 0
c-43 0 -52 -3 -43 -12z"/>
<path d="M3979 1217 c11 -28 9 -337 -2 -354 -6 -10 6 -13 49 -13 45 0 55 3 46
12 -7 7 -12 34 -12 60 l0 48 58 25 c31 14 63 33 70 42 7 10 12 48 12 94 0 102
-9 109 -137 109 -92 0 -92 0 -84 -23z m139 -34 c13 -35 6 -102 -13 -123 -35
-38 -45 -26 -45 53 0 41 3 77 7 80 13 13 44 7 51 -10z"/>
<path d="M4648 1228 c17 -17 17 -349 0 -366 -9 -9 1 -12 45 -12 52 0 57 2 49
18 -5 9 -9 37 -8 61 1 43 2 44 51 63 77 29 95 55 95 139 0 101 -11 109 -142
109 -79 0 -99 -3 -90 -12z m136 -34 c25 -10 22 -108 -5 -135 -32 -32 -43 -19
-45 52 -1 80 10 98 50 83z"/>
<path d="M5000 1205 c0 -28 4 -35 19 -35 11 0 23 5 26 10 3 6 13 10 21 10 11
0 14 -26 14 -151 0 -84 -5 -159 -10 -170 -10 -18 -7 -19 47 -19 44 0 54 3 45
12 -8 8 -12 60 -12 170 0 131 2 158 14 158 8 0 18 -4 21 -10 3 -5 15 -10 26
-10 15 0 19 7 19 35 l0 35 -115 0 -115 0 0 -35z"/>
<path d="M6178 1228 c15 -15 17 -330 2 -359 -10 -18 -7 -19 45 -19 53 0 55 1
45 20 -6 12 -10 61 -8 118 l3 97 38 3 37 3 0 -108 c0 -72 -4 -113 -12 -121 -9
-9 1 -12 45 -12 52 0 57 2 49 18 -12 22 -13 319 -1 349 8 22 7 23 -48 23 -44
0 -54 -3 -45 -12 7 -7 12 -31 12 -55 l0 -43 -40 0 c-39 0 -40 1 -40 36 0 19 5
44 10 55 10 18 7 19 -47 19 -44 0 -54 -3 -45 -12z"/>
<path d="M6865 1045 l0 -195 103 0 c91 0 104 2 123 21 28 28 21 84 -20 150
-16 27 -26 51 -20 54 12 8 39 61 50 97 6 23 4 33 -12 49 -16 16 -33 19 -121
19 l-103 0 0 -195z m129 149 c26 -10 19 -60 -14 -96 l-29 -33 -1 61 c0 73 6
83 44 68z m11 -204 c31 -61 12 -110 -36 -95 -15 5 -19 16 -19 60 0 49 6 61 32
64 4 1 14 -12 23 -29z"/>
<path d="M7598 1228 c8 -8 12 -63 12 -183 0 -120 -4 -175 -12 -183 -9 -9 1
-12 45 -12 55 0 57 1 47 20 -6 12 -10 61 -8 118 l3 97 38 3 37 3 0 -108 c0
-72 -4 -113 -12 -121 -9 -9 1 -12 45 -12 55 0 56 1 48 23 -12 30 -12 314 0
344 8 22 7 23 -48 23 -44 0 -54 -3 -45 -12 7 -7 12 -31 12 -55 l0 -43 -40 0
c-39 0 -40 1 -40 36 0 19 5 44 10 55 10 18 7 19 -47 19 -44 0 -54 -3 -45 -12z"/>
<path d="M8175 1045 l0 -195 90 0 c113 0 131 5 144 40 12 37 1 86 -34 139 -18
27 -25 45 -18 49 21 14 53 78 53 108 0 43 -30 54 -143 54 l-92 0 0 -195z m134
146 c20 -13 6 -73 -24 -101 l-25 -23 0 60 c0 73 11 88 49 64z m7 -206 c22 -53
18 -83 -10 -91 -14 -3 -30 -3 -35 1 -16 9 -14 112 2 118 23 10 28 7 43 -28z"/>
<path d="M8777 1169 c-54 -35 -59 -47 -18 -41 23 3 29 0 34 -20 11 -38 8 -218
-3 -239 -10 -18 -7 -19 44 -19 l56 0 -11 27 c-6 16 -10 89 -9 163 1 74 1 141
1 148 -2 22 -46 13 -94 -19z"/>
<path d="M9040 1193 c-38 -14 -54 -88 -29 -135 8 -14 8 -23 0 -31 -6 -6 -11
-41 -11 -77 0 -91 18 -106 118 -102 52 3 72 31 72 105 0 35 -4 67 -10 73 -6 6
-6 22 0 44 13 46 3 97 -23 115 -21 15 -87 19 -117 8z m71 -58 c1 -8 2 -21 3
-27 4 -23 -14 -47 -29 -42 -15 6 -21 64 -8 77 12 12 33 7 34 -8z m-3 -127 c14
-14 16 -77 3 -97 -19 -29 -41 -4 -41 47 0 61 12 76 38 50z"/>
<path d="M9344 1165 c-27 -19 -44 -35 -39 -36 6 -1 21 -2 35 -2 l25 -2 3 -124
c2 -82 -1 -128 -9 -137 -10 -12 -2 -14 42 -14 l54 0 -3 162 c-1 90 -5 169 -7
176 -8 22 -51 13 -101 -23z"/>
<path d="M9596 1179 c-26 -20 -26 -21 -26 -159 0 -137 0 -140 25 -156 35 -23
119 -22 145 1 18 16 20 30 20 154 0 75 -4 141 -8 147 -25 38 -114 46 -156 13z
m94 -160 c0 -119 0 -120 -22 -117 -22 3 -23 7 -26 121 l-3 117 26 0 25 0 0
-121z"/>
<path d="M10008 1016 c3 -61 0 -117 -6 -135 l-11 -31 39 0 c38 0 39 1 30 26
-11 28 -14 173 -4 198 7 19 27 20 54 4 17 -11 22 -10 30 2 18 27 4 35 -67 38
l-70 3 5 -105z"/>
<path d="M2968 1043 c-15 -29 -1 -38 65 -41 66 -3 68 -2 65 20 -3 21 -9 23
-65 26 -34 2 -63 -1 -65 -5z"/>
<path d="M10197 904 c-4 -4 -7 -18 -7 -31 0 -20 5 -23 36 -23 33 0 35 2 32 28
-2 20 -9 28 -28 30 -14 2 -29 0 -33 -4z"/>
</g>
</svg>
