<svg width="816" height="195" viewBox="0 0 816 195" fill="none" xmlns="http://www.w3.org/2000/svg">
<path d="M51.96 162V166H55.96V162H51.96ZM4.66 162H0.660001V166H4.66V162ZM4.66 7.99999V3.99999H0.660001V7.99999H4.66ZM51.96 7.99999H55.96V3.99999H51.96V7.99999ZM51.96 65.42H47.96V77.3591L55.1526 67.8298L51.96 65.42ZM95.3 7.99999V3.99999H93.3076L92.1074 5.59022L95.3 7.99999ZM150.96 7.99999L154.14 10.4265L159.044 3.99999H150.96V7.99999ZM96.4 79.5L93.2201 77.0735L91.3304 79.5498L93.2684 81.9886L96.4 79.5ZM161.96 162V166H170.248L165.092 159.511L161.96 162ZM103.88 162L100.728 164.463L101.929 166H103.88V162ZM51.96 95.56L55.1118 93.097L47.96 83.9452V95.56H51.96ZM51.96 158H4.66V166H51.96V158ZM8.66 162V7.99999H0.660001V162H8.66ZM4.66 12H51.96V3.99999H4.66V12ZM47.96 7.99999V65.42H55.96V7.99999H47.96ZM55.1526 67.8298L98.4927 10.4098L92.1074 5.59022L48.7674 63.0102L55.1526 67.8298ZM95.3 12H150.96V3.99999H95.3V12ZM147.78 5.57346L93.2201 77.0735L99.5799 81.9265L154.14 10.4265L147.78 5.57346ZM93.2684 81.9886L158.828 164.489L165.092 159.511L99.5316 77.0114L93.2684 81.9886ZM161.96 158H103.88V166H161.96V158ZM107.032 159.537L55.1118 93.097L48.8082 98.023L100.728 164.463L107.032 159.537ZM47.96 95.56V162H55.96V95.56H47.96ZM207.919 162V166H210.655L211.647 163.451L207.919 162ZM159.079 162L155.377 160.485L153.121 166H159.079V162ZM222.439 7.11999V3.11999H219.754L218.737 5.60546L222.439 7.11999ZM267.539 7.11999L271.24 5.60095L270.221 3.11999H267.539V7.11999ZM331.119 162V166H337.085L334.82 160.481L331.119 162ZM280.299 162L276.562 163.426L277.545 166H280.299V162ZM269.299 133.18L273.036 131.754L272.054 129.18H269.299V133.18ZM219.139 133.18V129.18H216.404L215.412 131.729L219.139 133.18ZM244.219 61.24L248.043 60.0653L244.256 47.7405L240.402 60.0443L244.219 61.24ZM232.779 97.76L228.962 96.5643L227.335 101.76H232.779V97.76ZM255.439 97.76V101.76H260.853L259.263 96.5853L255.439 97.76ZM207.919 158H159.079V166H207.919V158ZM162.782 163.515L226.142 8.63452L218.737 5.60546L155.377 160.485L162.782 163.515ZM222.439 11.12H267.539V3.11999H222.439V11.12ZM263.839 8.63902L327.419 163.519L334.82 160.481L271.24 5.60095L263.839 8.63902ZM331.119 158H280.299V166H331.119V158ZM284.036 160.574L273.036 131.754L265.562 134.606L276.562 163.426L284.036 160.574ZM269.299 129.18H219.139V137.18H269.299V129.18ZM215.412 131.729L204.192 160.549L211.647 163.451L222.867 134.631L215.412 131.729ZM240.402 60.0443L228.962 96.5643L236.596 98.9557L248.036 62.4357L240.402 60.0443ZM232.779 101.76H255.439V93.76H232.779V101.76ZM259.263 96.5853L248.043 60.0653L240.396 62.4147L251.616 98.9347L259.263 96.5853ZM342.824 7.99999V3.99999H338.824V7.99999H342.824ZM455.904 22.08L453.226 25.0511L453.246 25.0696L453.267 25.0877L455.904 22.08ZM455.904 94.24L453.267 91.2322L453.246 91.2504L453.226 91.2689L455.904 94.24ZM390.124 108.32V104.32H386.124V108.32H390.124ZM390.124 162V166H394.124V162H390.124ZM342.824 162H338.824V166H342.824V162ZM390.124 74H386.124V78H390.124V74ZM418.944 70.26L421.535 73.3078L421.541 73.3024L421.547 73.297L418.944 70.26ZM418.944 50.24L416.427 53.349L418.944 50.24ZM390.124 46.5V42.5H386.124V46.5H390.124ZM342.824 12H413.664V3.99999H342.824V12ZM413.664 12C430.694 12 443.727 16.4889 453.226 25.0511L458.582 19.1089C447.254 8.89773 432.128 3.99999 413.664 3.99999V12ZM453.267 25.0877C463.078 33.6892 467.964 44.6059 467.964 58.16H475.964C475.964 42.3808 470.143 29.2441 458.541 19.0722L453.267 25.0877ZM467.964 58.16C467.964 71.7141 463.078 82.6308 453.267 91.2322L458.541 97.2477C470.143 87.0759 475.964 73.9392 475.964 58.16H467.964ZM453.226 91.2689C443.727 99.8311 430.694 104.32 413.664 104.32V112.32C432.128 112.32 447.254 107.422 458.582 97.2111L453.226 91.2689ZM413.664 104.32H390.124V112.32H413.664V104.32ZM386.124 108.32V162H394.124V108.32H386.124ZM390.124 158H342.824V166H390.124V158ZM346.824 162V7.99999H338.824V162H346.824ZM390.124 78H407.284V70H390.124V78ZM407.284 78C412.822 78 417.707 76.561 421.535 73.3078L416.353 67.2122C414.314 68.9456 411.426 70 407.284 70V78ZM421.547 73.297C425.526 69.8863 427.564 65.3978 427.564 60.14H419.564C419.564 63.0956 418.522 65.3536 416.341 67.223L421.547 73.297ZM427.564 60.14C427.564 54.877 425.518 50.4152 421.461 47.131L416.427 53.349C418.53 55.0515 419.564 57.1896 419.564 60.14H427.564ZM421.461 47.131C417.543 43.9594 412.717 42.5 407.284 42.5V50.5C411.237 50.5 414.185 51.534 416.427 53.349L421.461 47.131ZM407.284 42.5H390.124V50.5H407.284V42.5ZM386.124 46.5V74H394.124V46.5H386.124ZM509.866 190.38V194.38H513.866V190.38H509.866ZM465.646 190.38H461.646V194.38H465.646V190.38ZM465.646 121.3V117.3H461.646V121.3H465.646ZM481.266 121.3V125.3H483.616L484.76 123.247L481.266 121.3ZM496.226 7.99999V3.99999H492.226V7.99999H496.226ZM616.126 7.99999H620.126V3.99999H616.126V7.99999ZM616.126 121.3H612.126V125.3H616.126V121.3ZM635.486 121.3H639.486V117.3H635.486V121.3ZM635.486 190.38V194.38H639.486V190.38H635.486ZM591.046 190.38H587.046V194.38H591.046V190.38ZM591.046 162H595.046V158H591.046V162ZM509.866 162V158H505.866V162H509.866ZM528.786 121.3L525.182 119.565L522.421 125.3H528.786V121.3ZM569.046 121.3V125.3H573.046V121.3H569.046ZM569.046 48.7H573.046V44.7H569.046V48.7ZM540.666 48.7V44.7H536.666V48.7H540.666ZM537.586 88.08L541.545 88.6514L541.547 88.6403L541.548 88.6292L537.586 88.08ZM509.866 186.38H465.646V194.38H509.866V186.38ZM469.646 190.38V121.3H461.646V190.38H469.646ZM465.646 125.3H481.266V117.3H465.646V125.3ZM484.76 123.247C495.24 104.444 500.226 75.8103 500.226 37.92H492.226C492.226 75.4164 487.238 102.369 477.772 119.353L484.76 123.247ZM500.226 37.92V7.99999H492.226V37.92H500.226ZM496.226 12H616.126V3.99999H496.226V12ZM612.126 7.99999V121.3H620.126V7.99999H612.126ZM616.126 125.3H635.486V117.3H616.126V125.3ZM631.486 121.3V190.38H639.486V121.3H631.486ZM635.486 186.38H591.046V194.38H635.486V186.38ZM595.046 190.38V162H587.046V190.38H595.046ZM591.046 158H509.866V166H591.046V158ZM505.866 162V190.38H513.866V162H505.866ZM528.786 125.3H569.046V117.3H528.786V125.3ZM573.046 121.3V48.7H565.046V121.3H573.046ZM569.046 44.7H540.666V52.7H569.046V44.7ZM536.666 48.7C536.666 59.9104 535.659 72.8476 533.624 87.5308L541.548 88.6292C543.619 73.6858 544.666 60.3696 544.666 48.7H536.666ZM533.627 87.5086C531.6 101.553 528.742 112.171 525.182 119.565L532.39 123.035C536.457 114.589 539.465 103.06 541.545 88.6514L533.627 87.5086ZM705.235 111.62L702.258 114.292L702.286 114.323L702.314 114.354L705.235 111.62ZM754.075 111.62L756.995 114.354L757.023 114.323L757.051 114.292L754.075 111.62ZM754.075 58.6L751.095 61.269L751.124 61.3017L751.154 61.3337L754.075 58.6ZM705.235 58.6L708.155 61.3337L708.185 61.3017L708.214 61.269L705.235 58.6ZM670.475 141.54L673.303 138.712L670.475 141.54ZM670.475 28.46L673.303 31.2884L670.475 28.46ZM788.615 28.46L791.443 25.6316L788.615 28.46ZM788.615 141.76L785.786 138.932L788.615 141.76ZM702.314 114.354C709.558 122.091 718.772 125.96 729.655 125.96V117.96C720.884 117.96 713.818 114.935 708.155 108.886L702.314 114.354ZM729.655 125.96C740.537 125.96 749.751 122.091 756.995 114.354L751.154 108.886C745.491 114.935 738.425 117.96 729.655 117.96V125.96ZM757.051 114.292C764.227 106.301 767.755 96.4469 767.755 85H759.755C759.755 94.6731 756.829 102.566 751.098 108.947L757.051 114.292ZM767.755 85C767.755 73.4246 764.236 63.6013 756.995 55.8663L751.154 61.3337C756.82 67.3854 759.755 75.1621 759.755 85H767.755ZM757.054 55.931C749.942 47.9925 740.694 44.04 729.655 44.04V52.04C738.562 52.04 745.593 55.1275 751.095 61.269L757.054 55.931ZM729.655 44.04C718.615 44.04 709.367 47.9925 702.255 55.931L708.214 61.269C713.716 55.1275 720.747 52.04 729.655 52.04V44.04ZM702.314 55.8663C695.073 63.6012 691.555 73.4246 691.555 85H699.555C699.555 75.1621 702.489 67.3854 708.155 61.3337L702.314 55.8663ZM691.555 85C691.555 96.4469 695.082 106.301 702.258 114.292L708.211 108.947C702.48 102.566 699.555 94.6731 699.555 85H691.555ZM673.303 138.712C658.513 123.921 651.155 106.094 651.155 85H643.155C643.155 108.199 651.343 128.065 667.646 144.368L673.303 138.712ZM651.155 85C651.155 63.9055 658.513 46.0788 673.303 31.2884L667.646 25.6316C651.343 41.9345 643.155 61.8012 643.155 85H651.155ZM673.303 31.2884C688.19 16.4019 706.872 8.91999 729.655 8.91999V0.91999C704.917 0.91999 684.146 9.13144 667.646 25.6316L673.303 31.2884ZM729.655 8.91999C752.282 8.91999 770.895 16.3968 785.786 31.2884L791.443 25.6316C774.948 9.1365 754.253 0.91999 729.655 0.91999V8.91999ZM785.786 31.2884C800.576 46.0788 807.935 63.9055 807.935 85H815.935C815.935 61.8012 807.746 41.9345 791.443 25.6316L785.786 31.2884ZM807.935 85C807.935 106.249 800.571 124.147 785.786 138.932L791.443 144.588C807.751 128.28 815.935 108.338 815.935 85H807.935ZM785.786 138.932C771.054 153.664 752.448 161.08 729.655 161.08V169.08C754.381 169.08 775.082 160.95 791.443 144.588L785.786 138.932ZM729.655 161.08C706.872 161.08 688.19 153.598 673.303 138.712L667.646 144.368C684.146 160.869 704.917 169.08 729.655 169.08V161.08Z" fill="#C12736" fill-opacity="0.2"/>
</svg>
