<svg width="87" height="97" viewBox="0 0 87 97" fill="none" xmlns="http://www.w3.org/2000/svg">
<path fill-rule="evenodd" clip-rule="evenodd" d="M3.51838 0.0494898C3.51838 0.0767092 3.39844 0.0989796 3.25184 0.0989796C3.10524 0.0989796 2.98529 0.12125 2.98529 0.148469C2.98529 0.175689 2.91333 0.197959 2.82537 0.197959C2.73741 0.197959 2.66544 0.22023 2.66544 0.247449C2.66544 0.274668 2.59347 0.296939 2.50551 0.296939C2.41756 0.296939 2.34559 0.319209 2.34559 0.346429C2.34559 0.373648 2.29761 0.395918 2.23897 0.395918C2.18033 0.395918 2.13235 0.418189 2.13235 0.445408C2.13235 0.472628 2.08965 0.494898 2.03752 0.494898C1.98533 0.494898 1.90808 0.539439 1.86581 0.593878C1.82353 0.648316 1.75791 0.692857 1.7199 0.692857C1.62986 0.692857 0.852941 1.41412 0.852941 1.49771C0.852941 1.533 0.804963 1.59392 0.746324 1.63316C0.687684 1.67241 0.639706 1.74412 0.639706 1.79257C0.639706 1.84097 0.615717 1.88061 0.586397 1.88061C0.557077 1.88061 0.533088 1.92515 0.533088 1.97959C0.533088 2.03403 0.509099 2.07857 0.479779 2.07857C0.45046 2.07857 0.426471 2.12311 0.426471 2.17755C0.426471 2.23199 0.402482 2.27653 0.373162 2.27653C0.343842 2.27653 0.319853 2.34334 0.319853 2.425C0.319853 2.50666 0.295864 2.57347 0.266544 2.57347C0.237224 2.57347 0.213235 2.64028 0.213235 2.72194C0.213235 2.8036 0.189246 2.87041 0.159926 2.87041C0.130607 2.87041 0.106618 2.98176 0.106618 3.11786C0.106618 3.25395 0.0826287 3.36531 0.0533088 3.36531C0.0178051 3.36531 0 15.7542 0 40.4332C0 65.1121 0.0178051 77.501 0.0533088 77.501C0.0826287 77.501 0.106618 77.5901 0.106618 77.699C0.106618 77.8079 0.130607 77.8969 0.159926 77.8969C0.189246 77.8969 0.213235 77.986 0.213235 78.0949C0.213235 78.2038 0.237224 78.2929 0.266544 78.2929C0.295864 78.2929 0.319853 78.3374 0.319853 78.3918C0.319853 78.4463 0.343842 78.4908 0.373162 78.4908C0.402482 78.4908 0.426471 78.5527 0.426471 78.6283C0.426471 78.7091 0.470504 78.7953 0.533088 78.8372C0.591728 78.8765 0.639706 78.9482 0.639706 78.9967C0.639706 79.0451 0.663695 79.0847 0.693015 79.0847C0.722335 79.0847 0.746324 79.1203 0.746324 79.1638C0.746324 79.2073 0.81829 79.3054 0.90625 79.3816C0.99421 79.4579 1.06618 79.5455 1.06618 79.5764C1.06618 79.6492 1.41764 79.9755 1.49611 79.9755C1.52932 79.9755 1.62373 80.0423 1.70588 80.124C1.78803 80.2056 1.89364 80.2724 1.94049 80.2724C1.98741 80.2724 2.02574 80.2947 2.02574 80.3219C2.02574 80.3492 2.07371 80.3714 2.13235 80.3714C2.19099 80.3714 2.23897 80.3937 2.23897 80.4209C2.23897 80.4481 2.28695 80.4704 2.34559 80.4704C2.40423 80.4704 2.45221 80.4927 2.45221 80.5199C2.45221 80.5471 2.52417 80.5694 2.61213 80.5694C2.70009 80.5694 2.77206 80.5917 2.77206 80.6189C2.77206 80.6461 2.86801 80.6684 2.98529 80.6684C3.10257 80.6684 3.19853 80.6906 3.19853 80.7179C3.19853 80.7461 3.35846 80.7673 3.57169 80.7673C3.78493 80.7673 3.94485 80.7886 3.94485 80.8168C3.94485 80.8491 4.76224 80.8663 6.29044 80.8663H8.63603V78.8372V76.8082H6.50368H4.37132V40.4332V4.05816H34.8107H65.25V6.01652C65.25 7.64781 65.2627 7.98671 65.3262 8.04561C65.3896 8.1045 65.7547 8.11633 67.5118 8.11633H69.6213V5.8398C69.6213 4.3551 69.6028 3.56327 69.568 3.56327C69.5384 3.56327 69.5147 3.43128 69.5147 3.26633C69.5147 3.10138 69.491 2.96939 69.4614 2.96939C69.4321 2.96939 69.4081 2.90258 69.4081 2.82092C69.4081 2.73926 69.3841 2.67245 69.3548 2.67245C69.3255 2.67245 69.3015 2.60564 69.3015 2.52398C69.3015 2.44232 69.2775 2.37551 69.2482 2.37551C69.2188 2.37551 69.1949 2.33097 69.1949 2.27653C69.1949 2.22209 69.1709 2.17755 69.1415 2.17755C69.1122 2.17755 69.0882 2.13301 69.0882 2.07857C69.0882 2.02413 69.0642 1.97959 69.0349 1.97959C69.0056 1.97959 68.9816 1.93505 68.9816 1.88061C68.9816 1.82617 68.9576 1.78163 68.9283 1.78163C68.899 1.78163 68.875 1.74605 68.875 1.7025C68.875 1.659 68.803 1.56096 68.7151 1.48469C68.6271 1.40843 68.5551 1.32093 68.5551 1.2903C68.5551 1.21275 68.0936 0.791837 68.0086 0.791837C67.9703 0.791837 67.9044 0.747296 67.8621 0.692857C67.8199 0.638418 67.7479 0.593878 67.7022 0.593878C67.6565 0.593878 67.5845 0.549337 67.5423 0.494898C67.4971 0.436797 67.4043 0.395918 67.3173 0.395918C67.2358 0.395918 67.1691 0.373648 67.1691 0.346429C67.1691 0.319209 67.1211 0.296939 67.0625 0.296939C67.0039 0.296939 66.9559 0.274668 66.9559 0.247449C66.9559 0.22023 66.8839 0.197959 66.796 0.197959C66.708 0.197959 66.636 0.175689 66.636 0.148469C66.636 0.12125 66.5161 0.0989796 66.3695 0.0989796C66.2229 0.0989796 66.1029 0.0767092 66.1029 0.0494898C66.1029 0.0165296 55.6367 0 34.8107 0C13.9847 0 3.51838 0.0165296 3.51838 0.0494898ZM16.3125 12.224C16.3125 12.2512 16.2165 12.2735 16.0993 12.2735C15.982 12.2735 15.886 12.2957 15.886 12.323C15.886 12.3502 15.8141 12.3724 15.7261 12.3724C15.6381 12.3724 15.5662 12.3947 15.5662 12.4219C15.5662 12.4492 15.5182 12.4714 15.4596 12.4714C15.4009 12.4714 15.3529 12.4937 15.3529 12.5209C15.3529 12.5481 15.305 12.5704 15.2463 12.5704C15.1877 12.5704 15.1397 12.5927 15.1397 12.6199C15.1397 12.6471 15.097 12.6694 15.0449 12.6694C14.9927 12.6694 14.9154 12.7139 14.8732 12.7684C14.8309 12.8228 14.7652 12.8673 14.7271 12.8673C14.637 12.8673 13.9669 13.4894 13.9669 13.5731C13.9669 13.6084 13.9189 13.6694 13.8603 13.7087C13.8017 13.7479 13.7537 13.8196 13.7537 13.8681C13.7537 13.9165 13.7297 13.9561 13.7004 13.9561C13.671 13.9561 13.6471 14.0007 13.6471 14.0551C13.6471 14.1095 13.6231 14.1541 13.5938 14.1541C13.5644 14.1541 13.5404 14.1986 13.5404 14.2531C13.5404 14.3075 13.5165 14.352 13.4871 14.352C13.4578 14.352 13.4338 14.3966 13.4338 14.451C13.4338 14.5055 13.4098 14.55 13.3805 14.55C13.3512 14.55 13.3272 14.6168 13.3272 14.6985C13.3272 14.7801 13.3032 14.8469 13.2739 14.8469C13.2446 14.8469 13.2206 14.936 13.2206 15.0449C13.2206 15.1538 13.1966 15.2429 13.1673 15.2429C13.1376 15.2429 13.114 15.3748 13.114 15.5398C13.114 15.7047 13.0903 15.8367 13.0607 15.8367C13.0252 15.8367 13.0074 28.7866 13.0074 54.5872C13.0074 80.3879 13.0252 93.3378 13.0607 93.3378C13.0903 93.3378 13.114 93.4697 13.114 93.6347C13.114 93.7996 13.1376 93.9316 13.1673 93.9316C13.1966 93.9316 13.2206 94.0207 13.2206 94.1296C13.2206 94.2385 13.2446 94.3276 13.2739 94.3276C13.3032 94.3276 13.3272 94.3721 13.3272 94.4265C13.3272 94.481 13.3512 94.5255 13.3805 94.5255C13.4098 94.5255 13.4338 94.5923 13.4338 94.674C13.4338 94.7556 13.4578 94.8224 13.4871 94.8224C13.5165 94.8224 13.5404 94.867 13.5404 94.9214C13.5404 94.9759 13.5644 95.0204 13.5938 95.0204C13.6231 95.0204 13.6471 95.0601 13.6471 95.1085C13.6471 95.1569 13.695 95.2286 13.7537 95.2679C13.8123 95.3071 13.8603 95.3699 13.8603 95.4074C13.8603 95.4449 13.9323 95.538 14.0202 95.6143C14.1082 95.6906 14.1801 95.7784 14.1801 95.8096C14.1801 95.8831 14.4237 96.1092 14.5028 96.1092C14.5364 96.1092 14.6311 96.176 14.7132 96.2577C14.7954 96.3393 14.901 96.4061 14.9478 96.4061C14.9948 96.4061 15.0331 96.4284 15.0331 96.4556C15.0331 96.4828 15.0811 96.5051 15.1397 96.5051C15.1983 96.5051 15.2463 96.5274 15.2463 96.5546C15.2463 96.5818 15.2943 96.6041 15.3529 96.6041C15.4116 96.6041 15.4596 96.6264 15.4596 96.6536C15.4596 96.6808 15.5075 96.7031 15.5662 96.7031C15.6248 96.7031 15.6728 96.7253 15.6728 96.7525C15.6728 96.7798 15.7687 96.802 15.886 96.802C16.0033 96.802 16.0993 96.8243 16.0993 96.8515C16.0993 96.8788 16.2192 96.901 16.3658 96.901C16.5124 96.901 16.6324 96.9233 16.6324 96.9505C16.6324 96.9834 23.3226 97 36.5965 97H56.5607L71.7803 82.8707L87 68.7414V42.0911C87 24.3572 86.9821 15.4408 86.9467 15.4408C86.9174 15.4408 86.8934 15.3517 86.8934 15.2429C86.8934 15.134 86.8694 15.0449 86.8401 15.0449C86.8108 15.0449 86.7868 14.9558 86.7868 14.8469C86.7868 14.7381 86.7628 14.649 86.7335 14.649C86.7041 14.649 86.6801 14.6044 86.6801 14.55C86.6801 14.4956 86.6562 14.451 86.6268 14.451C86.5975 14.451 86.5735 14.4065 86.5735 14.352C86.5735 14.2976 86.5495 14.2531 86.5202 14.2531C86.4909 14.2531 86.4669 14.2085 86.4669 14.1541C86.4669 14.0996 86.4429 14.0551 86.4136 14.0551C86.3843 14.0551 86.3603 14.0106 86.3603 13.9561C86.3603 13.9017 86.3363 13.8571 86.307 13.8571C86.2777 13.8571 86.2537 13.8216 86.2537 13.778C86.2537 13.7345 86.1817 13.6365 86.0938 13.5602C86.0058 13.4839 85.9338 13.3963 85.9338 13.3655C85.9338 13.2878 85.5798 12.9663 85.4942 12.9663C85.4557 12.9663 85.3897 12.9218 85.3474 12.8673C85.3052 12.8129 85.2332 12.7684 85.1875 12.7684C85.1418 12.7684 85.0698 12.7238 85.0276 12.6694C84.9853 12.6149 84.9081 12.5704 84.8559 12.5704C84.8037 12.5704 84.761 12.5481 84.761 12.5209C84.761 12.4937 84.7131 12.4714 84.6544 12.4714C84.5958 12.4714 84.5478 12.4492 84.5478 12.4219C84.5478 12.3947 84.4758 12.3724 84.3879 12.3724C84.2999 12.3724 84.2279 12.3502 84.2279 12.323C84.2279 12.2957 84.132 12.2735 84.0147 12.2735C83.8974 12.2735 83.8015 12.2512 83.8015 12.224C83.8015 12.191 72.5178 12.1745 50.057 12.1745C27.5962 12.1745 16.3125 12.191 16.3125 12.224ZM82.6287 40.3837V64.6337H69.4081C60.6299 64.6337 56.1875 64.6503 56.1875 64.6832C56.1875 64.7114 56.0276 64.7327 55.8143 64.7327C55.6011 64.7327 55.4412 64.7539 55.4412 64.7821C55.4412 64.8094 55.3452 64.8316 55.2279 64.8316C55.1107 64.8316 55.0147 64.8539 55.0147 64.8811C55.0147 64.9083 54.9427 64.9306 54.8548 64.9306C54.7668 64.9306 54.6949 64.9529 54.6949 64.9801C54.6949 65.0073 54.6469 65.0296 54.5882 65.0296C54.5296 65.0296 54.4816 65.0519 54.4816 65.0791C54.4816 65.1063 54.4336 65.1286 54.375 65.1286C54.3164 65.1286 54.2684 65.1508 54.2684 65.1781C54.2684 65.2053 54.2257 65.2276 54.1735 65.2276C54.1214 65.2276 54.0441 65.2721 54.0018 65.3265C53.9596 65.381 53.8938 65.4255 53.8557 65.4255C53.7653 65.4255 53.2022 65.9483 53.2022 66.0322C53.2022 66.0675 53.1542 66.1286 53.0956 66.1679C53.0369 66.2071 52.989 66.2739 52.989 66.3163C52.989 66.3587 52.941 66.4256 52.8824 66.4648C52.8237 66.504 52.7757 66.5758 52.7757 66.6242C52.7757 66.6726 52.7517 66.7122 52.7224 66.7122C52.6931 66.7122 52.6691 66.7568 52.6691 66.8112C52.6691 66.8657 52.6451 66.9102 52.6158 66.9102C52.5865 66.9102 52.5625 66.977 52.5625 67.0587C52.5625 67.1403 52.5385 67.2071 52.5092 67.2071C52.4799 67.2071 52.4559 67.274 52.4559 67.3556C52.4559 67.4373 52.4319 67.5041 52.4026 67.5041C52.3733 67.5041 52.3493 67.5932 52.3493 67.702C52.3493 67.8109 52.3253 67.9 52.296 67.9C52.2606 67.9 52.2426 72.1066 52.2426 80.4209V92.9418H34.8107H17.3787V54.5378V16.1337H50.0037H82.6287V40.3837ZM26.1213 30.3372V32.3663H50.057H73.9926V30.3372V28.3082H50.057H26.1213V30.3372ZM26.1213 42.4128V44.4418H50.057H73.9926V42.4128V40.3837H50.057H26.1213V42.4128ZM26.1213 54.5872V56.6163H50.057H73.9926V54.5872V52.5582H50.057H26.1213V54.5872ZM82.6287 68.7166C82.6287 68.749 56.6755 92.8429 56.6407 92.8429C56.626 92.8429 56.614 87.4089 56.614 80.7673V68.6918H69.6213C76.7754 68.6918 82.6287 68.703 82.6287 68.7166Z" fill="#C12736"/>
</svg>
