<?xml version="1.0" encoding="UTF-8"?>
<svg width="119px" height="44px" viewBox="0 0 119 44" version="1.1" xmlns="http://www.w3.org/2000/svg" xmlns:xlink="http://www.w3.org/1999/xlink">
    <!-- Generator: Sketch 42 (36781) - http://www.bohemiancoding.com/sketch -->
    <title>Page 1</title>
    <desc>Created with Sketch.</desc>
    <defs></defs>
    <g id="Page-1" stroke="none" stroke-width="1" fill="none" fill-rule="evenodd">
        <g id="news_tracker" transform="translate(-132.000000, -78.000000)">
            <g id="Page-1" transform="translate(132.000000, 78.000000)">
                <polygon id="Fill-1" fill="#FF0000" points="17.1248472 20.1833333 11.4606699 10.8171111 0 44 12.4992841 23.8998667 18.1801022 33.2874667 29.5483871 0"></polygon>
                <polygon id="Fill-2" fill="#000000" points="44.1290323 19.483871 41.9966656 19.483871 34.1013414 10.5434136 34.1013414 19.483871 32.3870968 19.483871 32.3870968 8.58064516 34.5155662 8.58064516 42.4147876 17.5263851 42.4147876 8.58064516 44.1290323 8.58064516"></polygon>
                <polygon id="Fill-3" fill="#000000" points="57.5483871 19.483871 46.6451613 19.483871 46.6451613 8.58064516 57.1453114 8.58064516 57.1453114 10.20709 48.3712671 10.20709 48.3712671 13.0086133 54.469539 13.0086133 54.469539 14.6344711 48.3712671 14.6344711 48.3712671 17.8574262 57.5483871 17.8574262"></polygon>
                <polygon id="Fill-4" fill="#000000" points="74.3225806 8.58064516 70.8534152 19.483871 68.5788613 19.483871 65.9357691 10.379067 63.2921065 19.483871 61.0472181 19.483871 57.5483871 8.58064516 59.5057472 8.58064516 62.1728 17.7101011 64.8233086 8.58064516 67.0476592 8.58064516 69.7027317 17.7265358 72.3663616 8.58064516"></polygon>
                <path d="M85.9597961,11.2816754 C84.3248822,10.4966745 82.659692,10.1036141 80.9642257,10.1036141 C79.8368831,10.1036141 78.973715,10.2279152 78.3747214,10.4770774 C77.7757279,10.7262396 77.4759343,11.0711473 77.4759343,11.5112405 C77.4759343,11.9709308 77.795912,12.3063199 78.4352738,12.516848 C78.8929785,12.6702647 79.6391974,12.7755287 80.6745242,12.8332 C82.1978318,12.9283855 83.2028824,13.0050939 83.6902696,13.0633251 C85.0711011,13.235219 86.0915866,13.5560503 86.7517262,14.0252591 C87.4118657,14.4944679 87.7419355,15.1602069 87.7419355,16.0224761 C87.7419355,17.123829 87.2242721,17.9760197 86.1883517,18.5790482 C85.1530249,19.1826367 83.6653363,19.483871 81.7252859,19.483871 C78.912569,19.483871 76.7243726,18.8998796 75.1612903,17.7318968 L76.1663409,16.4816065 C77.8920834,17.4776953 79.7502101,17.9760197 81.7413144,17.9760197 C83.0301301,17.9760197 84.0304314,17.8086051 84.7410313,17.473216 C85.4219486,17.1479054 85.7621105,16.7027729 85.7621105,16.1372587 C85.7621105,15.475999 85.3150915,15.0359058 84.4216472,14.8158592 C83.9544442,14.7005167 82.6953111,14.5812548 80.644248,14.4563937 C78.825896,14.3416111 77.5525153,14.111486 76.8211376,13.7665784 C75.9680616,13.3645594 75.5418204,12.6893018 75.5418204,11.7408057 C75.5418204,10.7643139 76.026833,9.99331084 76.9962646,9.42835655 C77.9656961,8.86340226 79.3340609,8.58064516 81.1007654,8.58064516 C83.477149,8.58064516 85.4670661,9.09352735 87.0717039,10.1181719 L85.9597961,11.2816754 Z" id="Fill-5" fill="#000000"></path>
                <polygon id="Fill-7" fill="#000000" points="39.0967742 26.1425738 34.0935024 26.1425738 34.0935024 35.4193548 32.3581105 35.4193548 32.3581105 26.1425738 27.3548387 26.1425738 27.3548387 24.516129 39.0967742 24.516129"></polygon>
                <path d="M47.8444556,29.6364252 C49.1689352,29.6364252 49.8322899,29.0747421 49.8322899,27.950202 C49.8322899,26.7452538 49.1170932,26.1430732 47.6878147,26.1430732 L41.6518445,26.1430732 L41.6518445,29.6364252 L47.8444556,29.6364252 Z M51.6774194,35.4193548 L49.680666,35.4193548 L46.8789679,31.2627825 L41.6518445,31.2627825 L41.6518445,35.4193548 L39.9354839,35.4193548 L39.9354839,24.516129 L48.1025508,24.516129 C49.1890031,24.516129 50.0424451,24.8254362 50.661762,25.4422899 C51.2816363,26.0597305 51.5915735,26.8955055 51.5915735,27.950202 C51.5915735,28.8734283 51.3390527,29.6164699 50.8340112,30.1787399 C50.3657609,30.7005124 49.7224741,31.0321226 48.9024785,31.1723967 L51.6774194,35.4193548 Z" id="Fill-9" fill="#000000"></path>
                <path d="M62.7798151,31.3529493 L60.0813424,26.0703787 L57.3492172,31.3529493 L62.7798151,31.3529493 Z M66.7741935,35.4193548 L64.8537206,35.4193548 L63.6325348,32.9793942 L56.4959271,32.9793942 L55.2753117,35.4193548 L53.3548387,35.4193548 L58.9594029,24.516129 L61.1696294,24.516129 L66.7741935,35.4193548 Z" id="Fill-11" fill="#000000"></path>
                <path d="M79.3548387,26.5553213 L77.6949327,27.1526217 C76.5776426,25.9586176 75.0139113,25.3613172 73.003739,25.3613172 C71.4797838,25.3613172 70.2390099,25.7545449 69.2790428,26.5404037 C68.3196694,27.3262625 67.8399826,28.3263379 67.8399826,29.5412267 C67.8399826,30.7960945 68.3143263,31.8092974 69.264201,32.5802386 C70.2134821,33.3505831 71.4958129,33.735457 73.1100062,33.735457 C75.059624,33.735457 76.593078,33.1286093 77.7097745,31.9137206 L79.2788487,32.7861014 C78.4868907,33.7151691 77.5904465,34.3864607 76.5907033,34.7993797 C75.5897729,35.2134921 74.3947118,35.4193548 73.003739,35.4193548 C71.0541212,35.4193548 69.4339911,34.9294611 68.1445362,33.9502703 C66.6722304,32.8278707 65.9354839,31.3575927 65.9354839,29.5412267 C65.9354839,27.7552925 66.6823229,26.2951585 68.1748135,25.1626149 C69.4743608,24.1726834 71.0838048,23.6774194 73.003739,23.6774194 C75.7654997,23.6774194 77.8825329,24.6369189 79.3548387,26.5553213" id="Fill-13" fill="#000000"></path>
                <polygon id="Fill-15" fill="#000000" points="93.6129032 35.4193548 91.3024822 35.4193548 86.1113316 29.6895265 82.8295765 32.1118787 82.8295765 35.4193548 81.0322581 35.4193548 81.0322581 24.516129 82.8295765 24.516129 82.8295765 30.163784 90.4222106 24.516129 93.0169103 24.516129 87.4714329 28.6412298"></polygon>
                <polygon id="Fill-17" fill="#000000" points="105.354839 35.4193548 94.4516129 35.4193548 94.4516129 24.516129 104.951742 24.516129 104.951742 26.1425738 96.1778075 26.1425738 96.1778075 28.9440971 102.276393 28.9440971 102.276393 30.569955 96.1778075 30.569955 96.1778075 33.79291 105.354839 33.79291"></polygon>
                <path d="M114.94123,29.6364252 C116.266267,29.6364252 116.929064,29.0747421 116.929064,27.950202 C116.929064,26.7452538 116.213867,26.1430732 114.784031,26.1430732 L108.748619,26.1430732 L108.748619,29.6364252 L114.94123,29.6364252 Z M118.774194,35.4193548 L116.77744,35.4193548 L113.975185,31.2627825 L108.748619,31.2627825 L108.748619,35.4193548 L107.032258,35.4193548 L107.032258,24.516129 L115.198768,24.516129 C116.28522,24.516129 117.138662,24.8254362 117.758536,25.4422899 C118.37841,26.0597305 118.688348,26.8955055 118.688348,27.950202 C118.688348,28.8734283 118.435827,29.6164699 117.930228,30.1787399 C117.462535,30.7005124 116.819248,31.0321226 115.999253,31.1723967 L118.774194,35.4193548 Z" id="Fill-19" fill="#000000"></path>
            </g>
        </g>
    </g>
</svg>