<svg width="1020" height="254" viewBox="0 0 1020 254" fill="none" xmlns="http://www.w3.org/2000/svg">
<path d="M33.7048 208V210H35.7048V208H33.7048ZM2.02475 208H0.0247498V210H2.02475V208ZM2.02475 6.39999V4.39999H0.0247498V6.39999H2.02475ZM33.7048 6.39999H35.7048V4.39999H33.7048V6.39999ZM33.7048 88.768H31.7048V93.5845L35.1165 90.1847L33.7048 88.768ZM116.361 6.39999V4.39999H115.534L114.949 4.98331L116.361 6.39999ZM156.969 6.39999L158.374 7.82296L161.84 4.39999H156.969V6.39999ZM63.6568 98.56L62.2513 97.137L60.8271 98.5437L62.2351 99.9667L63.6568 98.56ZM171.945 208V210H176.737L173.366 206.593L171.945 208ZM128.745 208L127.318 209.401L127.906 210H128.745V208ZM33.7048 111.232L35.1317 109.831L31.7048 106.341V111.232H33.7048ZM33.7048 206H2.02475V210H33.7048V206ZM4.02475 208V6.39999H0.0247498V208H4.02475ZM2.02475 8.39999H33.7048V4.39999H2.02475V8.39999ZM31.7048 6.39999V88.768H35.7048V6.39999H31.7048ZM35.1165 90.1847L117.772 7.81667L114.949 4.98331L32.293 87.3513L35.1165 90.1847ZM116.361 8.39999H156.969V4.39999H116.361V8.39999ZM155.563 4.97701L62.2513 97.137L65.0622 99.983L158.374 7.82296L155.563 4.97701ZM62.2351 99.9667L170.523 209.407L173.366 206.593L65.0784 97.1533L62.2351 99.9667ZM171.945 206H128.745V210H171.945V206ZM130.172 206.599L35.1317 109.831L32.2779 112.633L127.318 209.401L130.172 206.599ZM31.7048 111.232V208H35.7048V111.232H31.7048ZM213.313 208V210H214.629L215.15 208.792L213.313 208ZM179.617 208L177.783 207.203L176.567 210H179.617V208ZM267.745 5.24799V3.24799H266.434L265.911 4.45072L267.745 5.24799ZM298.273 5.24799L300.107 4.45072L299.585 3.24799H298.273V5.24799ZM386.401 208V210H389.451L388.235 207.203L386.401 208ZM352.417 208L350.584 208.801L351.108 210H352.417V208ZM330.529 157.888L332.362 157.087L331.838 155.888H330.529V157.888ZM234.913 157.888V155.888H233.597L233.077 157.096L234.913 157.888ZM282.721 45.28L284.555 44.4816L282.721 40.2698L280.888 44.4816L282.721 45.28ZM245.857 129.952L244.023 129.154L242.805 131.952H245.857V129.952ZM319.585 129.952V131.952H322.637L321.419 129.154L319.585 129.952ZM213.313 206H179.617V210H213.313V206ZM181.451 208.797L269.579 6.04524L265.911 4.45072L177.783 207.203L181.451 208.797ZM267.745 7.24799H298.273V3.24799H267.745V7.24799ZM296.439 6.04524L384.567 208.797L388.235 207.203L300.107 4.45072L296.439 6.04524ZM386.401 206H352.417V210H386.401V206ZM354.25 207.199L332.362 157.087L328.696 158.689L350.584 208.801L354.25 207.199ZM330.529 155.888H234.913V159.888H330.529V155.888ZM233.077 157.096L211.477 207.208L215.15 208.792L236.75 158.68L233.077 157.096ZM280.888 44.4816L244.023 129.154L247.691 130.75L284.555 46.0784L280.888 44.4816ZM245.857 131.952H319.585V127.952H245.857V131.952ZM321.419 129.154L284.555 44.4816L280.888 46.0784L317.752 130.75L321.419 129.154ZM449.392 208V210H451.392V208H449.392ZM417.712 208H415.712V210H417.712V208ZM417.712 6.39999V4.39999H415.712V6.39999H417.712ZM553.648 22.816L552.283 24.2773L552.307 24.3004L552.333 24.3226L553.648 22.816ZM553.648 108.064L552.281 106.604L552.276 106.609L552.27 106.615L553.648 108.064ZM449.392 124.768V122.768H447.392V124.768H449.392ZM449.392 35.488V33.488H447.392V35.488H449.392ZM449.392 95.68H447.392V97.68H449.392V95.68ZM529.744 87.904L530.966 89.4876L530.98 89.4768L530.994 89.4657L529.744 87.904ZM529.744 43.264L528.5 44.8302L528.512 44.839L528.523 44.8476L529.744 43.264ZM449.392 206H417.712V210H449.392V206ZM419.712 208V6.39999H415.712V208H419.712ZM417.712 8.39999H504.4V4.39999H417.712V8.39999ZM504.4 8.39999C525.179 8.39999 541.047 13.7779 552.283 24.2773L555.014 21.3547C542.826 9.96612 525.862 4.39999 504.4 4.39999V8.39999ZM552.333 24.3226C563.952 34.4667 569.792 47.9122 569.792 64.864H573.792C573.792 46.8718 567.536 32.2853 554.964 21.3094L552.333 24.3226ZM569.792 64.864C569.792 81.8166 563.949 95.6768 552.281 106.604L555.015 109.524C567.539 97.7952 573.792 82.8554 573.792 64.864H569.792ZM552.27 106.615C541.033 117.299 525.17 122.768 504.4 122.768V126.768C525.871 126.768 542.84 121.101 555.026 109.513L552.27 106.615ZM504.4 122.768H449.392V126.768H504.4V122.768ZM447.392 124.768V208H451.392V124.768H447.392ZM447.392 35.488V95.68H451.392V35.488H447.392ZM449.392 97.68H501.808V93.68H449.392V97.68ZM501.808 97.68C513.98 97.68 523.779 95.0315 530.966 89.4876L528.523 86.3204C522.269 91.1445 513.444 93.68 501.808 93.68V97.68ZM530.994 89.4657C538.247 83.663 541.824 75.5678 541.824 65.44H537.824C537.824 74.5122 534.681 81.393 528.495 86.3423L530.994 89.4657ZM541.824 65.44C541.824 55.3126 538.246 47.2963 530.966 41.6804L528.523 44.8476C534.683 49.5997 537.824 56.3674 537.824 65.44H541.824ZM530.988 41.6978C523.978 36.1307 514.158 33.488 501.808 33.488V37.488C513.65 37.488 522.455 40.0293 528.5 44.8302L530.988 41.6978ZM501.808 33.488H449.392V37.488H501.808V33.488ZM601.859 251.2V253.2H603.859V251.2H601.859ZM571.907 251.2H569.907V253.2H571.907V251.2ZM571.907 178.912V176.912H569.907V178.912H571.907ZM591.203 178.912V180.912H592.277L592.87 180.017L591.203 178.912ZM614.531 122.752L616.479 123.204L616.482 123.193L614.531 122.752ZM622.019 6.39999V4.39999H620.019V6.39999H622.019ZM755.363 6.39999H757.363V4.39999H755.363V6.39999ZM755.363 178.912H753.363V180.912H755.363V178.912ZM784.451 178.912H786.451V176.912H784.451V178.912ZM784.451 251.2V253.2H786.451V251.2H784.451ZM754.499 251.2H752.499V253.2H754.499V251.2ZM754.499 208H756.499V206H754.499V208ZM601.859 208V206H599.859V208H601.859ZM625.763 178.912L624.062 177.859L622.173 180.912H625.763V178.912ZM723.683 178.912V180.912H725.683V178.912H723.683ZM723.683 35.488H725.683V33.488H723.683V35.488ZM652.835 35.488V33.488H650.835V35.488H652.835ZM646.787 120.16L644.817 119.812L644.817 119.815L646.787 120.16ZM601.859 249.2H571.907V253.2H601.859V249.2ZM573.907 251.2V178.912H569.907V251.2H573.907ZM571.907 180.912H591.203V176.912H571.907V180.912ZM592.87 180.017C603.581 163.854 611.441 144.905 616.479 123.204L612.583 122.3C607.637 143.607 599.945 162.098 589.536 177.807L592.87 180.017ZM616.482 123.193C621.52 100.907 624.019 71.2682 624.019 34.336H620.019C620.019 71.1318 617.526 100.437 612.58 122.311L616.482 123.193ZM624.019 34.336V6.39999H620.019V34.336H624.019ZM622.019 8.39999H755.363V4.39999H622.019V8.39999ZM753.363 6.39999V178.912H757.363V6.39999H753.363ZM755.363 180.912H784.451V176.912H755.363V180.912ZM782.451 178.912V251.2H786.451V178.912H782.451ZM784.451 249.2H754.499V253.2H784.451V249.2ZM756.499 251.2V208H752.499V251.2H756.499ZM754.499 206H601.859V210H754.499V206ZM599.859 208V251.2H603.859V208H599.859ZM625.763 180.912H723.683V176.912H625.763V180.912ZM725.683 178.912V35.488H721.683V178.912H725.683ZM723.683 33.488H652.835V37.488H723.683V33.488ZM650.835 35.488C650.835 69.0183 648.822 97.1176 644.817 119.812L648.757 120.508C652.816 97.5064 654.835 69.1577 654.835 35.488H650.835ZM644.817 119.815C640.819 142.661 633.885 161.992 624.062 177.859L627.464 179.965C637.609 163.576 644.691 143.739 648.757 120.505L644.817 119.815ZM863.998 160.768L862.545 162.142L862.549 162.148L862.554 162.153L863.998 160.768ZM964.222 160.768L965.665 162.153L965.674 162.143L965.683 162.133L964.222 160.768ZM964.222 53.92L962.769 55.295L962.778 55.3046L964.222 53.92ZM863.998 53.92L865.441 55.3043L865.45 55.2949L863.998 53.92ZM987.838 181.792L989.265 183.192L989.272 183.186L987.838 181.792ZM840.381 181.792L838.934 183.172L838.943 183.182L838.954 183.192L840.381 181.792ZM840.381 32.896L838.947 31.5024L838.947 31.5026L840.381 32.896ZM987.838 32.896L986.403 34.2896L986.41 34.2964L987.838 32.896ZM862.554 162.153C876.565 176.756 893.791 184.08 914.109 184.08V180.08C894.876 180.08 878.694 173.196 865.441 159.383L862.554 162.153ZM914.109 184.08C934.428 184.08 951.654 176.756 965.665 162.153L962.778 159.383C949.525 173.196 933.343 180.08 914.109 180.08V184.08ZM965.683 162.133C979.682 147.148 986.67 128.795 986.67 107.2H982.67C982.67 127.845 976.025 145.204 962.76 159.403L965.683 162.133ZM986.67 107.2C986.67 85.4185 979.685 67.1481 965.665 52.5353L962.778 55.3046C976.022 69.1079 982.67 86.3575 982.67 107.2H986.67ZM965.674 52.545C951.665 37.7473 934.437 30.32 914.109 30.32V34.32C933.334 34.32 949.514 41.2927 962.769 55.2949L965.674 52.545ZM914.109 30.32C893.782 30.32 876.554 37.7473 862.545 52.545L865.45 55.2949C878.705 41.2927 894.885 34.32 914.109 34.32V30.32ZM862.554 52.5358C848.717 66.9655 841.838 85.2404 841.838 107.2H845.838C845.838 86.1516 852.398 68.9065 865.441 55.3042L862.554 52.5358ZM841.838 107.2C841.838 129.16 848.717 147.525 862.545 162.142L865.45 159.394C852.398 145.595 845.838 128.248 845.838 107.2H841.838ZM986.41 180.392C967.225 199.952 943.175 209.744 914.109 209.744V213.744C944.18 213.744 969.282 203.568 989.265 183.192L986.41 180.392ZM914.109 209.744C885.044 209.744 860.994 199.952 841.809 180.392L838.954 183.192C858.937 203.568 884.039 213.744 914.109 213.744V209.744ZM841.829 180.412C822.809 160.45 813.293 136.088 813.293 107.2H809.294C809.294 137.064 819.17 162.43 838.934 183.172L841.829 180.412ZM813.293 107.2C813.293 78.1165 822.811 53.8592 841.816 34.2894L838.947 31.5026C819.168 51.8688 809.294 77.1475 809.294 107.2H813.293ZM841.816 34.2896C861.002 14.5392 885.051 4.65598 914.109 4.65598V0.655983C884.032 0.655983 858.929 10.9328 838.947 31.5024L841.816 34.2896ZM914.109 4.65598C943.168 4.65598 967.217 14.5392 986.403 34.2896L989.272 31.5024C969.29 10.9328 944.187 0.655983 914.109 0.655983V4.65598ZM986.41 34.2964C1005.6 53.8675 1015.21 78.1225 1015.21 107.2H1019.21C1019.21 77.1414 1009.24 51.8605 989.265 31.4956L986.41 34.2964ZM1015.21 107.2C1015.21 136.278 1005.6 160.633 986.403 180.398L989.272 183.186C1009.24 162.631 1019.21 137.258 1019.21 107.2H1015.21Z" fill="black" fill-opacity="0.2"/>
</svg>
