<?xml version="1.0" encoding="UTF-8" standalone="yes"?>
<!-- Created with sK1/UniConvertor (http://sk1project.org/) -->
<svg xmlns="http://www.w3.org/2000/svg" xmlns:xlink="http://www.w3.org/1999/xlink"
  width="595.276pt" height="841.89pt" viewBox="0 0 595.276 841.89"
  fill-rule="evenodd">
<g>
<path style="stroke:none; fill:#2c2c2b" d="M 562.433 690.675L 278.968 690.675L 278.968 407.21L 562.433 407.21L 562.433 690.675z"/>
<path style="stroke:none; fill:#adcd5c" d="M 364.91 619.846C 364.789 620.155 364.747 620.477 364.787 620.812C 364.827 621.148 364.865 621.473 364.902 621.783C 364.889 622.058 364.831 622.336 364.729 622.62C 364.522 622.577 364.349 622.565 364.216 622.58C 364.058 622.598 363.903 622.668 363.747 622.788C 363.592 622.908 363.468 622.974 363.38 622.984C 363.245 623 363.059 622.967 362.823 622.881L 361.103 620.705C 361.205 621.373 361.397 621.95 361.683 622.439C 361.825 622.693 361.969 622.947 362.114 623.204C 361.21 623.423 360.698 623.484 360.572 623.386L 360.369 623.682L 359.778 623.004C 359.39 623.55 359.346 624.314 359.643 625.298C 359.996 626.366 360.067 627.15 359.853 627.651C 360.227 628.129 360.649 628.34 361.118 628.284C 361.318 628.261 361.491 628.172 361.632 628.019C 361.815 627.454 361.995 626.889 362.178 626.323C 362.459 625.632 362.801 625.264 363.202 625.216C 363.515 625.179 363.895 625.315 364.338 625.625C 364.853 625.768 365.128 625.985 365.164 626.274C 365.185 626.453 365.089 626.753 364.88 627.174C 364.668 627.598 364.576 627.919 364.603 628.144C 364.614 628.233 364.634 628.309 364.666 628.373C 364.356 628.637 364.089 629.02 363.866 629.522C 363.643 630.025 363.328 630.38 362.922 630.586C 362.581 630.967 362.256 631.175 361.941 631.212C 361.696 631.24 361.315 631.077 360.797 630.719C 360.276 630.361 359.806 630.208 359.382 630.259C 359.178 629.875 358.709 629.466 357.978 629.03C 357.247 628.597 356.781 628.108 356.581 627.565C 356.585 627.61 356.564 627.432 356.517 627.028C 356.49 626.806 356.383 626.67 356.197 626.625L 356.436 626.359C 356.098 626.376 355.907 626.195 355.862 625.816C 355.857 625.771 355.848 625.68 355.83 625.547C 355.84 625.433 355.841 625.341 355.832 625.274C 355.801 625.006 355.699 624.826 355.531 624.733L 355.392 623.56C 355.319 622.955 355.168 622.531 354.934 622.287C 355.057 620.846 355.181 619.403 355.305 617.959C 355.558 616.275 356.042 615.392 356.757 615.306C 356.868 615.294 356.982 615.303 357.101 615.333C 357.698 614.65 358.455 614.254 359.372 614.146C 360.379 614.026 361.515 614.254 362.785 614.828C 363.848 616.334 364.556 618.006 364.91 619.846zM 360.02 616.449L 359.818 616.745C 359.663 616.786 359.474 616.718 359.249 616.541L 359.341 617.311C 359.025 617.71 358.925 618.302 359.039 619.08C 359.199 620.422 359.275 621.069 359.272 621.025L 360.281 620.939C 360.743 620.635 360.939 620.169 360.863 619.544C 360.826 619.232 360.681 618.721 360.427 618.015C 360.173 617.309 360.037 616.787 360.02 616.449zM 377.792 622.975L 378.228 628.938C 378.006 629.169 377.634 629.281 377.113 629.275C 376.545 629.275 376.188 629.317 376.04 629.402L 375.844 629.188C 375.752 629.382 375.651 629.482 375.541 629.496C 375.474 629.504 375.355 629.462 375.185 629.368C 375.017 629.275 374.876 629.234 374.764 629.248C 374.674 629.26 374.598 629.291 374.536 629.343L 373.63 623.706L 374.307 623.115L 373.548 622.73C 373.589 622.884 373.44 621.541 373.103 618.703C 372.916 617.116 372.482 615.865 371.809 614.947C 371.375 615.701 371.197 616.635 371.274 617.747C 371.348 618.86 371.449 619.943 371.573 620.992L 371.333 621.259C 371.473 621.287 371.591 621.512 371.685 621.93L 371.448 622.232C 371.568 622.284 371.685 622.51 371.8 622.902L 372.089 625.623C 371.944 625.935 371.894 626.27 371.938 626.627C 371.964 626.85 372.054 627.185 372.208 627.63C 372.365 628.076 372.454 628.412 372.481 628.636C 372.521 628.971 372.468 629.294 372.324 629.607C 372.301 629.609 371.832 629.664 370.916 629.773C 370.224 629.856 369.71 629.826 369.376 629.684C 369.225 629.361 369.127 629.023 369.085 628.664C 369.035 628.24 369.07 627.641 369.195 626.867C 369.318 626.094 369.359 625.538 369.32 625.203C 369.243 624.555 368.919 624.016 368.346 623.586C 368.763 622.516 368.897 621.344 368.745 620.07C 368.716 619.824 368.674 619.569 368.619 619.304C 369.066 619.25 369.324 618.937 369.392 618.361C 369.515 617.485 369.585 617.025 369.603 616.978L 368.684 613.823C 369.084 613.571 369.474 613.422 369.853 613.377C 370.368 613.318 370.735 613.454 370.957 613.79C 370.962 613.836 370.987 614.059 371.036 614.461C 371.047 614.732 371.147 614.912 371.34 615.003C 371.85 614.15 372.618 613.458 373.643 612.928C 374.13 613.028 374.617 613.118 375.102 613.196C 375.645 613.382 376.011 613.7 376.201 614.154C 376.334 615.273 376.468 616.4 376.603 617.54C 376.749 618.769 376.978 619.84 377.29 620.756L 377.385 621.832C 377.447 622.368 377.583 622.749 377.792 622.975zM 390.22 616.841C 390.098 617.15 390.057 617.473 390.097 617.809C 390.136 618.144 390.175 618.467 390.212 618.78C 390.199 619.053 390.14 619.333 390.038 619.617C 389.83 619.572 389.657 619.56 389.523 619.576C 389.367 619.595 389.213 619.663 389.057 619.784C 388.899 619.905 388.777 619.97 388.689 619.98C 388.554 619.997 388.368 619.963 388.134 619.877L 386.412 617.701C 386.514 618.369 386.707 618.947 386.992 619.434C 387.136 619.69 387.278 619.944 387.424 620.198C 386.52 620.42 386.007 620.481 385.881 620.382L 385.678 620.678L 385.087 620C 384.699 620.545 384.653 621.309 384.952 622.294C 385.306 623.363 385.377 624.148 385.164 624.649C 385.537 625.126 385.958 625.336 386.428 625.28C 386.629 625.256 386.801 625.167 386.94 625.016C 387.123 624.449 387.305 623.885 387.487 623.319C 387.768 622.629 388.109 622.259 388.512 622.211C 388.824 622.175 389.204 622.311 389.647 622.62C 390.162 622.764 390.439 622.98 390.473 623.271C 390.493 623.449 390.398 623.75 390.189 624.17C 389.978 624.592 389.886 624.916 389.912 625.138C 389.923 625.228 389.943 625.305 389.975 625.368C 389.666 625.632 389.398 626.016 389.176 626.518C 388.951 627.02 388.637 627.375 388.23 627.581C 387.89 627.962 387.565 628.171 387.251 628.208C 387.005 628.237 386.623 628.074 386.105 627.716C 385.586 627.358 385.115 627.203 384.691 627.254C 384.486 626.87 384.019 626.461 383.287 626.027C 382.556 625.592 382.089 625.106 381.889 624.562C 381.894 624.607 381.873 624.427 381.825 624.025C 381.799 623.802 381.691 623.667 381.506 623.62L 381.746 623.354C 381.408 623.373 381.216 623.191 381.172 622.81C 381.167 622.767 381.155 622.677 381.139 622.542C 381.148 622.428 381.149 622.337 381.142 622.271C 381.109 622.002 381.009 621.821 380.84 621.729L 380.701 620.555C 380.629 619.952 380.477 619.527 380.243 619.284C 380.365 617.84 380.49 616.399 380.612 614.957C 380.867 613.273 381.351 612.387 382.065 612.303C 382.176 612.288 382.292 612.298 382.41 612.328C 383.007 611.646 383.766 611.25 384.681 611.142C 385.689 611.023 386.824 611.25 388.095 611.825C 389.157 613.33 389.866 615.003 390.22 616.841zM 385.329 613.444L 385.127 613.74C 384.973 613.78 384.783 613.713 384.558 613.536L 384.649 614.307C 384.335 614.707 384.234 615.297 384.349 616.076C 384.508 617.417 384.585 618.067 384.58 618.021L 385.592 617.935C 386.052 617.63 386.246 617.166 386.172 616.54C 386.137 616.227 385.99 615.719 385.736 615.012C 385.481 614.305 385.346 613.782 385.329 613.444zM 400.868 613.775C 399.482 613.736 398.565 613.754 398.121 613.828C 397.52 614.286 397.226 615.069 397.245 616.177C 397.236 618.015 397.232 618.944 397.234 618.967L 396.97 618.726L 396.488 619.26C 396.597 619.405 396.863 619.453 397.287 619.402C 397.517 619.806 397.664 620.286 397.73 620.846C 397.8 621.426 397.769 621.928 397.637 622.353C 397.271 622.69 396.891 623.029 396.501 623.371C 396.111 623.711 395.692 623.908 395.245 623.962C 395.044 623.986 394.817 623.99 394.567 623.975C 394.561 623.929 394.507 623.472 394.404 622.601C 394.335 622.019 394.192 621.582 393.977 621.291L 395.166 620.435C 395.056 620.269 394.788 620.209 394.363 620.26L 392.582 611.258C 393.21 610.821 393.938 610.655 394.767 610.761C 394.857 610.568 395.036 610.456 395.305 610.424C 395.706 610.377 395.918 610.353 395.94 610.35C 396.295 610.466 396.488 610.658 396.521 610.927C 396.532 611.039 396.514 611.211 396.463 611.443C 396.41 611.676 396.389 611.837 396.4 611.926C 396.433 612.194 396.613 612.389 396.945 612.508C 397.364 611.847 397.795 611.172 398.234 610.484C 398.823 609.713 399.524 609.324 400.34 609.317L 400.868 613.775zM 397.608 624.395C 397.88 624.975 398.049 625.533 398.113 626.068C 398.188 626.695 398.076 627.195 397.78 627.57C 397.529 627.554 397.3 627.338 397.092 626.921C 396.884 626.504 396.641 626.277 396.366 626.243C 396.285 626.524 396.193 626.796 396.088 627.057C 395.988 627.363 395.795 627.545 395.507 627.602C 395.308 627.443 395.186 627.197 395.147 626.863C 395.078 626.282 395.043 625.98 395.04 625.958C 395.133 625.97 395.223 625.97 395.312 625.96C 395.625 625.922 395.962 625.66 396.325 625.176C 396.686 624.692 397.012 624.433 397.304 624.398C 397.392 624.387 397.493 624.387 397.608 624.395zM 415.075 608.01L 414.305 608.102C 414.358 607.982 414.259 607.823 414.008 607.626C 413.711 607.981 413.586 608.357 413.633 608.759C 413.612 608.58 413.747 609.041 414.035 610.14C 414.125 610.514 414.192 610.88 414.234 611.236C 414.406 612.691 414.142 614.093 413.442 615.443C 412.717 616.211 411.739 616.667 410.511 616.813C 410.286 616.839 410.073 616.854 409.869 616.855C 409.853 616.335 410.06 615.598 410.489 614.64C 410.919 613.683 411.104 612.936 411.039 612.4C 411.007 612.108 410.914 611.814 410.766 611.513C 410.697 611.702 410.463 611.821 410.06 611.869C 410.012 611.467 409.789 611.073 409.394 610.69C 408.996 610.308 408.784 609.912 408.759 609.508C 408.632 609.569 408.569 609.678 408.576 609.834C 408.585 609.993 408.587 610.151 408.583 610.311L 408.054 609.862C 407.649 610.66 407.51 611.581 407.635 612.632C 407.695 613.147 407.919 614.072 408.304 615.409C 408.629 616.616 408.799 617.571 408.814 618.273C 408.65 618.246 408.522 618.301 408.424 618.437C 408.327 618.573 408.23 618.704 408.133 618.828C 408.235 619.699 408.79 620.075 409.796 619.957C 409.862 619.949 409.958 619.938 410.08 619.924C 410.203 619.907 410.287 619.899 410.331 619.893C 411.113 619.8 411.621 619.956 411.849 620.358C 411.809 620.976 411.77 621.604 411.732 622.243C 411.661 622.977 411.304 623.403 410.661 623.525L 409.537 622.64C 409.392 622.748 409.363 623 409.457 623.397C 409.327 623.458 409.151 623.399 408.927 623.222C 408.93 623.447 408.795 623.845 408.522 624.408C 408.25 624.974 408.128 625.379 408.157 625.625C 408.196 625.96 408.477 626.221 408.997 626.409L 411.713 626.085C 411.716 626.108 411.739 626.298 411.78 626.656C 411.808 626.879 411.915 627.026 412.104 627.094C 412.404 626.944 412.527 626.636 412.472 626.166C 412.46 626.077 412.444 625.943 412.423 625.764C 412.379 625.588 412.353 625.466 412.346 625.4C 412.295 624.975 412.459 624.739 412.84 624.695C 412.975 624.68 413.133 624.682 413.316 624.706C 413.472 624.484 413.524 624.16 413.474 623.735C 413.397 623.088 413.355 622.74 413.352 622.696C 412.974 622.378 412.755 621.975 412.697 621.482C 412.662 621.193 412.688 620.741 412.774 620.13C 412.859 619.521 412.887 619.068 412.851 618.779L 413.59 618.691C 414.078 618.996 414.579 619.299 415.091 619.601C 415.68 619.984 416.09 620.383 416.321 620.797C 416.55 621.212 416.694 621.654 416.75 622.123C 416.84 622.883 416.707 623.861 416.351 625.06C 415.673 626.046 414.928 626.724 414.11 627.094C 414.038 627.056 413.956 627.044 413.868 627.055C 413.733 627.07 413.524 627.163 413.239 627.333C 412.952 627.503 412.721 627.599 412.541 627.62C 412.43 627.632 412.315 627.624 412.197 627.592C 412.202 627.433 412.091 627.266 411.865 627.088C 411.676 627.2 411.548 627.505 411.482 628C 411.415 628.495 411.248 628.759 410.98 628.79C 410.868 628.804 410.719 628.789 410.533 628.741C 410.511 628.744 410.164 628.786 409.492 628.865C 408.959 628.951 408.57 628.917 408.326 628.765C 406.407 628.45 405.287 627.518 404.969 625.969C 404.968 625.199 405.368 624.472 406.171 623.787C 406.288 623.818 406.458 623.73 406.684 623.522C 406.626 623.234 406.338 622.764 405.819 622.112C 405.3 621.46 405.015 620.922 404.964 620.497C 404.922 620.14 404.993 619.779 405.176 619.417C 405.889 618.926 406.196 618.276 406.102 617.472C 406.045 617.003 405.857 616.561 405.536 616.146C 404.957 615.851 404.609 615.214 404.493 614.229C 404.46 613.961 404.468 613.066 404.515 611.542C 404.681 610.842 405.034 610.189 405.571 609.58C 406.112 608.972 406.711 608.583 407.372 608.413L 407.668 608.618C 407.826 608.622 408.11 608.571 408.517 608.465C 408.924 608.361 409.227 608.296 409.428 608.273C 410.189 608.182 410.693 608.429 410.944 609.01C 410.95 609.056 410.981 609.324 411.039 609.815C 411.056 610.13 411.158 610.344 411.353 610.457C 411.685 610.192 411.802 609.748 411.705 609.124C 411.595 608.389 411.618 607.91 411.772 607.689C 412.086 606.699 413.07 605.823 414.725 605.06C 414.929 605.264 415.049 605.498 415.081 605.767C 415.102 605.944 415.078 606.232 415.012 606.624C 414.946 607.017 414.926 607.325 414.952 607.55C 414.971 607.705 415.011 607.859 415.075 608.01zM 427.732 607.256L 427.762 607.219C 427.752 607.333 427.515 609.05 427.046 612.368C 426.752 614.466 426.574 616.221 426.516 617.632C 426.292 618.225 426.125 619.157 426.016 620.429C 425.906 621.7 425.727 622.633 425.481 623.229C 425.673 624.089 425.59 624.966 425.232 625.858C 424.873 626.75 424.353 627.464 423.669 627.999C 423.571 627.964 423.48 627.952 423.392 627.963C 423.257 627.979 423.046 628.056 422.756 628.193C 422.465 628.328 422.243 628.407 422.086 628.425C 421.886 628.449 421.699 628.402 421.526 628.288C 420.631 628.394 419.975 628.392 419.554 628.283C 419.293 627.611 419.135 627.064 419.086 626.64C 419.004 625.946 419.173 625.552 419.592 625.457C 420.083 625.58 420.506 625.62 420.865 625.578C 421.355 625.521 421.795 625.309 422.183 624.946C 422.191 624.83 422.257 624.658 422.377 624.431C 422.497 624.2 422.552 624.04 422.541 623.95C 422.528 623.84 422.435 623.737 422.266 623.644C 422.199 623.086 422.144 622.515 422.097 621.93C 421.984 621.173 421.824 620.592 421.618 620.185C 421.634 620.139 421.69 619.928 421.78 619.554C 421.841 619.298 421.862 619.092 421.844 618.935C 421.807 618.622 421.587 618.399 421.185 618.265C 421.108 617.617 420.865 616.756 420.454 615.683C 420.044 614.61 419.793 613.785 419.702 613.206C 419.649 612.759 419.607 612.312 419.576 611.86C 419.5 611.214 419.363 610.741 419.17 610.448C 419.121 610.228 418.983 609.823 418.755 609.239C 418.558 608.718 418.443 608.324 418.411 608.056C 418.372 607.72 418.417 607.443 418.55 607.224L 421.769 606.841C 421.961 607.318 422.467 609.003 423.286 611.898C 423.273 611.989 423.274 612.091 423.288 612.203C 423.315 612.426 423.407 612.732 423.567 613.121C 423.778 613.571 423.905 613.874 423.946 614.027C 424.194 613.251 424.342 612.111 424.392 610.609C 424.443 608.95 424.534 607.806 424.664 607.178C 424.781 607.21 424.906 607.218 425.04 607.2C 425.218 607.18 425.481 607.104 425.829 606.972C 426.175 606.84 426.44 606.764 426.617 606.742C 427.065 606.69 427.435 606.86 427.732 607.256zM 447.581 599.494L 447.611 599.456C 447.537 601.12 447.779 603.557 448.343 606.765C 448.905 609.974 449.137 612.409 449.04 614.074C 448.935 614.134 448.848 614.165 448.779 614.175C 448.624 614.193 448.465 614.098 448.304 613.891C 448.144 613.683 448.028 613.562 447.955 613.524C 447.611 613.496 447.282 613.581 446.966 613.777C 446.648 613.974 446.343 614.157 446.045 614.329C 446.066 614.325 446.471 614.38 447.253 614.491C 447.715 614.55 448.038 614.704 448.227 614.953C 448.135 615.146 448.102 615.331 448.124 615.51C 448.147 615.71 448.36 616.081 448.766 616.623C 448.803 617.141 448.827 617.919 448.838 618.959C 448.832 619.867 448.859 620.568 448.918 621.059C 448.981 621.595 449.087 622.114 449.238 622.618C 449.022 622.711 448.803 622.772 448.581 622.799C 448.088 622.857 447.615 622.686 447.159 622.286C 446.956 622.108 446.626 621.704 446.166 621.078C 446.15 620.945 446.122 620.808 446.084 620.664C 446.045 620.522 445.952 620.424 445.81 620.373L 445.641 620.665L 445.311 620.466C 445.253 620.745 445.185 621.016 445.102 621.274C 445.025 621.577 444.841 621.758 444.554 621.815L 444.294 621.641C 443.417 621.881 442.577 621.868 441.775 621.601C 440.432 620.219 439.665 618.713 439.471 617.08C 439.415 616.61 439.415 616.135 439.471 615.653L 439.279 615.472C 438.994 612.877 438.87 611.157 438.906 610.314C 439.02 608.421 439.604 606.946 440.658 605.892C 440.86 605.687 441.096 605.568 441.364 605.535C 441.565 605.512 441.857 605.545 442.243 605.635C 442.627 605.726 442.908 605.76 443.088 605.739L 443.979 606.382C 444.236 606.057 444.328 605.591 444.256 604.987C 444.238 604.832 444.174 604.488 444.065 603.958C 443.976 603.583 443.942 603.304 443.967 603.119C 444.113 603.012 444.179 602.901 444.166 602.789C 444.157 602.723 444.077 602.625 443.927 602.495C 443.775 602.365 443.693 602.245 443.679 602.134C 443.67 602.044 443.682 601.963 443.719 601.891L 443.764 599.404C 445.136 599.127 446.408 599.156 447.581 599.494zM 445.44 614.672C 445.165 614.252 444.987 613.73 444.914 613.104C 444.88 612.814 444.857 612.391 444.848 611.836C 444.838 611.283 444.819 610.882 444.789 610.636C 444.751 610.301 444.681 610.003 444.583 609.742C 444.692 609.525 444.735 609.305 444.709 609.082C 444.689 608.903 444.595 608.648 444.43 608.316C 444.266 607.984 444.173 607.719 444.148 607.517C 444.13 607.361 444.135 607.213 444.164 607.073L 443.985 607.57C 443.565 607.665 443.291 607.641 443.16 607.498L 443.311 608.194C 443.159 608.439 443.015 608.558 442.878 608.552C 442.955 608.815 443.009 609.079 443.041 609.349C 443.083 609.705 443.079 610.158 443.031 610.71C 442.978 611.395 442.948 611.829 442.948 612.01C 443.121 612.512 443.243 613.165 443.317 613.972C 443.469 615.246 443.549 615.917 443.557 615.984C 443.815 617.608 444.353 618.677 445.16 619.193L 444.653 617.792C 444.702 617.626 444.936 617.497 445.355 617.402C 445.395 617.149 445.395 616.683 445.36 616.008C 445.292 615.427 445.316 614.983 445.44 614.672zM 459.432 606.824C 458.045 606.785 457.129 606.804 456.685 606.878C 456.082 607.335 455.788 608.118 455.809 609.225C 455.8 611.064 455.796 611.993 455.798 612.016L 455.532 611.775L 455.051 612.308C 455.16 612.453 455.427 612.501 455.851 612.451C 456.079 612.855 456.228 613.336 456.293 613.895C 456.362 614.476 456.331 614.977 456.2 615.4C 455.834 615.739 455.453 616.079 455.065 616.42C 454.673 616.761 454.256 616.958 453.809 617.01C 453.607 617.034 453.381 617.039 453.13 617.024C 453.125 616.978 453.07 616.521 452.967 615.65C 452.897 615.067 452.756 614.632 452.539 614.34L 453.729 613.484C 453.619 613.318 453.352 613.257 452.927 613.308L 451.145 604.306C 451.772 603.87 452.501 603.704 453.33 603.809C 453.42 603.616 453.6 603.505 453.867 603.474C 454.269 603.425 454.48 603.4 454.504 603.398C 454.857 603.516 455.051 603.706 455.083 603.975C 455.096 604.087 455.076 604.26 455.025 604.492C 454.974 604.725 454.952 604.887 454.963 604.975C 454.996 605.243 455.176 605.439 455.508 605.557C 455.928 604.895 456.357 604.222 456.798 603.533C 457.386 602.761 458.088 602.373 458.902 602.365L 459.432 606.824zM 456.172 617.443C 456.443 618.025 456.612 618.581 456.676 619.117C 456.75 619.743 456.639 620.244 456.344 620.619C 456.092 620.604 455.863 620.387 455.655 619.97C 455.447 619.552 455.205 619.326 454.93 619.291C 454.849 619.572 454.757 619.845 454.65 620.106C 454.551 620.412 454.358 620.594 454.07 620.65C 453.87 620.492 453.749 620.246 453.71 619.912C 453.642 619.331 453.605 619.028 453.603 619.006C 453.695 619.019 453.786 619.019 453.876 619.008C 454.189 618.971 454.525 618.71 454.887 618.225C 455.249 617.741 455.574 617.482 455.866 617.446C 455.954 617.436 456.056 617.435 456.172 617.443zM 465.596 600.043C 465.081 600.285 464.498 600.444 463.85 600.523C 462.666 600.661 462.028 600.737 461.939 600.749C 461.953 600.475 461.909 600.107 461.808 599.642C 461.712 599.019 461.656 598.641 461.64 598.506C 461.557 597.815 461.656 597.315 461.938 597.008C 462.067 596.948 462.209 596.908 462.365 596.889C 462.589 596.863 462.955 596.883 463.459 596.946C 463.966 597.011 464.363 597.026 464.655 596.991C 464.834 596.97 465.011 596.928 465.185 596.861C 465.397 597.13 465.525 597.456 465.57 597.835C 465.598 598.059 465.594 598.415 465.562 598.907C 465.53 599.4 465.541 599.776 465.596 600.043zM 467.492 614.299C 467.374 614.652 467.352 615.12 467.422 615.701C 467.441 615.88 467.485 616.157 467.553 616.534C 467.599 616.915 467.631 617.195 467.652 617.373C 467.774 618.401 467.514 619.067 466.868 619.369C 466.779 619.381 466.277 619.44 465.361 619.549C 464.738 619.645 464.247 619.623 463.892 619.485C 464.045 619.24 464.1 618.951 464.06 618.615C 464.018 618.259 463.895 617.979 463.689 617.775C 463.634 615.788 463.443 613.42 463.116 610.67C 462.509 605.733 462.223 603.423 462.261 603.734C 463.421 603.394 464.18 603.201 464.537 603.159C 465.431 603.053 466 603.257 466.242 603.773C 466.026 604.252 466.068 604.943 466.37 605.849C 466.669 606.753 466.715 607.467 466.505 607.99C 466.819 608.361 466.932 608.959 466.837 609.787C 466.742 610.614 466.853 611.202 467.164 611.55C 467.224 611.657 467.258 611.765 467.272 611.877C 467.291 612.033 467.263 612.23 467.189 612.465C 467.115 612.7 467.084 612.874 467.098 612.986C 467.113 613.119 467.194 613.234 467.343 613.331C 467.215 613.413 467.161 613.511 467.174 613.623C 467.183 613.69 467.24 613.798 467.348 613.942C 467.454 614.086 467.503 614.206 467.492 614.299zM 479.664 610.882L 480.101 616.848C 479.877 617.078 479.506 617.19 478.985 617.185C 478.417 617.184 478.06 617.225 477.911 617.313L 477.715 617.096C 477.624 617.289 477.523 617.391 477.412 617.405C 477.345 617.412 477.227 617.37 477.057 617.276C 476.887 617.184 476.747 617.144 476.636 617.156C 476.546 617.167 476.471 617.198 476.407 617.252L 475.5 611.614L 476.18 611.024L 475.42 610.64C 475.46 610.791 475.311 609.45 474.977 606.611C 474.787 605.025 474.354 603.774 473.679 602.856C 473.247 603.61 473.069 604.542 473.146 605.655C 473.22 606.77 473.321 607.851 473.445 608.9L 473.204 609.167C 473.343 609.195 473.461 609.421 473.557 609.838L 473.319 610.14C 473.441 610.193 473.557 610.417 473.672 610.811L 473.962 613.531C 473.816 613.843 473.766 614.177 473.809 614.535C 473.836 614.759 473.926 615.094 474.08 615.539C 474.235 615.986 474.326 616.32 474.353 616.544C 474.392 616.879 474.34 617.203 474.194 617.514C 474.173 617.517 473.703 617.572 472.788 617.681C 472.095 617.764 471.581 617.733 471.248 617.592C 471.097 617.27 470.998 616.931 470.956 616.572C 470.906 616.149 470.942 615.55 471.066 614.775C 471.19 614.001 471.231 613.445 471.192 613.111C 471.114 612.464 470.79 611.925 470.218 611.493C 470.635 610.424 470.769 609.252 470.617 607.979C 470.587 607.733 470.545 607.477 470.49 607.212C 470.938 607.158 471.195 606.845 471.263 606.27C 471.387 605.394 471.457 604.933 471.474 604.886L 470.556 601.731C 470.956 601.48 471.345 601.331 471.726 601.285C 472.24 601.226 472.607 601.363 472.829 601.699C 472.835 601.744 472.861 601.968 472.909 602.37C 472.917 602.641 473.018 602.821 473.211 602.911C 473.721 602.058 474.489 601.365 475.514 600.837C 476.002 600.937 476.488 601.026 476.974 601.106C 477.518 601.29 477.883 601.608 478.072 602.064C 478.205 603.18 478.339 604.308 478.474 605.448C 478.619 606.677 478.85 607.748 479.162 608.664L 479.255 609.74C 479.32 610.276 479.455 610.658 479.664 610.882zM 485.975 596.466L 485.978 596.501C 485.647 597.334 485.534 598.481 485.639 599.94C 485.765 601.761 485.796 602.879 485.731 603.295C 485.599 604.466 485.058 605.358 484.111 605.969C 484.015 606.298 483.919 606.638 483.824 606.987C 483.647 607.395 483.434 607.612 483.189 607.643C 482.986 607.666 482.764 607.591 482.516 607.416C 481.906 603.251 481.705 599.444 481.908 595.998C 481.847 595.484 481.785 594.958 481.722 594.423C 481.637 593.707 481.658 593.138 481.79 592.714C 481.949 592.537 482.185 592.429 482.5 592.394C 482.791 592.358 483.045 592.407 483.265 592.54C 483.288 592.536 483.646 592.494 484.338 592.412C 484.875 592.349 485.264 592.394 485.509 592.544C 485.5 592.661 485.502 592.773 485.517 592.884C 485.556 593.22 485.777 593.652 486.181 594.182C 486.582 594.712 486.8 595.101 486.828 595.345C 486.876 595.748 486.591 596.122 485.975 596.466zM 491.064 599.807L 491.097 599.803C 491.272 600.349 491.106 600.946 490.595 601.596C 490.004 602.346 489.717 602.879 489.731 603.195C 489.473 603.701 489.392 604.334 489.481 605.094C 489.494 605.205 489.515 605.384 489.545 605.63C 489.574 605.876 489.595 606.056 489.609 606.166C 489.712 607.037 489.545 607.738 489.109 608.265C 489.757 608.756 490.214 609.46 490.481 610.38C 490.631 610.884 490.772 611.774 490.901 613.05C 490.361 613.477 490.126 613.969 490.192 614.527C 490.237 614.908 490.426 615.248 490.754 615.549C 490.643 615.561 490.423 615.662 490.094 615.848C 489.764 616.034 489.511 616.137 489.332 616.159C 488.952 616.204 488.647 616.026 488.419 615.622C 488.342 613.841 487.935 612.314 487.194 611.043C 486.975 611.658 486.901 612.483 486.978 613.516C 487.076 614.344 487.175 615.17 487.273 615.996C 487.307 616.671 487.285 617.252 487.208 617.737L 483.46 617.673L 483.272 609.502C 483.686 609.362 484.186 608.896 484.772 608.101C 485.26 607.432 485.82 607.104 486.457 607.117L 486.9 606.556C 486.5 606.241 486.277 605.881 486.23 605.48C 486.183 605.077 486.332 604.539 486.684 603.862C 487.089 603.089 487.31 602.552 487.341 602.254C 487.435 601.519 487.515 601.032 487.577 600.799C 487.738 600.258 487.987 599.866 488.322 599.621C 488.459 599.629 488.828 599.697 489.433 599.83C 489.896 599.91 490.283 599.933 490.599 599.897C 490.752 599.877 490.908 599.848 491.064 599.807z"/>
<path style="stroke:none; fill:#ffffff" d="M 327.491 564.682C 326.676 564.89 327.112 566.101 327.913 565.83C 328.991 565.722 328.372 564.351 327.491 564.682zM 515.401 564.549C 514.902 561.594 514.356 558.643 513.841 555.685C 514.3 555.015 514.722 554.285 514.687 553.458C 514.802 550.161 514.143 546.894 513.504 543.669C 513.153 543.547 512.463 543.312 512.114 543.198C 510.739 539.336 510.899 535.168 511.028 531.132C 510.799 530.993 510.342 530.724 510.108 530.589C 509.673 528.474 509.469 526.303 508.694 524.261C 507.831 522.188 504.978 522.284 503.001 522.407C 500.855 522.433 499.387 524.077 498.574 525.749C 496.625 529.733 496.033 534.115 495.215 538.384C 491.745 549.528 490.968 561.157 489.565 572.637C 489.469 573.864 488.985 575.204 489.745 576.343C 489.761 576.653 489.78 577.282 489.795 577.6L 490.303 577.802C 490.334 578.178 490.414 578.928 490.449 579.308C 490.3 578.96 489.988 578.271 489.83 577.921C 488.96 578.622 489.226 580.047 488.869 581.046L 490.122 580.576L 489.423 581.471C 489.633 581.755 490.04 582.317 490.242 582.601C 490.414 582.595 490.752 582.581 490.921 582.576C 490.61 580.556 490.685 578.466 491.446 576.534C 491.916 575.594 491.689 574.562 491.422 573.603C 492.066 573.309 492.741 573.246 493.434 573.434C 492.826 573.185 492.172 572.98 491.792 572.442C 492.046 571.597 492.137 570.708 492.558 569.914C 492.558 570.653 492.534 571.4 492.479 572.145C 492.777 572.277 493.37 572.547 493.668 572.683C 493.958 571.351 494.222 570.021 494.51 568.69L 493.494 568.655C 493.51 569.155 493.535 570.148 493.554 570.644C 492.962 570.014 492.268 567.638 494.014 568.419C 493.988 568.062 493.947 567.34 493.925 566.983C 494.222 567.245 494.518 567.508 494.815 567.783C 494.899 566.863 494.947 565.917 495.293 565.038C 496.051 564.848 496.73 565.332 497.418 565.545C 497.589 566.9 497.3 568.241 496.894 569.537C 498.596 568.875 500.623 569.546 502.456 569.42C 502.986 572.846 504.355 576.102 505.445 579.408C 506.033 579.539 506.635 579.67 507.23 579.803C 506.839 579.935 506.062 580.198 505.667 580.322C 506.707 581.755 506.91 584.017 508.691 584.786C 508.685 585.057 508.677 585.598 508.671 585.869C 509.24 585.872 509.8 585.775 510.339 585.575L 509.686 585.048L 508.896 585.212C 509.079 585.068 509.441 584.78 509.625 584.635C 509.141 583.496 508.577 582.395 507.941 581.324C 509.715 581.305 509.268 583.818 510.853 584.017C 510.376 580.887 508.236 577.858 508.953 574.632C 509.777 574.523 510.64 574.374 511.422 574.751C 511.881 575.554 511.837 576.484 511.186 577.18C 512.089 576.908 512.025 575.873 512.358 575.18C 511.928 574.803 511.491 574.423 511.062 574.051C 511.637 573.108 512.217 572.087 513.541 572.023C 513.514 574.103 513.442 576.19 513.577 578.257L 514.111 578.679C 513.891 578.891 513.442 579.308 513.218 579.515C 513.613 579.494 514.409 579.448 514.793 579.429C 514.575 579.017 514.36 578.603 514.143 578.196L 514.527 578.009C 514.596 577.706 514.727 577.103 514.798 576.799C 514.738 574.741 514.636 572.403 515.886 570.588C 516.889 569.261 516.696 567.563 516.721 566.026C 516.849 565.216 516.275 564.547 515.401 564.549zM 498.475 560.046C 498.181 556.934 499.194 553.866 500.016 550.885C 500.972 553.47 501.094 556.245 501.48 558.938C 501.537 560.585 499.652 560.706 498.475 560.046zM 329.634 572.415C 328.743 572.802 329.337 574.244 330.216 574.281C 331.042 573.936 330.478 572.412 329.634 572.415zM 365.64 504.051C 365.556 504.88 364.433 504.264 364.569 505.499C 364.716 506.835 366.267 510.571 367.64 512.239C 371.503 516.929 375.399 516.209 378.171 513.973C 379.446 512.94 380.119 515.72 385.606 515.127C 389.643 514.694 392.063 512.919 394.692 511.081C 399.965 513.049 408.125 512.279 412.242 509.923C 413.867 511.888 416.752 512.246 419.882 512.25C 424.615 512.254 429.234 510.807 431.593 509.358C 435.842 512.422 444.666 512.944 449.829 510.695C 453.926 514.963 460.678 515.477 464.903 513.589C 467.451 512.451 468.291 516.265 472.542 515.127C 475.809 514.259 479.105 508.937 479.867 505.638C 480.333 503.625 478.242 505.002 478.749 503.34C 481.363 494.781 481.005 488.925 479.975 481.01C 478.245 483.775 476.117 491.184 473.648 494.216C 473.621 494.378 473.599 494.539 473.575 494.694L 473.575 494.31C 473.599 494.284 473.621 494.249 473.648 494.216C 474.174 490.713 474.699 487.211 475.225 483.711C 476.602 476.078 475.823 460.93 472.955 455.571C 469.343 470.236 462.36 480.002 451.068 487.373C 449.405 483.457 447.495 477.957 445.697 475.806C 442.393 478.696 439.089 481.589 435.782 484.48C 434.89 485.572 433.993 486.666 433.101 487.758C 427.362 484.562 424.56 479.064 421.332 475.23C 421.264 475.1 421.192 474.971 421.122 474.844C 418.558 477.957 415.444 487.129 411.213 487.951C 405.577 480.105 401.865 478.578 398.821 476.192C 397.092 479.889 394.523 483.437 393.661 487.758L 393.456 487.758C 383.035 480.84 373.592 470.321 371.561 455.762L 371.355 455.762C 370.297 461.62 368.612 464.357 368.672 476.384C 368.706 482.871 370.682 489.168 371.149 495.082L 370.945 495.082C 369.27 490.572 365.574 486.472 364.956 481.207L 364.751 481.207C 362.659 486.685 363.638 495.15 364.751 499.707C 365.162 501.401 365.764 502.804 365.64 504.051zM 464.658 522.249C 464.603 523.32 464.882 524.379 466.094 524.747C 465.496 523.157 466.057 521.042 464.76 519.788C 465.111 520.573 465.529 521.605 464.658 522.249zM 493.449 573.441C 493.443 573.438 493.44 573.438 493.434 573.434C 493.44 573.438 493.443 573.441 493.449 573.444L 493.449 573.441zM 390.34 549.456C 390.374 546.613 389.081 544 388.348 541.287C 388.448 540.974 388.659 540.345 388.763 540.032C 386.95 533.996 383.642 528.47 381.137 522.682C 380.588 521.937 382.077 521.088 381.144 520.483C 380.004 520.294 378.839 520.296 377.681 520.282C 375.399 521.208 373.661 523.091 371.243 523.795C 366.735 525.184 364.393 529.541 363.25 533.548C 360.769 542.311 361.376 551.472 361.04 560.446C 361.523 563.306 361.133 566.311 362.27 569.05C 362.63 570.193 362.711 571.39 363.072 572.533C 363.849 572.652 364.001 573.314 364.214 573.89C 364.065 574.145 363.758 574.646 363.607 574.899C 364.001 574.899 364.795 574.891 365.188 574.891C 364.128 576.038 365.492 578.133 367.064 577.848C 367.024 578.22 366.986 578.594 366.941 578.972C 369.942 582.226 375.075 583.757 379.427 582.102C 378.884 581.349 377.872 581.507 377.034 581.482C 378.038 581.023 379.104 580.684 380.161 580.345C 380.238 580.627 380.396 581.185 380.471 581.465C 382.737 580.021 385.184 578.402 386.117 575.873C 386.365 575.748 386.87 575.512 387.114 575.391C 387.393 574.148 389.568 572.835 388.303 571.686C 389.928 569.483 389.833 566.717 390.977 564.329C 391.255 562.711 391.922 561.028 391.419 559.396C 391.066 556.089 391.294 552.692 390.34 549.456zM 371.425 581.054C 370.945 581.591 369.644 580.916 370.17 580.279C 370.656 580.039 371.707 580.46 371.425 581.054zM 375.323 565.007C 373.674 564.615 373.212 562.83 372.681 561.53C 371.662 557.904 371.899 554.103 371.96 550.392C 371.97 546.742 371.741 542.873 373.646 539.549C 373.915 539.509 374.468 539.434 374.74 539.393C 377.144 544.059 377.489 549.33 377.489 554.43C 377.465 558.005 377.664 561.943 375.323 565.007zM 427.351 574.126C 427.502 573.218 428.281 572.246 427.62 571.39C 427.462 572.171 427.227 572.933 426.986 573.698C 427.575 574.826 427.246 576.318 428.341 577.191C 428.312 576.428 428.11 575.684 427.743 575.006C 428.564 574.455 428.261 574.192 427.351 574.126zM 436.123 528.643C 435.951 527.026 436.188 524.418 433.841 524.167C 430.607 524.128 427.167 524.387 424.202 525.689C 422.112 528.322 422.9 532.029 423.221 535.092C 422.16 534.238 420.333 534.452 419.816 535.741C 419.382 538.083 419.711 540.48 419.669 542.84C 419.606 548.566 420.976 554.189 421.499 559.863L 422.126 559.843C 422.008 557.337 422.19 554.839 422.167 552.339C 422.759 554.147 423.087 556.055 422.921 557.947C 422.891 559.396 422.678 561.073 423.838 562.224C 424.853 563.071 423.866 564.304 423.844 565.347C 423.705 565.435 423.44 565.618 423.298 565.709C 423.8 566.446 423.705 567.353 423.86 568.185C 423.705 568.199 423.407 568.233 423.258 568.251C 423.468 569.853 422.927 571.443 422.725 573.024C 421.867 570.261 422.942 567.221 421.658 564.561C 422.104 566.074 421.483 567.612 421.696 569.146C 420.856 568.853 420.906 567.93 420.641 567.27C 419.99 564.43 418.492 561.857 417.48 559.134C 416.366 557.622 415.906 555.849 415.44 554.097C 419.442 548.98 419.252 542.34 418.923 536.307C 418.542 532.139 417.294 527.468 413.487 524.863C 409.988 522.48 405.454 523.417 401.426 523.091C 399.027 523.188 395.618 522.617 394.259 524.97C 393.397 529.191 395.087 533.441 394.567 537.689C 394.152 538.356 393.417 538.955 393.537 539.818C 393.486 546.712 394.066 553.601 394.854 560.454C 395.092 565.472 394.911 570.519 395.432 575.529C 394.772 576.847 394.388 578.603 395.168 579.917C 396.356 580.13 398.015 579.525 397.846 578.178C 397.76 577.276 398.548 576.089 397.651 575.4C 397.66 574.813 397.678 574.232 397.699 573.66C 398.667 573.874 399.65 574.022 400.636 574.138C 400.577 574.777 400.511 575.411 400.446 576.049C 400.671 575.984 401.109 575.849 401.332 575.784C 401.311 576.277 401.285 577.266 401.267 577.757C 403.105 576.899 404.563 575.494 406.393 574.616C 406.935 575.748 406.101 577.042 406.695 578.086C 406.712 577.585 406.75 576.568 406.762 576.062C 407.193 576.54 407.502 577.087 407.71 577.691C 407.588 576.513 408.012 575.308 407.593 574.164C 407.491 574.601 407.289 575.478 407.186 575.918C 406.422 575.337 406.242 574.244 407.298 573.846C 407.468 569.537 406.661 565.201 406.926 560.884C 409.027 565.587 409.507 571.199 413.266 575.154C 414.365 576.194 415.738 574.891 415.783 573.754C 417.134 574.943 418.406 576.206 419.717 577.443C 419.692 577.087 419.645 576.384 419.613 576.025L 419.982 575.649C 418.947 572.738 418.682 569.59 418.286 566.552C 417.693 565.82 417.909 564.868 417.838 564.023C 418.109 564.765 418.358 565.526 418.594 566.279C 419.508 567.03 420.582 568.233 419.227 569.155C 420.462 569.021 421.207 570.399 421.009 571.384C 421.332 573.281 421.088 575.252 421.834 577.087C 421.06 578.807 420.543 580.715 420.969 582.591C 421.639 584.269 424.626 583.233 424.597 581.646C 424.513 580.149 425.627 578.374 424.409 577.107C 424.832 572.351 424.025 567.576 424.591 562.834C 425.416 563.297 426.186 564.073 427.213 563.579L 427.012 564.292L 427.729 564.196C 427.516 565.364 427.182 566.761 428.065 567.767C 428.503 568.251 429.397 569.868 428.009 569.781C 428.11 570.009 428.312 570.457 428.416 570.679C 428.11 570.702 427.502 570.74 427.194 570.763C 427.449 570.8 427.963 570.89 428.217 570.94C 428.388 572.24 428.636 573.534 428.844 574.842C 429.148 574.751 429.772 574.565 430.084 574.473C 430.043 573.603 430.617 572.375 429.827 571.742C 430.64 569.274 429.604 566.459 430.671 564.012C 431.614 563.224 433.685 564.535 434.216 563.041C 433.962 564.916 434.868 566.738 434.624 568.613C 434.479 569.933 434.75 571.243 434.983 572.537C 434.74 572.777 434.26 573.246 434.017 573.481C 434.564 574.145 435.289 574.444 436.195 574.394C 436.508 571.45 436.188 568.451 436.744 565.515C 436.019 563.336 437.152 561.146 436.577 558.973C 436.201 557.137 437.037 555.303 436.7 553.477C 436.39 552.109 436.963 550.754 436.914 549.376C 436.848 545.522 437.086 541.667 437.012 537.81C 436.885 534.898 437.649 532.034 437.699 529.123C 437.171 528.966 436.645 528.805 436.123 528.643zM 407.06 546.423C 406.809 543.739 405.745 540.872 406.947 538.275C 407.915 536.161 412.278 536.35 412.535 538.797C 412.298 541.971 409.973 544.876 407.06 546.423zM 423.93 571.36C 423.135 571.375 423.275 570.104 423.649 569.696C 424.402 569.696 424.318 570.956 423.93 571.36zM 481.366 564.876C 481.002 557.529 481.426 550.167 481.106 542.823C 481.331 539.002 479.404 535.515 478.877 531.791C 478.728 533.502 478.928 535.258 478.302 536.899C 477.958 534.766 477.845 532.612 477.751 530.462L 477.119 530.647L 477.158 529.385L 477.848 529.417C 477.92 528.311 477.717 527.099 478.418 526.117C 478.362 527.675 478.496 529.225 478.885 530.742C 479.005 528.639 480.773 526.223 478.944 524.331C 479.822 523.464 479.969 522.279 479.696 521.145C 478.491 521.077 477.264 521.156 476.207 521.747C 476.1 522.502 475.974 523.265 475.64 523.966C 475.846 524.011 476.252 524.107 476.463 524.151C 476.311 526.334 476.311 528.529 476.423 530.711C 475.49 530.521 474.547 530.402 473.599 530.329C 473.561 530.048 473.484 529.48 473.444 529.191C 472.418 529.297 471.958 528.892 472.082 527.983C 472.734 528.183 473.273 527.891 473.71 527.488C 473.567 527.076 473.27 526.249 473.124 525.835C 473.416 525.881 473.985 525.959 474.274 526.001C 473.832 525.811 473.393 525.624 472.951 525.443C 472.945 524.587 473.17 523.666 472.897 522.838C 472.428 522.176 471.989 521.495 471.831 520.707C 472.006 521.726 471.508 522.629 471.227 523.581C 471.023 523.84 470.631 524.362 470.429 524.622C 470.828 524.364 471.623 523.849 472.02 523.59C 471.995 524.141 471.94 525.242 471.917 525.789C 471.56 525.737 470.872 525.618 470.521 525.564C 470.652 526.777 470.85 527.99 470.798 529.216C 469.84 528.6 469.759 527.272 468.705 526.785C 468.653 527.874 468.643 528.959 468.643 530.048C 467.858 530.24 467.082 530.443 466.304 530.643C 466.483 529.046 465.654 527.393 466.329 525.881L 465.413 526.017L 465.272 525.14C 463.712 526.279 464.915 528.328 464.236 529.872C 464.217 533.354 464.241 536.857 463.957 540.345C 463.42 546.81 463.975 553.281 463.961 559.748C 463.42 561.909 463.014 564.401 463.514 566.546C 465.57 566.701 464.472 564.125 464.853 562.932C 465.1 567.132 464.586 571.354 464.952 575.554C 465.108 576.864 465.554 578.319 466.832 579.049C 468.467 579.875 470.347 579.358 472.091 579.271C 476.185 578.997 480.483 579.423 484.362 577.899C 485.872 577.243 485.987 575.44 486.115 574.092C 486.104 571.642 486.142 569.104 485.279 566.765C 484.69 565.276 482.958 564.637 481.366 564.876zM 472.658 527.169C 471.909 526.525 472.174 524.984 472.277 524.047L 472.496 524.077C 472.876 525.032 472.998 526.195 472.658 527.169zM 472.128 523.072L 472.476 523.114L 472.431 523.443L 472.087 523.403L 472.128 523.072zM 479.52 543.35C 479.199 541.647 478.591 539.951 478.744 538.208C 479.721 539.733 479.58 541.634 479.52 543.35zM 492.846 579.057C 493.905 577.463 493.581 575.259 493.461 573.447C 493.458 573.445 493.456 573.444 493.449 573.444C 493.425 574.341 493.299 575.251 492.729 576.009C 492.714 577.016 492.212 578.123 492.846 579.057zM 455.998 564.878C 455.574 556.536 456.167 548.168 455.543 539.826C 454.933 537.134 453.966 534.516 453.454 531.799C 453.409 533.527 453.415 535.265 453.036 536.963C 452.455 534.85 452.537 532.656 452.361 530.493L 451.731 530.621L 451.79 529.385L 452.471 529.417C 452.537 528.307 452.361 527.099 453.015 526.102C 453.001 527.663 453.112 529.222 453.495 530.742C 453.633 528.639 455.393 526.223 453.57 524.331C 454.452 523.464 454.584 522.284 454.329 521.153C 453.119 521.07 451.883 521.153 450.822 521.756C 450.719 522.531 450.552 523.307 450.293 524.058C 450.493 524.07 450.889 524.103 451.088 524.118C 450.931 526.309 450.931 528.513 451.043 530.711C 450.13 530.527 449.202 530.405 448.271 530.334C 448.603 528.785 446.33 529.48 446.649 527.952C 446.903 527.947 447.409 527.942 447.667 527.94L 447.936 527.765L 448.123 527.536C 448.027 526.99 447.907 526.442 447.769 525.9C 448.049 525.91 448.611 525.943 448.888 525.95C 448.552 525.835 447.875 525.601 447.537 525.49C 448.135 523.686 447.142 522.216 446.35 520.673C 446.461 521.379 446.578 522.084 446.704 522.791C 446.105 523.281 445.578 523.834 445.097 524.422L 445.463 524.59L 445.823 523.895L 446.646 523.566C 446.619 524.128 446.558 525.235 446.532 525.795C 446.186 525.737 445.494 525.624 445.147 525.564C 445.251 526.794 445.528 528.017 445.353 529.256C 444.519 528.552 444.361 527.274 443.323 526.795C 443.274 527.877 443.274 528.959 443.274 530.047C 442.487 530.24 441.708 530.443 440.934 530.643C 441.062 529.05 440.349 527.423 440.902 525.893L 440.015 526.01L 439.92 525.16C 438.308 526.249 439.548 528.328 438.86 529.845C 438.836 533.335 438.86 536.839 438.58 540.324C 438.038 546.798 438.601 553.281 438.582 559.765C 438.043 561.915 437.638 564.405 438.133 566.552C 440.168 566.699 439.109 564.149 439.473 562.967C 439.726 567.148 439.216 571.354 439.571 575.538C 439.726 576.855 440.176 578.329 441.472 579.063C 443.112 579.875 445.002 579.347 446.751 579.267C 450.822 579.007 455.103 579.418 458.963 577.904C 460.486 577.274 460.607 575.457 460.732 574.112C 460.728 571.658 460.765 569.108 459.903 566.765C 459.315 565.281 457.586 564.634 455.998 564.878zM 446.995 527.06C 446.76 526.124 446.704 525.004 446.896 524.041L 447.118 524.061C 447.287 524.863 448.022 526.769 446.995 527.06zM 446.784 523.095L 447.138 523.138L 447.094 523.468L 446.751 523.428L 446.784 523.095zM 454.114 543.321C 453.844 541.623 453.195 539.951 453.378 538.216C 454.341 539.733 454.225 541.623 454.114 543.321zM 496.506 565.259C 496.038 565.755 495.505 566.311 495.548 567.016C 495.474 569.018 495.493 571.116 494.506 572.943C 494.686 572.959 495.05 572.98 495.228 572.991C 495.554 572.218 495.981 571.462 496.116 570.625C 496.044 569.888 496.895 568.599 495.656 568.372C 496.239 567.424 496.853 566.393 496.506 565.259zM 436.123 575.174C 436.009 576.068 435.881 576.957 435.782 577.858C 435.497 577.871 434.911 577.899 434.617 577.904C 434.617 578.005 434.612 578.191 434.601 578.284C 434.954 578.332 435.656 578.443 436.002 578.492C 436.009 578.9 436.019 579.725 436.019 580.128L 435.701 580.058C 435.528 579.815 435.176 579.321 435.002 579.081C 434.827 580.674 436.028 582.601 435.135 583.97C 435.506 584.483 435.66 585.054 435.603 585.679L 435.836 585.575C 435.803 585.212 435.737 584.488 435.701 584.129C 436.633 581.263 436.023 578.176 436.4 575.204L 436.123 575.174zM 337.684 520.859C 338.903 520.624 338.671 522.32 337.64 522.397C 336.392 522.78 337 521.103 337.684 520.859zM 326.232 552.033C 325.965 550.406 326.199 548.753 326.772 547.209C 326.955 547.298 327.323 547.486 327.505 547.583C 327.232 549.086 326.913 550.624 326.232 552.033zM 327.398 558.562C 326.775 559.116 325.481 558.181 326.247 557.54C 327.044 556.632 328.315 557.813 327.398 558.562zM 360.493 571.051C 360.54 570.292 360.596 569.539 360.651 568.75C 360.808 566.557 360.97 564.288 360.934 561.864C 360.468 558.451 359.164 555.917 357.111 554.378C 356.234 553.556 355.031 553.138 353.533 553.138C 346.821 553.138 345.76 555.654 345.739 557.027C 345.228 559.34 346.627 560.443 347.649 561.243C 348.131 561.622 348.637 561.781 349.028 561.875C 349.027 561.906 349.025 561.935 349.023 561.967C 349.02 562.066 349.017 562.166 349.006 562.245L 348.979 562.444C 348.787 563.842 348.619 565.05 347.337 565.864L 346.94 566.253C 346.635 566.714 346.066 567.201 345.85 567.206C 345.406 567.206 344.682 566.953 344.145 566.692C 343.353 565.643 343.12 564.66 343.018 563.517C 342.894 562.114 342.89 561.338 342.885 560.315C 342.881 559.769 342.876 559.164 342.852 558.474L 343.021 554.702C 343.086 553.556 343.251 552.146 343.404 550.845C 343.477 550.202 343.548 549.588 343.603 549.035C 343.645 548.627 343.899 547.732 344.104 547.005C 344.304 546.298 344.493 545.635 344.569 545.161C 345.263 540.73 347.406 538.867 348.294 538.271C 348.543 538.1 348.857 538.041 349.148 538.022L 350.097 539.208C 351.24 540.631 351.036 542.336 350.836 543.989C 350.772 544.509 350.707 545.046 350.686 545.571L 350.425 545.571L 350.749 546.869C 350.79 547.142 350.854 547.406 350.946 547.663L 351.163 548.265L 351.468 548.172L 351.468 548.268L 352.14 548.268C 353.075 548.268 354.171 547.564 354.799 547.101C 357.025 545.062 357.086 541.98 357.138 539.259C 357.144 538.948 357.149 538.646 357.158 538.34L 358.335 538.18L 358.544 537.279C 358.572 537.168 358.582 537.069 358.607 536.96C 358.675 537.044 358.734 537.089 358.769 537.058C 359.39 534.74 359.74 533.332 359.203 530.974C 359.1 530.347 358.409 530.079 357.974 529.674C 356.209 528.294 355.586 525.967 353.632 524.765C 350.634 524.101 347.52 524.087 344.458 523.869C 339.848 523.599 335.313 525.807 332.729 529.352C 332.689 529.729 332.604 530.479 332.56 530.857C 331.944 530.333 331.536 529.454 330.622 529.343C 331.098 530.107 331.718 530.802 331.96 531.675C 332.901 532.211 332.049 532.645 331.415 533.021L 331.356 532.949L 331.356 533.058C 331.211 533.143 331.075 533.231 330.99 533.314C 331.158 533.827 331.267 534.354 331.357 534.88L 331.359 536.676L 331.377 536.869C 331.531 538.214 331.675 539.488 332.186 540.709L 332.368 541.143C 332.008 541.044 331.542 540.914 331.278 540.845L 331.172 542.071C 331.452 542.026 331.945 541.948 332.311 541.887L 332.066 543.121L 331.724 543.29L 331.066 543.893L 330.681 546.021L 331.576 546.021L 331.558 546.129C 331.295 547.562 331.159 548.74 331.127 549.838L 331.119 550.14L 330.297 549.819L 330.87 553.477L 331.255 553.799C 331.386 553.909 331.531 554.012 331.638 554.065L 331.736 554.122L 331.683 554.241C 331.642 554.35 331.56 554.657 331.493 554.975L 330.976 557.151L 331.798 557.047L 331.798 557.147C 331.798 557.563 331.721 557.985 331.562 558.443L 330.904 560.347L 331.841 560.291L 331.843 560.392C 331.86 561.009 331.806 561.628 331.752 562.276C 331.654 563.378 331.542 564.626 331.935 565.808C 332.068 566.449 332.188 567.107 332.311 567.778L 332.359 568.031C 333.068 571.928 333.799 575.959 336.936 578.773C 338.262 580.015 340.234 580.727 342.342 580.727C 345.392 580.727 349.01 579.157 349.744 575.714L 349.791 575.494L 349.913 575.688C 351.466 578.123 354.198 580.104 357.659 581.279C 358.009 581.379 358.742 581.587 359.372 581.587L 360.645 581.587L 360.745 580.345C 360.876 578.735 360.76 577.156 360.632 575.421C 360.526 573.991 360.418 572.506 360.493 571.051zM 347.101 528.545C 347.508 527.956 348.056 527.808 348.629 527.877C 349.002 527.967 349.404 528.133 349.831 528.39L 349.628 528.815C 348.79 528.687 347.948 528.589 347.101 528.545zM 343.553 525.851C 343.723 525.77 343.883 525.773 344.025 525.809L 344.184 526.084C 344.228 526.161 344.254 526.242 344.262 526.334C 344.275 526.468 344.224 526.693 343.875 526.866C 342.99 527.199 342.398 525.911 343.553 525.851zM 342.309 527.053L 341.928 527.749C 341.679 528.207 341.355 528.6 340.958 529.087C 340.54 529.595 340.108 530.125 339.869 530.752C 339.339 532.278 337.825 532.987 336.346 533.661C 336.899 531.339 338.443 529.341 340.297 527.755C 340.808 527.207 341.562 527.068 342.309 527.053zM 333.282 531.884C 335.846 530.18 336.054 525.734 339.79 525.624C 338.802 527.249 337.551 528.723 336.317 530.189C 335.086 531.593 334.647 533.422 333.445 534.841C 333.065 534.389 332.677 533.939 332.282 533.492C 333.065 533.247 334.017 532.682 333.282 531.884z"/>
</g>
</svg>